<svg xmlns="http://www.w3.org/2000/svg" xmlns:xlink="http://www.w3.org/1999/xlink" viewBox="0 0 108 120"><defs><style>.cls-1,.cls-3{fill:none;}.cls-2{isolation:isolate;}.cls-3{stroke:#98f900;stroke-miterlimit:10;stroke-width:2px;}.cls-4{fill:#98f900;}.cls-5{fill:url(#radial-gradient);}.cls-6{mix-blend-mode:color-burn;}.cls-7{clip-path:url(#clip-path);}.cls-8{fill:#603813;fill-rule:evenodd;}.cls-9{fill:#87352a;mix-blend-mode:multiply;}.cls-10{fill:#8bc53f;mix-blend-mode:hue;}</style><radialGradient id="radial-gradient" cx="1503.82" cy="1268.92" r="7.5" gradientTransform="matrix(0, -1, 1, 0, -1214.58, 1513.12)" gradientUnits="userSpaceOnUse"><stop offset="0" stop-color="#f05a28"/><stop offset="0.31" stop-color="#ee5728"/><stop offset="0.51" stop-color="#e64e29"/><stop offset="0.69" stop-color="#da3f2a"/><stop offset="0.85" stop-color="#c82a2c"/><stop offset="0.92" stop-color="#be1e2d"/><stop offset="1" stop-color="#ec1c24"/></radialGradient><clipPath id="clip-path"><circle class="cls-1" cx="54.38" cy="9.3" r="7.5" transform="translate(8.07 39.28) rotate(-42.62)"/></clipPath></defs><g class="cls-2"><g id="_1stLawIcons" data-name="1stLawIcons"><ellipse class="cls-3" cx="54.16" cy="61.79" rx="40.33" ry="54.49"/><path class="cls-4" d="M89.43,6.17H95a14.15,14.15,0,0,1,1.94.13,5.59,5.59,0,0,1,1.76.55A3.29,3.29,0,0,1,99.93,8a3.55,3.55,0,0,1,.48,2,3.12,3.12,0,0,1-.7,2.09,3.83,3.83,0,0,1-1.86,1.18v0a4.3,4.3,0,0,1,1.33.4,3.83,3.83,0,0,1,1,.78,3.23,3.23,0,0,1,.66,1.1,3.76,3.76,0,0,1,.23,1.35,3.53,3.53,0,0,1-.5,2,3.94,3.94,0,0,1-1.3,1.27,5.73,5.73,0,0,1-1.8.7,9.52,9.52,0,0,1-2,.21H89.43Zm3.27,5.94h2.38a3.65,3.65,0,0,0,.74-.08,2,2,0,0,0,.66-.28,1.36,1.36,0,0,0,.48-.5,1.61,1.61,0,0,0,.17-.76,1.38,1.38,0,0,0-.19-.76,1.49,1.49,0,0,0-.52-.48A2.58,2.58,0,0,0,95.71,9a4.26,4.26,0,0,0-.78-.07H92.7Zm0,6.15h2.94a3.36,3.36,0,0,0,.77-.08,2.07,2.07,0,0,0,.7-.29,1.82,1.82,0,0,0,.52-.55,1.61,1.61,0,0,0,.2-.82,1.35,1.35,0,0,0-.26-.85,1.64,1.64,0,0,0-.67-.49A2.94,2.94,0,0,0,96,15a5.33,5.33,0,0,0-.86-.07H92.7Z"/><circle class="cls-5" cx="54.38" cy="9.3" r="7.5" transform="translate(8.07 39.28) rotate(-42.62)"/><g class="cls-6"><g class="cls-7"><path class="cls-8" d="M61.74,10.93h0Z"/><path class="cls-8" d="M61,10.56l0-.05s0,0,0,0a.65.65,0,0,0-.21-.16s0,0,0,0a.1.1,0,0,1,0-.06,1.43,1.43,0,0,0,.2.14C61,10.49,61,10.5,61,10.56Z"/><path class="cls-8" d="M60.44,9.75s0,0,0-.06A.18.18,0,0,1,60.44,9.75Z"/><path class="cls-8" d="M59.09,12s-.1,0-.09-.06a.28.28,0,0,1-.18,0,.25.25,0,0,1,0-.07C59,11.8,59.19,11.75,59.09,12Z"/><path class="cls-8" d="M59.48,9.4s0,0,0,0,0,0,0,0S59.46,9.42,59.48,9.4Z"/><path class="cls-8" d="M58.93,8.94s0,0,0,0S58.92,8.93,58.93,8.94Z"/><path class="cls-8" d="M57.71,8.82s0,0-.05,0-.17,0-.26,0l-.12,0c-.16,0-.33,0-.49,0a2.26,2.26,0,0,1-.25,0c.05-.13.21-.1.32-.09a.1.1,0,0,0,0,0c.27,0,.51-.08.7.09,0,0,.07,0,.12,0s0,0,0,0S57.72,8.8,57.71,8.82Z"/><path class="cls-8" d="M56.76,9s-.07,0-.07,0,0,0-.08,0A1.36,1.36,0,0,0,56,9S56,9,56,9s.14-.09.23-.09.26,0,.37,0a.32.32,0,0,0,.2,0A.2.2,0,0,1,56.76,9Z"/><path class="cls-8" d="M56.16,9.09v0s-.1,0-.14.06a.15.15,0,0,1,0-.07S56.12,9.07,56.16,9.09Z"/><path class="cls-8" d="M55.93,9s0,0-.06,0S55.91,9,55.93,9Z"/><path class="cls-8" d="M54.87,9.7s0,.08,0,.08-.08.11-.11.18,0,0,0,0,0,0,0,0a.9.9,0,0,0-.07.11h0s0-.05,0,0v0s0,0,0,0a0,0,0,0,1,0,0h0s.05-.07,0-.08.08,0,.07-.07S54.8,9.77,54.87,9.7Z"/><path class="cls-8" d="M54.62,10.1h0Z"/><path class="cls-8" d="M54.61,10.14s0,0,0,0S54.6,10.13,54.61,10.14Z"/><path class="cls-8" d="M54.53,10.19s0,0,0,.05S54.52,10.21,54.53,10.19Z"/><path class="cls-8" d="M54.49,10.27a0,0,0,0,1,0,0S54.48,10.28,54.49,10.27Z"/><path class="cls-8" d="M54,10.72l0,0S54,10.71,54,10.72Z"/><path class="cls-8" d="M55.29,10.43c.05,0,.1,0,.11-.07s.21,0,.27-.11.07,0,.1,0a.6.6,0,0,0,.38-.21h0l.1-.1a.39.39,0,0,1,.3,0v0c.1,0,.18.14.25.16s0,0,0,0l.08,0a.12.12,0,0,0,.17,0s0,0,.08,0a2,2,0,0,1,.53.37s0,0,.07,0,.12.13.2.14.07.08.09.15,0,.14.07.11.19.12.24.27a1.39,1.39,0,0,0,.06.19c.08,0,.13.08.22.11l0,0s.16,0,.19.06.29-.09.44,0c.11-.07.23,0,.34,0s.18.08.21.16a.44.44,0,0,0,.15.05l0,0,0,0a.45.45,0,0,0,.41,0s.05,0,.07,0a5,5,0,0,1,.65-.22s.1,0,.12.08,0,0,.06,0,0,0,0,0a.54.54,0,0,0,.2-.22c0-.06,0-.12,0-.09s-.1-.07,0-.18,0-.06,0-.07h-.11s0,0,0,0-.06,0-.06,0,0,0,.09,0,0-.05,0-.07h0s0,0,0,0h0l-.14-.05a.92.92,0,0,1-.34-.19s0-.06-.06-.05,0,0,0-.06,0,0,0,0a0,0,0,0,1-.06,0s-.07,0-.1,0a.41.41,0,0,0,0-.09.06.06,0,0,1,0,.05c-.07,0-.09-.13-.15-.14a.35.35,0,0,0-.06-.09c0-.15-.09-.25-.19-.25s0-.09,0-.14,0-.2-.08-.19l0,0s-.08-.06-.11-.1,0-.09-.07-.1-.1,0-.18.07-.15,0-.14,0,0,0,0,0,0,0,0,0l0,.06s0,0,.08,0,0,0,0,0a.64.64,0,0,1,.26,0c.07,0,.09.1.15.08s0,0,0,.05,0,0,0,.06.06,0,.07,0,0,.09.06.13,0,.06,0,.13,0-.06,0,0a.11.11,0,0,1,0,0c-.06,0-.14.15-.21.15a.08.08,0,0,0-.11,0,.73.73,0,0,0-.5-.34c0-.06,0-.08-.1-.1s-.22-.09-.21-.2c-.1.07-.15,0-.14-.09s-.08,0-.09,0,0,0,0,0h0s0,0,0-.08,0,0,0,0a.09.09,0,0,1,.06,0s0,0,0,.05,0,0,0,0,0,0,0,.06h0s0,0,0,0c-.11-.22-.33-.26-.55-.34,0,0,0,0,0-.06s-.12,0-.19.06a1.83,1.83,0,0,1,.25.1.17.17,0,0,1,0,.13c-.11,0-.17-.12-.27-.14h0a.48.48,0,0,1-.15-.1,2.88,2.88,0,0,0-.31-.13s0-.06-.07,0a.28.28,0,0,0,.16.07.58.58,0,0,0,.2.13c.09.12.22.11.35.22,0,.06,0,.06,0,.08s0,.08,0,.1,0,0,0,0a.18.18,0,0,1,0,.09l0,0s0,.06,0,.11-.25,0-.34-.09,0-.07,0-.1,0,.07,0,.11-.09,0-.14,0,0,0,0-.05-.18,0-.26-.07-.22-.1-.37-.1,0,0,0,0-.2,0-.24-.15,0,0-.07,0l0,0s-.06,0-.09,0S56.8,9,56.76,9s-.09,0-.12,0-.08,0-.1.1l0,0s.08-.1.14-.1,0,0,.09,0v0c.19,0,.25.19.41.2a.89.89,0,0,1,.08.17s-.08,0-.13,0-.3,0-.45,0-.2,0-.3,0-.07,0-.11,0,0,0,0,0-.12-.1-.18-.11l0,0H56c-.05,0-.08.09-.14.12a1.69,1.69,0,0,0-.28.12c-.09,0-.17.11-.28.15s-.19.12-.2.22h0c0,.05-.07.08-.06.13h0a1.13,1.13,0,0,1-.27.4l-.22.07a.3.3,0,0,0-.2.09.64.64,0,0,0,0,.25.06.06,0,0,0,0,.07l-.13.21c-.1.14-.21.21-.3.36h0s0,.06,0,.07l.09-.11s0,0,0-.06A.6.6,0,0,0,54,11.5s0,0,0,0l.06-.05.1-.13c.07-.11.15-.22.13-.29s0-.08,0-.12a.73.73,0,0,1,0-.09c.13-.05.26,0,.41-.1s0,0,.08,0-.34.31-.41.47c0,0,0,0,.05,0l.3-.29c.06-.06.09-.14.17-.2l.14-.09s0,0,0,0,.17,0,.19-.09S55.27,10.42,55.29,10.43Zm6.28.69h0l0,0h0S61.59,11.1,61.57,11.12Zm-.37,0s.06,0,.07,0,0,0,0,0S61.22,11.09,61.2,11.11Zm-.15.09a0,0,0,0,1,0,0s-.1,0-.12-.06A.5.5,0,0,0,61.05,11.2Zm-.18-.1s0,0,0,0,0,0,0,0S60.85,11.1,60.87,11.1Zm0,.16a1.05,1.05,0,0,0-.21-.06c-.06,0-.14.05-.18,0s.16,0,.21-.08.12.07.16,0S60.85,11.22,60.84,11.26Zm0-.17v0s-.06,0-.06,0S60.79,11.07,60.82,11.09Zm-.07,0a0,0,0,0,0,0,0S60.73,11,60.75,11.05Zm0-.14s0,0,0,0l0-.06s0,0-.09,0,0,0,0,0a.6.6,0,0,1-.52-.25c.06-.09.09,0,.15-.16.1,0,.14.15.25.1s.09.1.15.14A.24.24,0,0,1,60.76,10.91Zm-.25-.38s0,0,0,0,0,0,0-.07-.12,0-.11-.13.06,0,.07,0,.11-.11.15,0,0,.08,0,.1,0,0,.06.09S60.56,10.46,60.51,10.53Zm-.08.7s0,0,0,0S60.41,11.22,60.43,11.23ZM59.57,11c-.07,0-.16,0-.22-.1s-.05-.14-.14-.19-.07,0-.11,0-.06-.08-.14,0-.05-.11-.13-.08a.64.64,0,0,1,.25-.12c.19.16.41.24.51.51Zm-1-.6s0,0,0,0-.09-.05-.12-.07,0-.05,0-.07-.1,0-.06-.08-.07-.06-.12,0,.1-.05.1-.11-.05.05-.08.06,0-.05,0-.1a.18.18,0,0,1,.22.11s.06.05.08.09,0,0,0,0,0,.16.07.18S58.56,10.38,58.57,10.38ZM58.19,10s0,0,0,0,0,0,.06,0S58.21,10,58.19,10Zm-.47.23-.18-.09c-.08,0-.16-.13-.26-.12s-.07-.09-.11,0-.12,0-.17,0-.14,0-.21-.07,0,0,0-.06,0,0-.06,0-.06,0-.09-.06,0,0,0,0l0,0s-.05,0-.08,0-.14,0-.22.06a.23.23,0,0,0,.05-.17.35.35,0,0,1,.14,0,.11.11,0,0,0,.1,0l.07,0a1.23,1.23,0,0,1,.19,0s.1,0,.13,0,.17.08.25,0,.12,0,.17,0,0,.22.12.23.17-.11.24-.12.06,0,.08,0,.06.13.14.14-.11.15-.16.21S57.74,10.21,57.72,10.25Zm-1.53-.44a.13.13,0,0,0,0,0s-.05,0-.06,0L56,10l0,0-.14,0-.13.07s-.12,0-.14.07-.14,0-.16.07-.12,0-.19.07-.09.17-.22.23.08-.08.08-.12.06-.08.08-.11,0-.05.06-.08,0-.06.08-.1l.06,0a.94.94,0,0,1,.15-.06s0,0,0,0l.1,0,0,0h0c.1,0,.21-.08.33-.1h.07l0,0S56.16,9.83,56.19,9.81Zm-.94.61h0A0,0,0,1,1,55.25,10.42Z"/><path class="cls-8" d="M59.59,9.53l0,0c0,.05.08,0,.06.08a.71.71,0,0,1-.17-.11A0,0,0,0,1,59.59,9.53Z"/><path class="cls-8" d="M59.5,9.42s0,0,.06,0-.05,0-.08,0S59.49,9.44,59.5,9.42Z"/><path class="cls-8" d="M54.61,10.05s-.06.09-.07.13S54.59,10.09,54.61,10.05Z"/><path class="cls-8" d="M63,10h0Z"/><path class="cls-8" d="M62.19,9.62l0,0s0,0,0,0a.53.53,0,0,0-.28-.1s0,0,0,0,0-.06,0-.07.18.08.27.1S62.18,9.56,62.19,9.62Z"/><path class="cls-8" d="M61.25,9s0,0,0-.06S61.25,9,61.25,9Z"/><path class="cls-8" d="M60.71,11.51s-.09,0-.1,0a.27.27,0,0,1-.16.08.08.08,0,0,1,0-.07C60.54,11.42,60.74,11.29,60.71,11.51Z"/><path class="cls-8" d="M60.35,9s0,0,0,0,0,0,0,0S60.34,9,60.35,9Z"/><path class="cls-8" d="M59.89,8.71s0,0,0,0S59.87,8.7,59.89,8.71Z"/><path class="cls-8" d="M58.93,8.66s0,0,0,0-.11-.07-.17-.09h-.1a1.29,1.29,0,0,1-.33-.17c-.06,0-.13-.07-.16-.13s.18,0,.24.09h.06c.16.13.37.08.45.26,0,0,0,0,.09,0v0Z"/><path class="cls-8" d="M58.16,8.48s-.06,0,0-.05,0,0-.06,0-.27-.25-.4-.39,0,0,0,0,.13,0,.18.11.14.15.2.21a.2.2,0,0,0,.11.13Z"/><path class="cls-8" d="M57.7,8.19l0,0s-.07-.06-.11-.08h.07S57.69,8.15,57.7,8.19Z"/><path class="cls-8" d="M57.67,8s-.05,0-.06,0S57.65,8,57.67,8Z"/><path class="cls-8" d="M56.78,7.31s-.08,0-.07,0-.11,0-.18-.08,0,0,0,0,0,0,0,0l-.1-.06h0s.05,0,0,0h0s0,0,0,0,0,0,0,0v0s.07.05.07,0,0,.07.07.06S56.71,7.26,56.78,7.31Z"/><path class="cls-8" d="M56.39,7.12s0,0,0,0S56.4,7.11,56.39,7.12Z"/><path class="cls-8" d="M56.35,7.1s0,0,0,0S56.36,7.1,56.35,7.1Z"/><path class="cls-8" d="M56.31,7s0,0,0,0S56.3,7,56.31,7Z"/><path class="cls-8" d="M56.24,7h0S56.23,7,56.24,7Z"/><path class="cls-8" d="M55.88,6.52s0,0,0,0Z"/><path class="cls-8" d="M56.1,7.8a.19.19,0,0,0,.09.12.75.75,0,0,0,.2.29s0,.06.07.1a.7.7,0,0,0,.43.36l0,0,.17.06a1,1,0,0,1,.28.3s0,0,0,0a1.72,1.72,0,0,0,.2.38s.07,0,.07.06l.13,0A.28.28,0,0,0,58,9.7c0,.05.08,0,.11.07.21.15.47.39.7.56,0,0,0,0,.08,0a.34.34,0,0,0,.28.14c0,.08.09.09.14.15s0,.14.11.11.25.08.35.21.08.13.13.17a1.09,1.09,0,0,0,.26,0s0,0,0,0,.15-.05.21,0,.25-.18.41-.14.23-.06.32-.1.18,0,.23.09a.4.4,0,0,0,.15,0s0,0,0,0l0,0c.1,0,.26,0,.37-.1s0,0,.06,0a2.55,2.55,0,0,1,.54-.32s.09,0,.12.08l0,0s0,0,0,0a.63.63,0,0,0,.16-.22c0-.06,0-.12,0-.1s-.1-.07,0-.17,0-.06,0-.07h-.11s0,0,0,0h-.06c.05,0,.05,0,.09-.05s0-.06,0-.08h0s0,0,0,0h0a.64.64,0,0,0-.15-.05,2.72,2.72,0,0,1-.38-.16.05.05,0,0,0-.07,0s0-.05,0-.06,0,0,0,0,0,0-.07,0-.09,0-.12,0A.18.18,0,0,0,62,9.55a.09.09,0,0,1,0,0c-.08,0-.13-.11-.21-.1a.15.15,0,0,0-.09-.07c-.09-.14-.2-.22-.3-.19,0-.12-.06-.07-.09-.11s-.08-.19-.14-.16,0,0,0,0S61,9,61,8.94s0-.07-.08-.07-.08,0-.14.13-.11.1-.12,0,0,.05,0,0,0,0,0,0,0,0,0,.07,0,0,.08,0,0,0,0,0A.8.8,0,0,1,60.87,9C60.93,9,61,9,61,9S61,9,61,9s0,0,.06,0,0-.05.06,0,0,.08.09.1.06,0,.05.12,0,0,0,0,0,0,0,0-.09.19-.15.21a.09.09,0,0,0-.12,0,.66.66,0,0,0-.53-.15s-.05-.06-.11-.06c0-.16-.2,0-.21-.13-.08.1-.13,0-.13,0s-.07,0-.08,0,0,0,0,0,0,0,0,0,0,0,0-.08,0,0,0,0,0,0,0,0,0,0,0,0,0,0,0,0,0,0,0,0,0,0,0,0H60s0,0,0,0c-.1-.17-.27-.16-.45-.2a.11.11,0,0,0,0-.06c-.06,0-.1,0-.17.08a1.43,1.43,0,0,1,.21.06.26.26,0,0,1,0,.13c-.09,0-.13-.1-.22-.1h0c-.07,0-.08,0-.12-.08A1.64,1.64,0,0,0,59,8.72s0-.06-.05,0,.07.08.11.08a.35.35,0,0,0,.14.13c.06.12.17.11.28.2s0,.05,0,.06,0,.09,0,.1,0,0,0,0a.18.18,0,0,1,0,.09s0,0,0,0,0,.06,0,.11-.24,0-.32-.06a.44.44,0,0,0,0-.1s0,.07,0,.11-.09,0-.13,0,0,0,0,0-.16-.07-.24-.1S58.56,9,58.42,9s0,0,0,0-.17-.1-.14-.23,0,0,0-.06h0s0,0,0-.05,0-.07,0-.1-.07,0-.1,0-.08,0-.13,0v0c.05,0,.12,0,.16,0s0,.07,0,.07v0c.16.07.09.3.24.37a.59.59,0,0,1,0,.19s-.08,0-.13,0-.28-.19-.43-.26-.18-.13-.28-.2,0-.07,0-.11,0,0,0,0,0-.16,0-.21l0,0-.05-.06s-.13,0-.17-.07L56.9,8c0-.09-.16-.14-.22-.24s-.15-.16-.25-.17,0,0,0,0-.09-.07-.14-.06,0,0,0,0a1,1,0,0,1-.41-.3,1.7,1.7,0,0,0,0-.22.42.42,0,0,0-.06-.21,1.18,1.18,0,0,0-.23-.09.11.11,0,0,0-.07,0,1.41,1.41,0,0,1-.18-.17c-.11-.13-.14-.25-.26-.38v0S55,6,55,6l.08.12s0,0,0,.06a.93.93,0,0,0,0,.1h0s0,0,0,.07a.75.75,0,0,0,.11.13c.09.1.18.2.25.19s.08,0,.12,0l.07.07a3.65,3.65,0,0,0,0,.42.15.15,0,0,1,.05.08c-.14-.08-.28-.38-.42-.48s0,0,0,.06l.26.35c.06.07.14.11.2.19s.05.1.09.16a0,0,0,0,1,0,0c.06,0,0,.18.11.2S56.1,7.78,56.1,7.8Zm6.7,2.33h0l0,0h0S62.82,10.11,62.8,10.13Zm-.37,0c0-.05,0-.07.07-.06s0,0,0,0S62.46,10.12,62.43,10.15Zm-.13.1v0s-.1,0-.13,0Zm-.2-.07s0,0,0,0,0,0,0,0Zm0,.17a.49.49,0,0,0-.21,0c-.06,0-.12.08-.17.06s.14-.07.18-.13.13,0,.16,0S62.11,10.31,62.11,10.35Zm-.06-.17v0s-.06,0-.06,0S62,10.17,62.05,10.18Zm-.07,0a0,0,0,0,0,0,0S62,10.15,62,10.16ZM62,10s0,0,0,0,0,0-.06,0,0,0-.08,0,0,0,0,0a.67.67,0,0,1-.59-.09c0-.1.08,0,.09-.2.11,0,.19.09.29,0s.12.07.19.09A.25.25,0,0,1,62,10Zm-.36-.3s0,0,0-.05,0,0-.06-.05-.15,0-.17-.09,0-.06.07,0,.09-.14.17-.06l.06.09s.07,0,.09.07S61.63,9.64,61.6,9.72Zm.11.69s0,0,0,0S61.7,10.41,61.71,10.41Zm-.87,0c-.07,0-.16,0-.24,0s-.09-.12-.19-.13-.06,0-.11,0-.08-.07-.14,0-.08-.1-.15-.05a.72.72,0,0,1,.21-.18c.22.1.45.1.63.32Zm-1.14-.28s0,0,0,0-.1,0-.15,0,0-.05,0-.07-.1,0-.08-.07-.08-.05-.13,0,.1-.05.09-.12,0,.06-.07.07,0,0,0-.1a.19.19,0,0,1,.24.09s.07,0,.1.06,0,0,0,0,0,.16.1.17S59.7,10.16,59.7,10.16Zm-.46-.31s0,0,0,0,0,0,.05,0S59.26,9.83,59.24,9.85Zm-.49.23L58.53,10c-.1-.06-.2-.18-.32-.21s-.08-.13-.14-.1-.16-.09-.23-.12-.19-.12-.25-.24,0-.07,0-.1,0,0,0-.06A.69.69,0,0,1,57.47,9s0,0,0,0,0,0,0,0,0-.05-.06-.09-.13-.11-.23-.18a.19.19,0,0,0,.19,0,.41.41,0,0,1,.12.11s0,0,.08.09l.08,0c.06.05.1.12.16.17s.11.05.12.11.15.17.26.16.12.08.17.11,0,.24.1.28.2-.07.28-.08.06,0,.09.05.05.14.14.15l-.16.21S58.78,10,58.75,10.08ZM57.12,8.62s0,0,0,0-.06,0-.09,0a2.14,2.14,0,0,1-.19-.13s0,0,0-.06l-.11-.13a1.42,1.42,0,0,0-.13-.12c0-.05,0-.13-.11-.14s-.07-.14-.12-.17-.07-.12-.1-.18-.2-.1-.26-.24.08.09.13.09.09.06.12.08l.09.06a.38.38,0,0,1,.11.07l.05.06s.07.11.11.14l0,0,0,.1h0s0,0,0,0a1.8,1.8,0,0,0,.26.3l0,.07s0,0,.05,0S57.08,8.6,57.12,8.62Zm-1-.86s0,0,0,0S56.12,7.75,56.1,7.76Z"/><path class="cls-8" d="M60.47,9.07l0,0s.07,0,.07,0a.84.84,0,0,1-.17,0S60.47,9.05,60.47,9.07Z"/><path class="cls-8" d="M60.37,9s0,0,.05,0,0,0-.07.06S60.37,9,60.37,9Z"/><path class="cls-8" d="M56.45,7.1s-.09,0-.13-.06S56.4,7.08,56.45,7.1Z"/><path class="cls-8" d="M47.39,5.57h0l0,0Z"/><path class="cls-8" d="M48.05,6.5s0,0,.05.07,0,0,0,0a1.2,1.2,0,0,0,.48.26l0,0a0,0,0,0,1,0,0,4.06,4.06,0,0,1-.51-.26S48,6.56,48.05,6.5Z"/><path class="cls-8" d="M50,7.38s.05,0,.05,0S50,7.41,50,7.38Z"/><path class="cls-8" d="M49.87,4.8s.06,0,.07,0A.21.21,0,0,1,50,4.67l0,.06C50,4.84,49.9,5,49.87,4.8Z"/><path class="cls-8" d="M51.78,6.62s0,0,0,0,0,0,0,0S51.77,6.6,51.78,6.62Z"/><path class="cls-8" d="M52.62,6.19s0,0,0-.05S52.63,6.18,52.62,6.19Z"/><path class="cls-8" d="M53.29,5.31s0,0,.05,0,.13,0,.19-.07,0,0,.08-.06a.92.92,0,0,1,.4-.07.52.52,0,0,1,.22,0c-.07.12-.19.06-.28.06a.05.05,0,0,0,0,0c-.22,0-.34.17-.52.11,0,0,0,0-.07.06h0A.14.14,0,0,1,53.29,5.31Z"/><path class="cls-8" d="M54.05,4.93s.07,0,.06,0,0,0,.09,0,.41.11.61.22c0,0,0,0,0,0s-.16,0-.23,0-.22-.08-.32-.11A.22.22,0,0,0,54,5S54,5,54.05,4.93Z"/><path class="cls-8" d="M54.7,5V5c.06,0,.11,0,.17,0s-.06,0-.08,0S54.72,5,54.7,5Z"/><path class="cls-8" d="M54.83,5.21s.06,0,.07,0S54.86,5.2,54.83,5.21Z"/><path class="cls-8" d="M56,5.83s.09,0,.09,0,.13.07.21.12,0,0,0,0,0,0,0,0l.12.09h0s0,0,0,0,0,0,0,0h0s0,0,0,0h0s0,0,0,0S56.3,6,56.3,6s0-.08-.09-.07A.83.83,0,0,0,56,5.83Z"/><path class="cls-8" d="M56.46,6.1s0,0,0,0S56.45,6.1,56.46,6.1Z"/><path class="cls-8" d="M56.51,6.12s0,0,0,0S56.5,6.13,56.51,6.12Z"/><path class="cls-8" d="M56.56,6.21s0,0,0,0Z"/><path class="cls-8" d="M56.64,6.28h0S56.65,6.29,56.64,6.28Z"/><path class="cls-8" d="M57.05,6.91s0,0,0,0S57,6.92,57.05,6.91Z"/><path class="cls-8" d="M56.72,5.37a.3.3,0,0,0-.13-.16,1.06,1.06,0,0,0-.33-.37s-.08-.08-.12-.12a1.2,1.2,0,0,0-.72-.39l-.05,0-.26,0A6.12,6.12,0,0,1,54.53,4s0,0,0,0a1.89,1.89,0,0,0-.6-.24.3.3,0,0,1-.16,0l-.19.06a.56.56,0,0,0-.44.11c-.08,0-.14,0-.21.06a6.56,6.56,0,0,0-1.19.47s0,0-.06.07a.46.46,0,0,0-.3.19c-.07,0-.13,0-.2,0s-.14,0-.15,0-.19.12-.33.08a1.21,1.21,0,0,0-.18,0s-.11,0-.17.09,0,0,0,0-.08.11-.14.09-.12.26-.27.27-.18.12-.27.18-.17,0-.22-.07h-.13s0,0,0,0a.08.08,0,0,1,0,0c-.09-.06-.23,0-.35,0s0,0-.06,0a1,1,0,0,1-.62,0c0-.06-.06-.08-.05-.13h0s0,0,0,0a.72.72,0,0,0-.28,0s-.11.06-.06.08,0,.13-.15.1c0,0-.07,0-.06,0a.73.73,0,0,0,.09.1h0l.07,0c-.07,0-.09,0-.13-.06s-.06,0-.11,0l0,0s0,0,0,0,0,0,0,0a1.19,1.19,0,0,0,.1.18c.14.16.22.32.36.46s.05.08.08.09,0,0,0,.06,0,0,0,0a.26.26,0,0,1,.11.07c.05,0,.14.08.21.08a.25.25,0,0,0,.11.12s0,0,0,0c.16,0,.22.17.38.18A.4.4,0,0,0,49,7a.8.8,0,0,0,.67.19c.06.12.16,0,.24.09s.28.15.41.09,0,0,0,0a1.37,1.37,0,0,0,.34,0c.08,0,.16,0,.24,0A.26.26,0,0,0,51.09,7c.07,0,.1-.17.19-.13s0,0,0-.06,0,0,0,0,0,0,0-.07-.07,0-.09.09h0a.87.87,0,0,1-.29.28c-.12,0-.26,0-.34.09s0,0,0,0-.09,0-.15,0-.06.07-.11.07-.16,0-.26,0-.15,0-.16-.11.06,0,.09,0a.1.1,0,0,1-.05,0c.09-.07.11-.21.21-.25a.31.31,0,0,0,.21-.06,1.33,1.33,0,0,0,1-.26.28.28,0,0,0,.21-.07c.16.1.29-.2.41-.17,0-.12.12-.14.18-.12s0-.08.09-.08,0,0,0,0,0,0,0,0,.05,0,.07,0,0,0,.05,0,0,0,0,.07-.05,0-.07,0,0,0,0,0,0,0-.09,0,0,0,0,0l-.06.08s0,0,0,0a1.13,1.13,0,0,0,.61-.41.07.07,0,0,0,.06,0c0-.06.08-.09,0-.19a2,2,0,0,1-.2.18.13.13,0,0,1-.11-.07c.06-.1.19-.11.25-.19s0,0,0,0,.11,0,.16-.07.17-.1.26-.13.06,0,.06,0a.14.14,0,0,0-.13,0,.42.42,0,0,0-.21.06c-.16,0-.22.12-.39.19s0,0-.07,0-.07-.06-.1,0,0,0,0,0a.1.1,0,0,1-.08,0l.05,0s-.07,0-.1-.06.16-.25.29-.3l.09.06c0-.05-.06,0-.09-.08s.08-.08.09-.13,0,0,0,0A1,1,0,0,0,53,4.86a2.37,2.37,0,0,1,.45-.15s0,0,0,0,.25-.06.32.06,0,0,.08,0l0,0s.06,0,.09,0,.07,0,.1.06a.13.13,0,0,0,.13,0s.1,0,.13-.06l0,0s-.11.08-.17.07-.06,0-.1,0v0c-.2,0-.32-.18-.53-.13a.71.71,0,0,1-.18-.12c.08,0,.09,0,.17-.06s.47,0,.7-.06a3.65,3.65,0,0,0,.46.07s.09.06.14.09,0,0,0,0,.08.15.14.21H55s.07,0,.09,0,.17,0,.24.06a1.8,1.8,0,0,1,.35.21c.08.09.24.15.33.27s.22.2.33.22,0,0,0,0,.11.09.17.09l0,0a1.34,1.34,0,0,1,.49.44,2.44,2.44,0,0,0,.06.26.49.49,0,0,0,.07.27,1.23,1.23,0,0,0,.25.17.08.08,0,0,0,.07,0,1.57,1.57,0,0,1,.19.26c.13.2.15.34.28.53v0s0,.07.06.08A1.47,1.47,0,0,0,58,7.63s0-.06,0-.09l0-.12,0,0,0-.09a.78.78,0,0,0-.11-.18c-.09-.15-.19-.29-.27-.3s-.09-.05-.13-.08l-.09-.1a2.5,2.5,0,0,0-.06-.51s-.06-.07-.06-.11a7.25,7.25,0,0,1,.49.7s0,0,0-.08-.18-.31-.29-.49A3.7,3.7,0,0,1,57,5.86c0-.06-.07-.13-.13-.2s0,0,0,0-.07-.22-.16-.26S56.73,5.39,56.72,5.37Zm-9,.26h0l0,0S47.66,5.63,47.7,5.63Zm.38.28s-.11,0-.13,0,0-.05,0-.05S48,5.91,48.08,5.91Zm.21,0s0,0,0,0,.12,0,.13.1Zm.2.16s0,0,0,0,0,0,0,0S48.51,6.07,48.49,6.07Zm.06-.15a.85.85,0,0,0,.24.09C48.87,6,49,6,49,6s-.19,0-.26.08a.39.39,0,0,0-.2-.06S48.53,6,48.55,5.92Zm0,.18v0s.09,0,.08,0S48.59,6.12,48.55,6.1Zm.09,0,0,0S48.67,6.16,48.64,6.14Zm0,.15s0,0,.05,0,0,.06.07.07.07,0,.13,0,0,0,0,0a2.86,2.86,0,0,1,.89.1c0,.1-.11.06-.1.21-.19,0-.33-.07-.49,0a2.56,2.56,0,0,1-.32-.12C48.75,6.49,48.63,6.42,48.62,6.29Zm.5.39s0,0,0,.05.08,0,.11.06.27,0,.33.09-.09.06-.14,0-.17.14-.34,0-.07-.07-.1-.09-.14,0-.16-.1S49.06,6.76,49.12,6.68ZM49,6s0,0,.06,0S49.06,6,49,6Zm1-.12a1.2,1.2,0,0,1,.27-.08c.09,0,.16.06.27,0s0-.06.09-.09.12,0,.13-.09.14,0,.16-.08a.58.58,0,0,1-.05.29,1.1,1.1,0,0,1-.87.07Zm1.24-.5s0,0,0,0,.1-.07.15-.1.06,0,.09,0,0-.1.11,0,.11,0,.12-.12,0,.12.06.15,0-.07,0-.1.07,0,.11,0a.29.29,0,0,1-.25.2c0,.06-.08,0-.14.06s0,0,0,0-.18-.05-.23,0S51.33,5.36,51.31,5.36Zm.62-.28h0s0,0,0,.07A.07.07,0,0,1,51.93,5.08Zm.1-.59.3-.17c.15-.08.37-.13.53-.23s.23,0,.27-.07a2.62,2.62,0,0,0,.4-.11,2.1,2.1,0,0,1,.55,0s.07,0,.11.07a.45.45,0,0,1,.11,0,.86.86,0,0,1,.16.1l.09,0,0,0s.1,0,.13.07a2.88,2.88,0,0,1,.4.12.21.21,0,0,0-.21.09,1.43,1.43,0,0,1-.22-.08.37.37,0,0,0-.16,0H54.4c-.1,0-.2-.06-.3-.07s-.18,0-.25,0-.32,0-.44.06-.2,0-.28.07a.37.37,0,0,0-.38-.06c-.11.07-.11.23-.17.31s-.07.05-.11.07-.19,0-.26.08a2.16,2.16,0,0,1-.1-.25S52.05,4.53,52,4.49Zm3.13-.07s0,0,0,0,.09,0,.13,0a3.05,3.05,0,0,1,.32.13s0,0,0,.06l.19.15.21.14c.07,0,.11.15.18.17s.13.17.19.2.12.15.16.24.25.16.34.34c-.06,0-.11-.13-.17-.15s-.11-.08-.15-.11a.87.87,0,0,0-.11-.09.56.56,0,0,1-.15-.1l-.08-.07c-.06,0-.11-.14-.16-.18l0,0S56,5,56,5l0,0a.61.61,0,0,0,0-.06,2.63,2.63,0,0,0-.44-.32s-.06,0-.1-.06,0,0-.07,0S55.22,4.42,55.16,4.42Zm1.56,1s0,0,0,0S56.71,5.42,56.72,5.41Z"/><path class="cls-8" d="M51.52,6.71s0,0,0,0-.11.09-.16,0l.31-.14S51.53,6.73,51.52,6.71Z"/><path class="cls-8" d="M51.73,6.64s0,.05,0,.06,0-.06,0-.1S51.71,6.62,51.73,6.64Z"/><path class="cls-8" d="M56.4,6.11c.05,0,.1.07.15.09S56.45,6.13,56.4,6.11Z"/><path class="cls-1" d="M48.13,6.16a2.22,2.22,0,0,1,1-.23,2.76,2.76,0,0,0,.89-.3,5.61,5.61,0,0,0,.69-.43l2.4-1.65-.82-1.19L49.87,4a5.92,5.92,0,0,1-.54.35,1.59,1.59,0,0,1-.48.15c-.2,0-.45.06-.76.13a2,2,0,0,0-1,.52Z"/><path class="cls-8" d="M47.73,5.77l0,0h0Z"/><path class="cls-8" d="M48.21,6s0,0,0,0,0,0,0,0a.13.13,0,0,0,.12-.06,0,0,0,0,0,0,0,.13.13,0,0,1,0,.06c-.05,0-.09,0-.11.08S48.23,6.05,48.21,6Z"/><path class="cls-8" d="M48.83,5.94s0,0,0,0S48.84,6,48.83,5.94Z"/><path class="cls-8" d="M48.7,4.57s0,0,0,0a.07.07,0,0,1,0,0v0C48.79,4.61,48.73,4.69,48.7,4.57Z"/><path class="cls-8" d="M49.61,5.56s0,0,0,0,0,0,0,0S49.6,5.55,49.61,5.56Z"/><path class="cls-8" d="M50.07,5.41s0,0,0,0S50.08,5.41,50.07,5.41Z"/><path class="cls-8" d="M50.46,4.92s0,0,0,0,.07,0,.1-.08l0,0a.63.63,0,0,1,.18-.15s.07-.06.11-.06-.06.1-.1.12a0,0,0,0,0,0,0c-.12.06-.14.19-.27.19s0,0,0,0h0S50.47,4.93,50.46,4.92Z"/><path class="cls-8" d="M50.74,4.53s0,0,0,0,0,0,0,0,.2-.1.32-.14,0,0,0,0,0,.07-.1.08-.13,0-.18.06a.13.13,0,0,0-.1,0S50.75,4.54,50.74,4.53Z"/><path class="cls-8" d="M51,4.32v0s.06,0,.07,0,0,0,0,.06S51,4.33,51,4.32Z"/><path class="cls-8" d="M51.16,4.37s0,0,0,0S51.16,4.35,51.16,4.37Z"/><path class="cls-8" d="M51.74,4s0-.07,0,0,0-.06.07-.1,0,0,0,0,0,0,0,0l0-.06s0,0,0,0h0s0,0,0,0h0s0,0,0,0,0,0,0,0l0,0s0,0,0,0-.06,0,0,0S51.78,4,51.74,4Z"/><path class="cls-8" d="M51.9,3.78l0,0Z"/><path class="cls-8" d="M51.91,3.75h0S51.92,3.77,51.91,3.75Z"/><path class="cls-8" d="M52,3.76s0,0,0,0S52,3.75,52,3.76Z"/><path class="cls-8" d="M52,3.72s0,0,0,0A0,0,0,0,1,52,3.72Z"/><path class="cls-8" d="M52.44,3.7l0,0S52.45,3.72,52.44,3.7Z"/><path class="cls-8" d="M51.32,3.2s-.07,0-.08,0-.14,0-.18.1,0,0-.06,0-.18.14-.23.26h0s0,.08,0,.11a.38.38,0,0,1-.21.13s0,0,0,0-.18,0-.24.06,0,0-.05,0a.16.16,0,0,1,0,.07.17.17,0,0,0-.1.13s0,0-.06,0-.28.2-.39.28,0,0,0,0-.09,0-.11.09-.06,0-.09,0-.06,0-.06,0-.1,0-.16,0l-.08,0a.38.38,0,0,0-.1,0v0s0,0-.08,0-.07.12-.15.12-.1.05-.15.08-.1,0-.13,0h-.08l0,0,0,0a.25.25,0,0,0-.22,0s0,0,0,0a.74.74,0,0,1-.36.16c0-.06-.11-.07-.15-.13s0,0,0,0,0,0,0,0-.17,0-.19.09,0,.12.09.14.2.18.14.26a.34.34,0,0,0,.08.14l.12,0,0,0s0,0,0,0,0,0,0,.07.09.12.1.16,0,0,0,0,0,0,0,.06h0A.64.64,0,0,0,48,6s.1,0,.13,0,0,0,0,0a.11.11,0,0,1,0,0s0,0,0,0,0,0,0,0,0,0,0-.06a.05.05,0,0,0,.05,0,.09.09,0,0,1,0-.05s.08,0,.12,0,0,0,.06,0a.18.18,0,0,0,.23,0c0,.06.07,0,.1,0s.11,0,.15,0h0l.13,0a.17.17,0,0,0,.1,0,.13.13,0,0,0,.07-.1s0-.08.09-.06,0,0,0,0,0,0,0,0a.06.06,0,0,1,0,0l-.05,0h0a.53.53,0,0,1-.13.13s-.12,0-.14.06,0,0,0,0,0,0-.06,0,0,0,0,0-.06,0-.1,0-.06,0-.07,0,0,0,0,0,0,0,0,0,0-.12.07-.15a.08.08,0,0,0,.08,0,.63.63,0,0,0,.43-.12.09.09,0,0,0,.1,0c.07.06.15-.08.2,0a.06.06,0,0,1,.1,0s0,0,.05,0,0,0,0,0h0l0,0,0,0s0,0,0,0,0,0,0,0,0,0,0,0,0,0,0,0h0l0,0h0a.61.61,0,0,0,.35-.17h0s0,0,0-.1-.06.05-.12.09A.13.13,0,0,1,50,5.18s.11,0,.14-.09,0,0,0,0a.23.23,0,0,1,.09,0,1.19,1.19,0,0,0,.15-.09s0,0,0,0a.08.08,0,0,0-.07,0,.25.25,0,0,0-.12,0c-.09,0-.12.07-.22.1s0,0,0,0,0,0-.05,0,0,0,0,0a.05.05,0,0,1,0,0s0,0,0,0,0,0,0,0S50,4.9,50,4.88l0,0s0,0,0,0,0,0,0-.07,0,0,0,0,.08-.07.11-.11.13-.07.18-.14,0,0,0,0,.09-.08.16,0h0a0,0,0,0,0,0,0s0,0,0,0h.07s0,0,0,0a.1.1,0,0,0,0-.08h0s0,.08,0,.09,0,0-.06,0h0c-.07.08-.19,0-.27,0l-.11,0s0,0,.06-.07.16-.13.22-.2.1-.09.16-.14.05,0,.08,0,0,0,0,0,.1,0,.14,0l0,0,0,0s0-.08.06-.1l.16-.1c.07,0,.11-.08.18-.09s.12-.06.12-.14,0,0,0,0,0,0,0-.09h0c0-.1.07-.22.18-.27l.19.08a.47.47,0,0,0,.2.08.49.49,0,0,0,0-.24s0-.06,0-.08a.6.6,0,0,1,.09-.13c.08-.09.22,0,.3-.07h0s0,0,0,0a.11.11,0,0,0-.11,0s0,0,0,0l-.08,0a0,0,0,0,0,0,0s0,0-.06,0a.16.16,0,0,0-.07.07c-.05.07-.11.13-.07.24s0,.09,0,.13,0,0,0,0a1.56,1.56,0,0,0-.38-.2s0,0-.06,0,.25-.15.28-.29,0,0,0,0a1.91,1.91,0,0,0-.21.14s-.06.11-.11.14l-.1,0h0s-.12,0-.13,0S51.33,3.2,51.32,3.2ZM47.65,5.47h0v0h0S47.64,5.49,47.65,5.47Zm.28,0a.05.05,0,0,1,0,.08s0,0,0,0S47.92,5.53,47.93,5.5ZM48,5.4v0s.06,0,.09,0A.22.22,0,0,0,48,5.4Zm.13,0s0,0,0,0l0,0Zm0-.14a.19.19,0,0,0,.13,0s.06-.07.1-.06-.08.06-.1.11-.08,0-.1,0S48.09,5.34,48.09,5.31Zm.06.13h0s0,0,0,0S48.17,5.45,48.15,5.44Zm0,0s0,0,0,0S48.21,5.45,48.19,5.45Zm0,.11s0,0,0,0l0,0s0,0,0,0,0,0,0,0a.47.47,0,0,1,.37-.07c0,.06,0,0,0,.13s-.13,0-.19.06-.08,0-.13,0A.11.11,0,0,1,48.23,5.56Zm.24.11s0,0,0,0l0,0s.09,0,.12,0,0,0,0,0,0,.11-.1.09,0,0,0,0,0,0-.06,0S48.46,5.73,48.47,5.67Zm-.15-.42s0,0,0,0S48.33,5.25,48.32,5.25Zm.5-.12s.08,0,.13,0,.08,0,.13,0,0,0,.05,0,.06,0,.07,0,.06,0,.08,0a.33.33,0,0,1,0,.14.61.61,0,0,1-.42,0Zm.61-.2h0s.05,0,.07,0h0s0,0,.05,0,0,0,.06-.06,0,.06,0,.08,0,0,0,0,0,0,0,0a.11.11,0,0,1-.11.09s0,0-.07,0h0s-.09,0-.11,0S49.44,4.93,49.43,4.93Zm.29-.11s0,0,0,0,0,0,0,0S49.72,4.83,49.72,4.82Zm0-.31.1-.09s.13-.08.17-.15.08,0,.07-.06.07-.08.1-.12.1-.1.17-.11,0,0,.06,0a.05.05,0,0,0,0,0,.27.27,0,0,0,.09,0s0,0,0,0h0s0,0,.06,0a1.54,1.54,0,0,1,.13-.12.18.18,0,0,0,0,.14A.17.17,0,0,1,50.7,4s0,0-.06,0,0,0,0,0-.09,0-.12.07-.05.06-.09,0-.12,0-.13.13-.07,0-.1.08-.13-.06-.17,0,0,.14,0,.18,0,0-.05,0-.08,0-.11,0a1.39,1.39,0,0,1-.06-.13S49.74,4.53,49.73,4.51Zm1.06-.7,0,0s0,0,0,0,.05-.08.09-.11h0l.09,0s0-.06.08-.07.09,0,.09-.06.1,0,.11,0,.08,0,.13,0,0-.16.14-.16,0,0,0,.1,0,.06,0,.08l0,.06s0,.05,0,.07l0,0-.11,0s0,0,0,0h-.07v0h0a.71.71,0,0,0-.21.11l0,0,0,0S50.8,3.78,50.79,3.81Zm.56-.59s0,0,0,0S51.36,3.24,51.35,3.22Z"/><path class="cls-8" d="M49.48,5.59l0,0s-.05,0-.07,0l.15,0S49.48,5.6,49.48,5.59Z"/><path class="cls-8" d="M49.58,5.57s0,0,0,0,0,0,0,0S49.57,5.56,49.58,5.57Z"/><path class="cls-8" d="M51.92,3.84s0,0,0-.08S51.93,3.81,51.92,3.84Z"/><path class="cls-8" d="M47.32,5.44h0Z"/><path class="cls-8" d="M47.4,6.17s0,0,0,.06,0,0,0,0a.36.36,0,0,0,.09.24v0s0,0,0,0-.05-.16-.09-.23S47.37,6.21,47.4,6.17Z"/><path class="cls-8" d="M47.62,7.16s0,0,0,0A.09.09,0,0,1,47.62,7.16Z"/><path class="cls-8" d="M49.34,5.24s.06,0,0,0a.22.22,0,0,1,.13,0l0,0C49.38,5.35,49.2,5.41,49.34,5.24Z"/><path class="cls-8" d="M48.37,7.47s0,0,0,0,0,0,0,0S48.38,7.45,48.37,7.47Z"/><path class="cls-8" d="M48.68,7.8s0,0,0,0S48.69,7.81,48.68,7.8Z"/><path class="cls-8" d="M49.51,7.85s0,0,0,0,.09.06.13.07.06,0,.09,0a1.56,1.56,0,0,1,.26.11c.05,0,.11,0,.14.08s-.16,0-.21,0l0,0c-.13-.1-.32,0-.37-.19,0,0,0,0-.07,0v0Z"/><path class="cls-8" d="M50.13,7.91s0,0,0,0,0,0,.05,0,.21.16.33.25a.07.07,0,0,1,0,0s-.12,0-.16,0-.12-.1-.17-.15A.12.12,0,0,0,50.09,8,.11.11,0,0,1,50.13,7.91Z"/><path class="cls-8" d="M50.5,8.05V8s.05,0,.09,0,0,0-.06,0S50.5,8.08,50.5,8.05Z"/><path class="cls-8" d="M50.53,8.25s0,0,0,0Z"/><path class="cls-8" d="M51.36,8.44s0-.06.06,0a.37.37,0,0,1,.15,0s0,0,0,0,0,0,0,0h.1a0,0,0,0,0,0,0h0s0,0,0,0h0s0,0,0,0h0v0s-.06,0,0,0-.05,0-.07,0S51.43,8.44,51.36,8.44Z"/><path class="cls-8" d="M51.69,8.37s0,0,0,0S51.69,8.38,51.69,8.37Z"/><path class="cls-8" d="M51.72,8.35l0,0S51.72,8.36,51.72,8.35Z"/><path class="cls-8" d="M51.78,8.38s0,0,0,0S51.79,8.38,51.78,8.38Z"/><path class="cls-8" d="M51.84,8.37l0,0Z"/><path class="cls-8" d="M52.28,8.42h0S52.29,8.44,52.28,8.42Z"/><path class="cls-8" d="M51.62,7.65a.07.07,0,0,0-.08,0c0-.05-.1-.13-.16-.12s0,0-.05,0-.16-.11-.28-.09v0s-.08,0-.11,0-.13-.09-.18-.16,0,0,0,0,0-.21-.1-.26,0,0,0,0h-.08a.11.11,0,0,0-.15-.06s0,0-.07,0A2.64,2.64,0,0,1,50,6.37s0,0-.05,0-.08-.11-.14-.11,0-.07,0-.13,0-.12,0-.09-.13-.08-.14-.2a.75.75,0,0,0,0-.15c-.05,0-.07-.06-.13-.07l0,0s-.11,0-.12,0-.24.11-.31,0-.16,0-.24,0-.09-.07-.07-.14a.16.16,0,0,0-.08,0s0,0,0,0h0c0-.07-.14-.08-.23-.07s0,0,0,0a.75.75,0,0,1-.43,0s0-.07,0-.12h0s0,0,0,0a.34.34,0,0,0-.2.05s-.09.06-.06.08,0,.11-.12.11a.1.1,0,0,0,0,0s0,0,0,.07h0s0,0,0,0,0,0-.07,0,0,0-.06,0v0s0,0,0,0,0,0,0,0a1.15,1.15,0,0,0,0,.14,2.27,2.27,0,0,1,0,.35s0,.07,0,.07,0,0,0,.06,0,0,0,0a.11.11,0,0,1,0,.06s0,.06.06.07a.38.38,0,0,0,0,.1l0,0s0,.15.06.19a.17.17,0,0,0,0,.1c0,.15,0,.27.09.29s0,.09,0,.14,0,.19,0,.19l0,0s.06.07.08.11,0,.08,0,.09.09,0,.17-.07.13-.06.11,0,0,0,0,0,0,0,0,0l0-.05s0,0-.08,0,0,0,0,0a.63.63,0,0,1-.22,0c-.06,0-.06-.1-.12-.08s0,0,0,0,0,0,0,0,0,0-.06,0,0-.08,0-.12,0-.07,0-.13,0,.06,0,0l0,0c.07,0,.16-.12.22-.11a.08.08,0,0,0,.09,0,.37.37,0,0,0,.33.28s0,.07.07.07c-.07.15.15.06.12.16.1-.08.11,0,.09.06s.07,0,.07,0,0,0,0,0,0,0,0,0l0,.07s0,0,0,0l-.05,0s0,0,0,0l0,0c0-.06,0,0,0,0h0s0,0,0,0c0,.17.19.18.33.23s0,0,0,0a.17.17,0,0,0,.16-.06s-.09,0-.16-.07A.25.25,0,0,1,49,7.52c.08,0,.1.09.17.09s0,0,0,0,.05,0,.07.08a1.63,1.63,0,0,0,.17.11s0,.06,0,0a.09.09,0,0,0-.08-.06.17.17,0,0,0-.09-.11c0-.11-.12-.1-.19-.19s0,0,0-.06,0-.07,0-.09,0,0,0,0a.28.28,0,0,1,0-.08s0,0,0,0,0,0,0-.1.2,0,.24.06a.59.59,0,0,1,0,.08s0-.06,0-.09.07,0,.11,0,0,0,0,0,.11,0,.17.06.11.11.21.14,0,0,0,0,.13.06.08.18,0,0,0,0h0s0,0,0,0,0,.06,0,.08.05,0,.08,0,.06,0,.1,0v0s-.09.05-.12,0,0-.06,0,0v0c-.12,0,0-.24-.15-.29a.5.5,0,0,1,0-.16s.06,0,.09,0,.18.1.29.13.13.06.2.1,0,0,0,.07,0,0,0,0,0,.14,0,.19h0l0,0s.09,0,.13,0l.18.08c0,.06.14.05.2.1s.14.05.2,0,0,0,0,0,.07,0,.09,0h0a.57.57,0,0,1,.32,0,.46.46,0,0,0,.12.12.21.21,0,0,0,.14.1.38.38,0,0,0,.13-.12s0,0,0,0l.15,0c.11,0,.2,0,.3,0h0s0,0,0,0a.16.16,0,0,0-.09,0,.07.07,0,0,0-.06,0h-.24c-.08,0-.16,0-.18.1s0,0-.06.06,0,0-.07,0S52,8,52,7.9s0,0-.05,0,.28.07.38,0,0,0,0,0l-.25,0c-.05,0-.1,0-.16,0l-.1-.06s0,0,0,0-.07-.11-.12-.08ZM47.5,5.43h0S47.48,5.43,47.5,5.43Zm.15.22s-.06,0-.07,0,0,0,0-.05S47.63,5.65,47.65,5.65Zm.13,0,0,0s.05,0,0,.1S47.81,5.67,47.78,5.65Zm0,.15s0,0,0,0,0,0,0,0S47.83,5.81,47.82,5.8Zm.1-.12s0,.08.1.11.11,0,.12,0-.11,0-.17,0,0-.09-.07-.08S47.9,5.71,47.92,5.68Zm-.07.15v0s0,0,0,.05A0,0,0,0,1,47.85,5.83Zm0,0s0,0,0,0S47.88,5.9,47.87,5.88ZM47.79,6s0,0,0,0,0,0,0,.06,0,0,.05,0,0,0,0,0a.41.41,0,0,1,.3.31c-.07.07-.08,0-.17.13-.08,0-.07-.16-.17-.14s0-.11-.06-.16A.21.21,0,0,1,47.79,6Zm0,.41s0,0,0,0,0,0,0,.07.09.07.05.15-.07,0-.06,0-.14.07-.14,0,0-.07,0-.09,0,0,0-.1S47.73,6.45,47.79,6.41Zm.37-.6h0S48.17,5.82,48.16,5.81Zm.51.28s.11,0,.14.08,0,.12.06.15.05,0,.08,0,0,.07.1,0,0,.09.09.06a.67.67,0,0,1-.23.13c-.11-.12-.27-.17-.26-.41Zm.63.42s0,0,0,0,.06,0,.08.06,0,0,0,.05.08,0,0,.06,0,0,.09,0-.09,0-.11.11l.08-.06s0,0,0,.08-.16,0-.15-.08,0,0-.05-.06,0,0,0,0,0-.15,0-.16S49.31,6.52,49.3,6.51Zm.23.29s0,0,0,0,0,0-.05,0S49.51,6.82,49.53,6.8ZM50,6.58l.13.08s.09.14.17.15,0,.09.08.05.1,0,.15.06.11.06.13.14,0,.06,0,.08,0,0,0,0,0,.07,0,.09,0,0,0,0,0,0,0,0,0,0,0,.06l.15.08a.27.27,0,0,0-.13.1.2.2,0,0,1-.09-.05.09.09,0,0,0-.05-.06h-.06s-.06-.07-.09-.1-.08,0-.08-.07-.09-.11-.18-.08-.07,0-.11-.07,0-.2,0-.22-.17.08-.23.09,0,0,0,0,0-.11-.07-.12l.18-.19S49.93,6.61,50,6.58Zm.95.9,0,0s0,0,.06,0,.08,0,.13,0v0l.07.06.1,0s.05.08.09,0,.06.08.09.07.08,0,.11.09.13,0,.21,0-.08,0-.1,0-.06,0-.09,0h-.06s0,0-.08,0l0,0s-.07-.05-.09-.06h0s0,0,0,0h0s0,0,0,0A1.33,1.33,0,0,0,51,7.58s0,0,0,0h0S50.94,7.47,50.91,7.48Zm.72.21s0,0,0,0S51.62,7.7,51.63,7.69Z"/><path class="cls-8" d="M48.3,7.36l0,0s-.07,0,0-.06a.5.5,0,0,1,.12.08S48.28,7.38,48.3,7.36Z"/><path class="cls-8" d="M48.35,7.45s0,0-.05,0l.08,0A.07.07,0,0,0,48.35,7.45Z"/><path class="cls-8" d="M51.67,8.41s.07,0,.1,0S51.7,8.4,51.67,8.41Z"/><path class="cls-8" d="M46.29,9.47h0Z"/><path class="cls-8" d="M46.91,9.88s0,0,0,0,0,0,0,0a.42.42,0,0,0,.19.13v0a.15.15,0,0,1,0,.07A1.27,1.27,0,0,0,47,10C47,10,46.92,9.94,46.91,9.88Z"/><path class="cls-8" d="M47.51,10.56s0,0,0,.07A.08.08,0,0,1,47.51,10.56Z"/><path class="cls-8" d="M48.25,8.1s.09,0,.09,0a.25.25,0,0,1,.15-.06.2.2,0,0,1,0,.07C48.39,8.2,48.2,8.31,48.25,8.1Z"/><path class="cls-8" d="M48.16,10.55s0,0,0,0,0,0,0,0S48.17,10.53,48.16,10.55Z"/><path class="cls-8" d="M48.45,10.81s0,0,0,0S48.46,10.82,48.45,10.81Z"/><path class="cls-8" d="M49.24,10.87s0,0,0,0,.08.07.12.09h.08a.61.61,0,0,1,.24.18s.1.07.11.11-.15,0-.19-.09h0c-.1-.12-.3-.09-.31-.25l-.08,0v0Z"/><path class="cls-8" d="M49.85,11.07s0,0,0,0,0,0,0,0,.17.24.25.38,0,0,0,0-.11,0-.13-.1-.09-.15-.13-.21a.12.12,0,0,0-.05-.12Z"/><path class="cls-8" d="M50.18,11.35l0,0s0,.06.08.08h-.07S50.18,11.38,50.18,11.35Z"/><path class="cls-8" d="M50.15,11.55s.05,0,.05,0S50.17,11.55,50.15,11.55Z"/><path class="cls-8" d="M50.83,12.17s.07,0,.06,0,.09,0,.15.07,0,0,0,0,0,0,0,0,.06.05.09.05h0s0,0,0,0h0s0,0,0,0h0v0s-.05,0-.06,0,0-.07-.05-.06S50.89,12.21,50.83,12.17Z"/><path class="cls-8" d="M51.16,12.32s0,0,0,0S51.15,12.33,51.16,12.32Z"/><path class="cls-8" d="M51.19,12.33s0,0,0,0A0,0,0,0,1,51.19,12.33Z"/><path class="cls-8" d="M51.22,12.39s0,0,0,0S51.24,12.4,51.22,12.39Z"/><path class="cls-8" d="M51.28,12.43h0Z"/><path class="cls-8" d="M51.61,12.8s0,0,0,0Z"/><path class="cls-8" d="M51.51,11.68a.13.13,0,0,0-.06-.1c0-.08-.05-.19-.12-.23s0-.06,0-.09A.46.46,0,0,0,51,11l0,0a.75.75,0,0,1-.13-.06.78.78,0,0,1-.17-.28s0,0,0,0a1.21,1.21,0,0,0-.08-.34s0,0,0-.07l-.1,0a.21.21,0,0,0-.19-.13c0-.05,0-.05-.08-.08s-.33-.39-.5-.56c0,0,0,0-.06,0a.26.26,0,0,0-.21-.16c0-.07-.07-.08-.1-.14s0-.14-.08-.11-.2-.1-.28-.23a1.4,1.4,0,0,0-.09-.17,1.29,1.29,0,0,0-.21,0s0,0,0,0-.14,0-.18,0-.23.16-.37.12-.19.05-.28.09-.14,0-.18-.1a.16.16,0,0,0-.12,0l0,0,0,0c-.08-.06-.22,0-.31.07s0,0,0,0a1.65,1.65,0,0,1-.47.27s-.08,0-.1-.08,0,0,0,0h0a.47.47,0,0,0-.14.2s0,.1,0,.09.09.08,0,.17,0,0,0,.07h.09s0,0,0,0h.06a.15.15,0,0,0-.08,0s0,.05,0,.06h0s0,0,0,0h0l.12.06a2.6,2.6,0,0,1,.3.2s0,.06,0,.05,0,.05,0,.06,0,0,0,0a0,0,0,0,1,0,0s.06,0,.09,0a.22.22,0,0,0,0,.08s0,0,0-.05.09.11.14.12a.22.22,0,0,0,.06.07c.05.15.11.23.19.2s0,.07.05.11,0,.19.07.16l0,0s.05,0,.08.06,0,.07,0,.06.07,0,.13-.12.09-.1.09,0,0,0,0,0v0l0-.06s0,0-.06,0,0,0,0,0a.53.53,0,0,1-.17.12c-.05,0-.06-.06-.11,0l0-.06s0,0,0,0,0,0,0,0,0-.07-.05-.1,0-.05,0-.12,0,.06,0,0a.07.07,0,0,1,0-.05c.05,0,.09-.18.14-.2s.06,0,.09,0a.37.37,0,0,0,.38.15s0,.06.07,0c0,.16.15,0,.14.12.08-.09.11,0,.09,0s.06,0,.06,0,0,0,0,0l0,0a.26.26,0,0,1,0,.08h0s0,0,0,0,0,0,0,0,0,0,0,0,0,0,0-.05,0,0,0,0h-.06c0,.16.18.15.31.19a0,0,0,0,0,0,.05.16.16,0,0,0,.15-.06s-.09,0-.15-.07a.19.19,0,0,1,.05-.11c.08,0,.09.09.16.09h0c.05,0,.05.05.07.08s.12.08.16.13,0,.06,0,0a.11.11,0,0,0-.07-.08.26.26,0,0,0-.09-.12c0-.11-.12-.1-.18-.19s0,0,0-.05,0-.08,0-.1,0,0,0,0a.11.11,0,0,1,0-.08s0,0,0,0,0-.06,0-.1.2,0,.25.07a.41.41,0,0,0,0,.08s0-.06,0-.1.07,0,.11,0,0,0,0,0,.12.07.18.1.12.14.23.19,0,0,0,0,.13.1.06.21,0,0,0,.06h0s0,0,0,0,0,.06,0,.09a.07.07,0,0,0,.08,0s.07,0,.12,0v0s-.11,0-.14,0,0-.07,0-.07l0,0c-.12-.07,0-.27-.11-.35a.5.5,0,0,1,0-.16s.08,0,.1.05c.17,0,.2.19.31.26s.13.12.19.19,0,.07,0,.1,0,0,0,0-.05.14,0,.2l0,0s0,0,0,0,.11,0,.14.08l.15.19c0,.08.11.12.14.21s.11.14.2.14,0,0,0,0,.06,0,.11,0v0a.74.74,0,0,1,.32.22,1.25,1.25,0,0,0,0,.19.25.25,0,0,0,.05.18.55.55,0,0,0,.21,0H52l.17.1c.11.08.15.17.27.24h0s.05,0,.06,0l-.09-.07-.05,0,0-.06h0l0,0a.61.61,0,0,0-.1-.07c-.08-.06-.17-.12-.23-.1s-.06,0-.1,0,0,0-.07,0a2.51,2.51,0,0,0,0-.37.09.09,0,0,1,0-.06c.11.05.22.28.34.33s0,0,0,0l-.2-.25c0-.05-.11-.07-.15-.14s0-.08-.07-.12,0,0,0,0,0-.15-.07-.17S51.5,11.7,51.51,11.68ZM46.42,9.32h0S46.41,9.33,46.42,9.32Zm.3,0s0,.06,0,.05,0,0,0,0S46.7,9.36,46.72,9.34Zm.11-.09v0s.08,0,.11,0S46.88,9.24,46.83,9.25Zm.15.08s0,0,0,0,0,0,0,0Zm0-.16a.51.51,0,0,0,.17,0c.05,0,.1-.08.14-.06s-.11.06-.15.12-.1,0-.13,0S47,9.21,47,9.17Zm.05.17v0s0,0,0,0S47.05,9.35,47,9.34Zm0,0s0,0,0,0S47.1,9.37,47.08,9.36Zm0,.15s0,0,0,0,0,.05,0,.06,0,0,.07,0,0,0,0,0a.4.4,0,0,1,.44.11c0,.1-.07,0-.09.2-.09,0-.14-.11-.21,0a1.21,1.21,0,0,1-.14-.1A.24.24,0,0,1,47.09,9.51Zm.25.32s0,0,0,.05,0,0,0,.06.11,0,.12.09,0,.06-.06,0-.07.13-.13,0l0-.09s0,0-.06-.08S47.31,9.91,47.34,9.83Zm0-.7s0,0,0,0S47.32,9.14,47.31,9.13Zm.7,0c.06,0,.14,0,.2,0s.06.12.14.14,0,0,.09,0,.06.06.12,0,0,.09.12.05a.84.84,0,0,1-.2.18c-.17-.11-.36-.11-.48-.34Zm.91.31s0,0,0,0,.08,0,.12.06,0,0,0,.06.09,0,.05.07.06,0,.11,0-.09.05-.1.11l.07-.06s0,0,0,.09A.13.13,0,0,1,49,9.71c-.05,0-.05,0-.07-.06s0,0,0,0,0-.15-.05-.16S48.93,9.46,48.92,9.46Zm.33.31v0l0,0S49.23,9.79,49.25,9.77Zm.48-.2.16.14c.08.06.14.18.23.22s0,.12.11.1.11.08.17.12.13.12.16.23,0,.07,0,.09,0,0,0,.06,0,.08,0,.12l0,0s0,0,0,0,0,0,0,.08.09.11.15.17a.19.19,0,0,0-.17,0s-.07-.06-.08-.1a.12.12,0,0,0-.05-.08l-.06,0s-.05-.11-.09-.15-.09-.06-.08-.12-.09-.16-.19-.15-.09-.08-.12-.12.06-.21,0-.25-.19,0-.26,0,0,0-.06,0,0-.13-.09-.15l.18-.18S49.7,9.61,49.73,9.57ZM50.8,11s0,0,0,0,0,0,.07,0,.09.07.13.12,0,0,0,.05l.07.12a.87.87,0,0,0,.08.1s0,.11.07.12,0,.12.07.14,0,.1.06.15.16.07.19.19-.06-.07-.1-.07-.07,0-.09-.06l-.07,0a.16.16,0,0,1-.09-.05l0,0s0-.09-.07-.12l0,0s0-.06,0-.08h0s0,0,0-.05a1.16,1.16,0,0,0-.15-.26s0,0,0-.06,0,0,0,0S50.83,11,50.8,11Zm.69.72h0S51.48,11.73,51.49,11.72Z"/><path class="cls-8" d="M48.09,10.48s0,0,0,0-.06,0,0,0l.11,0S48.08,10.5,48.09,10.48Z"/><path class="cls-8" d="M48.14,10.55s0,0,0,0,0,0,.06-.06S48.15,10.52,48.14,10.55Z"/><path class="cls-8" d="M51.11,12.34s.07,0,.1.05S51.14,12.35,51.11,12.34Z"/><path class="cls-8" d="M64,7.33h0Z"/><path class="cls-8" d="M63.36,6.8s0,0,0,0,0,0,0,0a.58.58,0,0,0-.25-.17,0,0,0,0,0,0,0,.1.1,0,0,1,0-.07,2.13,2.13,0,0,0,.25.16C63.31,6.73,63.37,6.75,63.36,6.8Z"/><path class="cls-8" d="M62.56,6s0,0,0-.06S62.57,6,62.56,6Z"/><path class="cls-8" d="M61.58,8.36s-.09,0-.08,0a.26.26,0,0,1-.17.05s0,0,0-.07S61.65,8.15,61.58,8.36Z"/><path class="cls-8" d="M61.64,5.83s0,0,0,0,0,0,0,0S61.62,5.85,61.64,5.83Z"/><path class="cls-8" d="M61.2,5.5a.05.05,0,0,1,0,0S61.19,5.49,61.2,5.5Z"/><path class="cls-8" d="M60.25,5.38s0,0,0,0-.11-.07-.17-.09-.07,0-.1,0a1.26,1.26,0,0,1-.32-.18.52.52,0,0,1-.16-.12c.11-.07.18,0,.24.09h.06c.15.14.37.1.43.28,0,0,0,0,.09,0s0,0,0,0S60.26,5.37,60.25,5.38Z"/><path class="cls-8" d="M59.49,5.18s-.05,0,0,0,0,0-.05,0-.27-.25-.4-.39,0,0,0,0,.14,0,.18.1.15.15.21.21a.21.21,0,0,0,.1.13Z"/><path class="cls-8" d="M59,4.9v0c-.05,0-.07-.06-.12-.07s.05,0,.07,0S59,4.86,59,4.9Z"/><path class="cls-8" d="M59,4.68s-.06,0-.07,0S59,4.68,59,4.68Z"/><path class="cls-8" d="M58,4.12s-.07,0-.08,0a.43.43,0,0,1-.19,0s0,0,0,0,0,0,0,0l-.12,0h0s0,0,0,0,.05,0,0,0h0s0,0,0,0h0s0,0,0,0,.07,0,.07,0,0,.06.08,0S57.94,4.09,58,4.12Z"/><path class="cls-8" d="M57.6,4a0,0,0,0,1,0,0A0,0,0,0,1,57.6,4Z"/><path class="cls-8" d="M57.56,4s0,0,0,0S57.57,4,57.56,4Z"/><path class="cls-8" d="M57.5,4s0,0,0,0S57.49,4,57.5,4Z"/><path class="cls-8" d="M57.42,3.94h0Z"/><path class="cls-8" d="M56.92,3.63l0,0S56.93,3.62,56.92,3.63Z"/><path class="cls-8" d="M57.47,4.76a.21.21,0,0,0,.1.09c.07.08.13.19.22.22s.05,0,.07.08a.61.61,0,0,0,.41.27l0,0,.16,0a1.17,1.17,0,0,1,.26.28s0,0,0,0a1.71,1.71,0,0,0,.17.36s.06,0,.07.07a.35.35,0,0,1,.11,0,.24.24,0,0,0,.23.12s.07,0,.1.08c.19.15.41.4.61.57,0,0,0,0,.08,0s.15.15.24.16.08.09.12.16,0,.14.09.11.22.11.3.24a1,1,0,0,0,.09.18.88.88,0,0,0,.23.07s0,0,0,0,.15,0,.19,0,.26-.15.4-.08c.1-.09.22,0,.32,0s.16,0,.19.12a.28.28,0,0,0,.13,0s0,0,0,0a.05.05,0,0,1,0,0c.08.07.24,0,.36,0s0,0,.06,0a1.64,1.64,0,0,1,.57-.18s.08,0,.09.1,0,0,0,0,0,0,0,0a.6.6,0,0,0,.2-.17s.05-.1,0-.1-.08-.09,0-.16,0-.05,0-.07,0,0-.1,0,0,0,0,0-.06,0-.06,0l.1,0s0,0,.06-.06h0s0,0,0,0l0,0-.13-.09a2.23,2.23,0,0,1-.32-.25.07.07,0,0,0-.06-.06s0,0,0-.06,0,0,0,0-.06,0-.07,0-.08,0-.12,0a.31.31,0,0,0-.05-.1s0,0,0,0-.11-.13-.19-.14a.13.13,0,0,0-.07-.09c-.06-.16-.15-.26-.26-.25s0-.08-.08-.13,0-.2-.11-.18,0,0,0,0a1.48,1.48,0,0,0-.13-.08s0-.08-.07-.08-.09,0-.16.1-.12.09-.12,0,0,0,0,0,0,0,0,0l0,.06.08,0s0,0,0,0a.51.51,0,0,1,.22-.09c.07,0,.1.08.16,0s0,0,0,.06,0,0,.06,0,0,0,.07,0,0,.09.08.12,0,.06,0,.13,0-.06,0,0,0,0,0,0-.12.17-.18.18a.11.11,0,0,0-.12,0,.65.65,0,0,0-.51-.23.09.09,0,0,0-.1-.07c0-.16-.19,0-.2-.15-.08.09-.12,0-.11-.06s-.07,0-.08,0,0,0,0,0,0,0,0,0,0-.05,0-.08,0,0,0,0l0,0s0,0,0,.05,0,0,0,0,0,0,0,0h0s0,0,0,0c-.08-.19-.26-.19-.43-.25a.06.06,0,0,0,0,0c-.06,0-.1,0-.17.06a1.16,1.16,0,0,1,.2.08.24.24,0,0,1,0,.12c-.09,0-.13-.11-.21-.12h0c-.06,0-.07-.07-.1-.1s-.15-.09-.21-.15,0-.06-.05,0a.2.2,0,0,0,.1.09.35.35,0,0,0,.14.13c0,.13.16.12.25.22s0,0,0,.07,0,.08,0,.1,0,0,0,0a.16.16,0,0,1,0,.09s0,0,0,0,0,.06,0,.11-.24,0-.3-.09,0-.06,0-.09,0,.07,0,.1-.08,0-.13,0,0,0,0,0S60.1,5.93,60,5.9s-.17-.15-.3-.2,0,0,0,0-.16-.1-.12-.23,0,0,0-.06h0s0,0,0-.05,0-.07,0-.1-.07,0-.1,0-.08,0-.13,0v0s.12,0,.15,0,0,.07,0,.07l0,0c.16.07.08.29.22.37a.54.54,0,0,1,0,.18s-.08,0-.12,0-.26-.19-.4-.25-.18-.12-.27-.19,0-.07-.05-.1,0,0,0,0,0-.16,0-.21l0,0s0,0-.05-.06-.12,0-.17-.06l-.23-.18c0-.08-.17-.11-.24-.19s-.17-.13-.27-.11,0,0,0,0-.09,0-.13,0h0a1,1,0,0,1-.45-.16,1.14,1.14,0,0,0-.1-.19.32.32,0,0,0-.13-.18.55.55,0,0,0-.23,0,.11.11,0,0,0-.07,0l-.22-.07A2.93,2.93,0,0,0,56,3.61h0s-.06,0-.07,0l.13.06.06,0,.08.06h0l.07,0,.14.07c.11,0,.23.1.29.06s.07,0,.12,0a.16.16,0,0,1,.09,0,2.92,2.92,0,0,0,.17.37s.06,0,.07.06c-.15,0-.37-.25-.53-.29,0,0,0,0,0,0l.34.22a2.39,2.39,0,0,1,.22.12,1.27,1.27,0,0,0,.13.11s0,0,0,0,.06.15.14.15S57.47,4.74,57.47,4.76Zm6.34,2.7s0,0,0,0h0S63.83,7.44,63.81,7.46Zm-.35-.08c0-.06.07,0,.08,0s.05,0,0,0S63.49,7.36,63.46,7.38Zm-.15.06s0,0,0,0-.1,0-.11-.06S63.25,7.44,63.31,7.44Zm-.16-.11s0,0,0,0,0,0,0,0S63.13,7.33,63.15,7.33Zm0,.16a.66.66,0,0,0-.2-.06c-.06,0-.13.06-.18,0s.15,0,.2-.09.11.07.16,0S63.12,7.45,63.12,7.49Zm0-.18v0s-.06,0-.06,0A.06.06,0,0,1,63.09,7.31Zm-.06,0v0S63,7.27,63,7.28Zm0-.15s0,0,0,0,0-.06,0-.07,0,0-.08,0,0,0,0,0a.67.67,0,0,1-.54-.2c0-.1.09,0,.13-.18.11,0,.16.13.27.08a1.55,1.55,0,0,1,.17.13A.24.24,0,0,1,63,7.13Zm-.27-.37s0,0,0,0,0,0,0-.07-.14,0-.15-.13.06,0,.08,0,.11-.12.18,0,0,.08,0,.1.06,0,.07.09S62.82,6.69,62.77,6.76Zm0,.7s0,0,0,0S62.71,7.46,62.73,7.46Zm-.83-.13a.87.87,0,0,1-.22,0c-.06,0-.07-.13-.16-.16s-.06,0-.11,0-.06-.08-.13,0-.07-.1-.14-.06a.82.82,0,0,1,.22-.16c.2.12.43.16.56.4Zm-1-.41s0,0,0,0-.1,0-.14-.06,0,0,0-.07-.1,0-.07-.07-.06-.06-.12,0,.1-.05.1-.11,0,0-.08.06,0,0,0-.1a.18.18,0,0,1,.22.11c.05,0,.06,0,.09.07s0,0,0,0,0,.17.07.18S60.85,6.91,60.86,6.92Zm-.4-.34a.09.09,0,0,1,0,0s0,0,0,0A.13.13,0,0,1,60.46,6.58Zm-.5.2a.9.9,0,0,0-.2-.14c-.09-.06-.17-.19-.28-.22s-.07-.13-.13-.1-.15-.09-.21-.12S59,6.08,58.91,6s0-.07,0-.09,0,0,0-.06,0-.09,0-.13l0,0s0,0,0,0,0,0,0-.09-.13-.1-.22-.15a.22.22,0,0,0,.18-.06.35.35,0,0,1,.11.1s0,0,.08.08l.07,0c.06,0,.09.11.15.15s.1,0,.11.11.13.17.24.16.12.08.16.11,0,.23.07.27.21-.06.28-.06,0,0,.08,0,0,.14.12.16l-.18.2S60,6.74,60,6.78ZM58.48,5.35l0,0s-.05,0-.08,0l-.18-.1s0,0,0-.06l-.1-.11A1,1,0,0,0,57.94,5s-.06-.11-.12-.11-.08-.12-.13-.13-.09-.1-.13-.15-.2,0-.28-.16.09.07.14,0,.09,0,.12,0l.09,0s.07,0,.12,0l.06,0s.08.1.12.12l0,0s0,.06.06.08h0s0,0,0,0a2.09,2.09,0,0,0,.26.25s0,.05.05.06l0,0S58.44,5.34,58.48,5.35Zm-1-.63s0,0,0,0S57.48,4.7,57.47,4.72Z"/><path class="cls-8" d="M61.74,5.93l0,0s.08,0,.06,0a.46.46,0,0,1-.16-.07S61.75,5.9,61.74,5.93Z"/><path class="cls-8" d="M61.66,5.84s0,0,.05,0-.05,0-.07,0S61.65,5.87,61.66,5.84Z"/><path class="cls-8" d="M57.65,4s-.09,0-.14,0S57.6,4,57.65,4Z"/><path class="cls-8" d="M46.85,8.57h0Z"/><path class="cls-8" d="M46.92,9.36s0,0,0,.06,0,0,0,0a.41.41,0,0,0,.14.27v0a.12.12,0,0,1,0,0c-.06-.09-.09-.2-.15-.28S46.89,9.4,46.92,9.36Z"/><path class="cls-8" d="M47.41,10.48s0,0,0,.06S47.39,10.51,47.41,10.48Z"/><path class="cls-8" d="M48.82,8.33s.06,0,0,0A.24.24,0,0,1,49,8.3l0,.06C48.88,8.43,48.71,8.52,48.82,8.33Z"/><path class="cls-8" d="M48.37,10.73s0,0,0,0,0,0,0,0S48.38,10.7,48.37,10.73Z"/><path class="cls-8" d="M48.81,11s0,0,0,0S48.82,11,48.81,11Z"/><path class="cls-8" d="M49.67,10.86s0,0,0,0,.1,0,.15,0l.08,0a.94.94,0,0,1,.3,0,.33.33,0,0,1,.15.05c-.08.11-.15,0-.21,0s0,0,0,0-.32,0-.41-.11c0,0,0,0-.08,0s0,0,0,0Z"/><path class="cls-8" d="M50.31,10.79s0,0,0,0,0,0,0,0,.25.12.39.19,0,0,0,0-.12,0-.17,0-.14-.08-.2-.12a.15.15,0,0,0-.11-.08A.17.17,0,0,1,50.31,10.79Z"/><path class="cls-8" d="M50.72,10.87v0s.06,0,.1,0,0,0,0,.05S50.73,10.9,50.72,10.87Z"/><path class="cls-8" d="M50.79,11.06a0,0,0,0,1,.05,0S50.81,11.05,50.79,11.06Z"/><path class="cls-8" d="M51.64,11.22s0-.06.06,0,.1,0,.15,0,0,0,0,0,0,0,0,0H52s0,0,0,0h0s0,0,0,0h0v0s-.07,0-.06,0,0,0-.07,0S51.71,11.22,51.64,11.22Z"/><path class="cls-8" d="M52,11.17s0,0,0,0S52,11.18,52,11.17Z"/><path class="cls-8" d="M52,11.16h0S52,11.17,52,11.16Z"/><path class="cls-8" d="M52.07,11.2s0,0,0,0Z"/><path class="cls-8" d="M52.13,11.19h0Z"/><path class="cls-8" d="M52.56,11.35l0,0Z"/><path class="cls-8" d="M52,10.44s-.06-.06-.1,0-.13-.13-.21-.14,0,0-.07-.05a.41.41,0,0,0-.37-.1h0l-.13,0a.47.47,0,0,1-.25-.15s0,0,0,0-.11-.21-.19-.26,0,0-.06,0h-.09a.14.14,0,0,0-.18,0s-.06,0-.09,0a4.42,4.42,0,0,1-.49-.31s0,0-.05,0a.14.14,0,0,0-.18-.08c0-.07,0-.06-.07-.12s0-.12-.06-.08-.15,0-.18-.16l0-.15c-.06,0-.09,0-.15,0s0,0,0,0-.1,0-.12,0-.22.14-.3.08-.16,0-.23,0-.09-.06-.08-.14a.15.15,0,0,0-.08,0s0,0,0,0h0c0-.07-.13-.07-.22,0s0,0,0,0a.65.65,0,0,1-.42,0c0-.06,0-.08,0-.12s0,0,0,0h0a.41.41,0,0,0-.21,0s-.09,0-.06.07,0,.11-.14.09-.05,0-.06,0a.36.36,0,0,0,0,.07s0,0,0,0,0,0,0,0,0,0-.07-.05,0,0-.07,0a0,0,0,0,0,0,0s0,0,0,0a.08.08,0,0,0,0,0,.36.36,0,0,0,0,.14c0,.13,0,.27,0,.39a.06.06,0,0,0,0,.08s0,0,0,.06,0,0,0,0a.11.11,0,0,1,0,.07s0,.08.09.09a.2.2,0,0,0,0,.11l0,0c.07,0,0,.18.11.22a.2.2,0,0,0,0,.11c0,.17.07.31.19.33s0,.1.05.15,0,.21.1.21l0,0s.09.07.13.11,0,.08.07.09.1,0,.18-.09.12-.08.12,0,0,0,0,0,0,0,0,0,0,0,0-.07,0,0-.07,0,0,0,0,0a.62.62,0,0,1-.24.08c-.07,0-.1-.1-.16-.07s0,0,0-.06,0,0,0,0-.06,0-.08,0,0-.1-.07-.14,0-.08,0-.14,0,.06,0,0a.09.09,0,0,1,0,0c.07,0,.15-.14.22-.14a.08.08,0,0,0,.11,0,.48.48,0,0,0,.45.25c0,.05,0,.07.09.07,0,.16.19,0,.19.13.08-.09.12,0,.11,0s.06,0,.07,0,0,0,0,0,0,0,0,0a.22.22,0,0,1,0,.08h0s0,0-.05,0,0,0,0,0,0,0,0,0,0,0,0-.05,0,0,0,0l-.07,0s0,0,0,0c.09.17.26.14.42.16,0,0,0,0,0,0a.15.15,0,0,0,.14-.09c-.05,0-.1,0-.18,0a.17.17,0,0,1,0-.13c.08,0,.12.07.19.06h0c.06,0,.07,0,.1.06l.21.07s0,.06,0,0a.1.1,0,0,0-.1,0,.25.25,0,0,0-.13-.09c-.06-.1-.15-.06-.25-.14s0,0,0-.06,0-.08,0-.09,0,0,0,0a.28.28,0,0,1,0-.08s0,0,0,0,0-.05,0-.11.2,0,.26,0a.27.27,0,0,0,0,.09s0-.07,0-.11.07,0,.1,0,0,0,0,0,.14,0,.2,0,.15.08.26.08,0,0,0,0,.15,0,.14.16,0,0,0,.05h0s0,0,.05,0,0,.06,0,.08.06,0,.08,0,.07,0,.1-.06v0s-.08.07-.12,0,0-.06-.05,0v0c-.13,0-.11-.24-.23-.26a.41.41,0,0,1,0-.16s.07,0,.1,0,.23.08.36.08.15.05.23.07,0,.06.07.08,0,0,0,0,0,.14.06.17h0s0,0,0,0,.1,0,.15,0l.21.08c0,.06.15,0,.22.1s.15,0,.22,0,0,0,0,0,.08,0,.11,0h0a.67.67,0,0,1,.37,0l.11.15s0,.11.12.13a.38.38,0,0,0,.18-.08s0,0,.05,0L53,11c.13,0,.2.09.33.11h0s.05,0,.06,0l-.11,0-.05,0a.15.15,0,0,1-.07,0h0l-.05,0-.12,0c-.09,0-.19,0-.23,0s-.06,0-.09,0h-.07c-.07-.09-.11-.21-.2-.31s-.05,0-.06,0,.32.14.45.13a0,0,0,0,0,0,0l-.29-.12c-.06,0-.13,0-.2,0l-.11-.06s0,0,0,0-.08-.12-.14-.1S52,10.46,52,10.44ZM47,8.6s0,0,0,0h0l0,0S47,8.6,47,8.6Zm.15.25s-.07,0-.08,0,0-.05,0-.05S47.16,8.85,47.19,8.85Zm.14,0,0,0s0,.05,0,.1A.35.35,0,0,0,47.33,8.86Zm0,.16s0,0,0,0,0,0,0,.05Zm.11-.12a.21.21,0,0,0,.1.11s.12,0,.14,0-.12,0-.19,0,0-.1-.08-.09S47.45,8.93,47.48,8.9Zm-.08.15h0s.05,0,0,.05S47.41,9.08,47.4,9.05Zm0,.06,0,0S47.44,9.13,47.43,9.11Zm-.08.12s0,0,0,0,0,.05,0,.07,0,0,.06,0l0,0a.61.61,0,0,1,.38.32c-.07.09-.09,0-.16.15-.1,0-.11-.16-.22-.15a1.28,1.28,0,0,1-.1-.17A.22.22,0,0,1,47.35,9.23Zm.07.43s0,0,0,.05a.11.11,0,0,1,0,.08c0,.05.12.07.1.16s-.07,0-.08,0-.14.07-.17,0a.33.33,0,0,1,0-.1s-.05-.06,0-.11S47.35,9.71,47.42,9.66ZM47.73,9s0,0,0,0S47.74,9,47.73,9Zm.57.23c.05,0,.12,0,.16.06s0,.12.1.14,0,0,.08,0,0,.06.11,0,0,.09.1.05a.79.79,0,0,1-.2.17c-.14-.1-.33-.13-.36-.37Zm.76.31h0s.07,0,.1,0,0,0,0,.05.08,0,0,.06.06,0,.1,0-.08.06-.08.13,0-.07.06-.08,0,0,0,.09a.12.12,0,0,1-.18,0s0,0-.07-.05,0,0,0,0,0-.15-.05-.15S49.06,9.59,49.06,9.58Zm.31.23a.06.06,0,0,1,0,0l0,0A.16.16,0,0,1,49.37,9.81Zm.38-.31a1,1,0,0,0,.16.06c.07,0,.14.11.23.1s.07.09.11,0,.12,0,.17,0,.15,0,.21.13,0,.06,0,.07,0,0,.05,0,0,.07,0,.09l0,0v0s.05,0,.05.06.12,0,.2.06a.21.21,0,0,0-.13.12s-.07,0-.11,0,0,0-.07-.05h-.06a1.1,1.1,0,0,1-.14-.09s-.09,0-.1-.05-.13-.11-.22-.06-.09,0-.13,0,0-.22-.09-.22-.15.12-.21.14,0,0-.06,0,0-.11-.11-.11a2.36,2.36,0,0,1,.13-.23S49.73,9.54,49.75,9.5Zm1.31.75s0,0,0-.05.05,0,.07,0a.78.78,0,0,1,.16,0l0,0,.11.06.11,0s.07.08.12.06.08.08.12.08.09.06.13.1.15,0,.24.06-.08,0-.12,0-.07,0-.1,0h-.08a.13.13,0,0,1-.09,0l-.06,0s-.07-.06-.11-.07h0s0-.05-.06-.06h0l0,0a1.17,1.17,0,0,0-.25-.13l0,0h0S51.1,10.24,51.06,10.25Zm.91.23h0S52,10.5,52,10.48Z"/><path class="cls-8" d="M48.26,10.64l0,0c0-.05-.08,0-.06-.06l.16.07S48.24,10.66,48.26,10.64Z"/><path class="cls-8" d="M48.34,10.72s0,0,0,0,0,0,.06-.07S48.35,10.69,48.34,10.72Z"/><path class="cls-8" d="M52,11.21s.08,0,.11,0S52,11.2,52,11.21Z"/><path class="cls-8" d="M62.87,13.76h0v0Z"/><path class="cls-8" d="M62.88,12.82s0-.05,0-.08,0,0,0,0a.79.79,0,0,0-.18-.38,0,0,0,0,0,0,0l.07,0c.07.13.12.26.19.39S62.93,12.78,62.88,12.82Z"/><path class="cls-8" d="M62.17,11.33s0,0,0-.07A.06.06,0,0,1,62.17,11.33Z"/><path class="cls-8" d="M60.67,13.42s-.07,0-.05,0a.38.38,0,0,1-.12,0l0-.06C60.61,13.31,60.78,13.23,60.67,13.42Z"/><path class="cls-8" d="M60.79,10.9s0,0,0,0,0,0,0,0S60.78,10.93,60.79,10.9Z"/><path class="cls-8" d="M60.06,10.63s0,0,0,0S60.05,10.63,60.06,10.63Z"/><path class="cls-8" d="M58.94,11s0,0,0,0-.16,0-.23,0a.93.93,0,0,1-.1.05,2,2,0,0,1-.41.09.58.58,0,0,1-.22,0c0-.13.18-.1.27-.11l0,0c.24,0,.41-.17.61-.06,0,0,.06,0,.1,0s0,0,0,0S59,10.93,58.94,11Z"/><path class="cls-8" d="M58.14,11.27s-.06,0-.06,0,0,0-.08,0a1.75,1.75,0,0,0-.59.05s0,0,0-.05.13-.09.21-.08.23,0,.33,0a.21.21,0,0,0,.18,0Z"/><path class="cls-8" d="M57.59,11.42v0s-.1,0-.14.05,0-.05,0-.07S57.55,11.4,57.59,11.42Z"/><path class="cls-8" d="M57.38,11.31s0,0-.06,0S57.36,11.33,57.38,11.31Z"/><path class="cls-8" d="M56.29,11.79s0,.09,0,.07-.09.09-.14.14,0,0,0,0,0,0,0,0a.44.44,0,0,0-.1.08s0,0,0,0h0s0,0,0,0v0s0,0,0,0,0,0,0,0h0s.07-.05,0-.06.08,0,.08-.06S56.21,11.85,56.29,11.79Z"/><path class="cls-8" d="M56,12.11s0,0,0,0S56,12.1,56,12.11Z"/><path class="cls-8" d="M55.94,12.15h0Z"/><path class="cls-8" d="M55.86,12.17s0,0,0,0S55.84,12.18,55.86,12.17Z"/><path class="cls-8" d="M55.79,12.23a0,0,0,0,1,0,0Z"/><path class="cls-8" d="M55.25,12.54s0,0,0,0Z"/><path class="cls-8" d="M56.52,12.6a.18.18,0,0,0,.13,0,.73.73,0,0,0,.3-.05s.07,0,.1,0a.62.62,0,0,0,.45-.17h0a.6.6,0,0,1,.13-.09.59.59,0,0,1,.35,0s0,0,0,0,.22.13.33.14,0,0,.08,0l.09-.06a.19.19,0,0,0,.22,0s.07,0,.1,0a3.16,3.16,0,0,1,.67.18s0,0,.06,0a.17.17,0,0,0,.22,0c0,.07.08.06.12.11s0,.12.08.08.18,0,.23.16a1.56,1.56,0,0,1,.06.15c.06,0,.1,0,.17,0s0,0,0,0,.11,0,.14,0,.23-.14.33-.07.18,0,.27,0,.11.08.1.16l.08.06s0,0,0,0h.05c0,.08.15.11.25.12s0,0,0,0a.77.77,0,0,1,.47.19s0,.08,0,.12,0,0,0,0v0a.66.66,0,0,0,.23,0c.06,0,.11,0,.09,0s0-.11.16,0,.06,0,.07,0a.65.65,0,0,0,0-.11h0s0-.05,0-.06.05,0,.07.08.06,0,.08,0,0,0,0,0,0,0,0,0a.11.11,0,0,0,0,0,.39.39,0,0,0,0-.17c0-.17,0-.32,0-.47s0-.09,0-.1,0,0,0-.06,0,0,0,0a.1.1,0,0,1,0-.09s-.06-.11-.1-.14a.2.2,0,0,0,0-.13.06.06,0,0,1-.05,0c-.08-.08,0-.22-.14-.29a.27.27,0,0,0,0-.15.51.51,0,0,0-.29-.44c0-.13-.06-.12-.09-.19s-.06-.25-.17-.26,0,0,0,0a1,1,0,0,0-.2-.15s-.07-.11-.13-.12a.21.21,0,0,0-.21.07s-.16.07-.17,0,0,0-.05,0,0,0,0,0,0,0,0,.06a.21.21,0,0,0,.11,0s0,0,0,0a.84.84,0,0,1,.31-.05c.1,0,.16.12.24.11s0,0,0,.06,0,.06.08.08.08,0,.1,0,.06.11.12.17.06.1,0,.16,0-.07,0,0,0,0,0,.06-.18.11-.27.09a.16.16,0,0,0-.15,0,.86.86,0,0,0-.66-.34.18.18,0,0,0-.15-.08c0-.17-.26,0-.29-.15-.07.11-.16,0-.17,0,0,.08-.08,0-.1,0s0,0,0,0l0,0a.22.22,0,0,1,0-.08s0,0-.06,0a.1.1,0,0,1,0,0s0,0,.05,0,0,0,0,0,.05,0,0,.06h.06s0,0,0,0c-.18-.18-.41-.14-.64-.13,0,0,0,0,0,0s-.11,0-.15.12h.27a.17.17,0,0,1,0,.13c-.1,0-.19,0-.29,0s0,0,0,0a.38.38,0,0,1-.16,0c-.1,0-.21,0-.31,0s0,0-.07,0a.19.19,0,0,0,.16,0,.51.51,0,0,0,.22,0c.12.09.23,0,.38.09s0,.05.05.06,0,.09,0,.1,0,0,0,0a.08.08,0,0,1,0,.09l0,0c0,.05,0,.05,0,.11s-.24.09-.34,0,0-.07,0-.09,0,.06,0,.11-.09,0-.12.06,0,0,0,0a.45.45,0,0,0-.26,0c-.13,0-.24,0-.38,0s0,0,0,0-.2,0-.25-.1c0,0,0,0-.08,0l0,0s0,0-.08,0-.06,0-.1,0a.1.1,0,0,0-.1,0s-.08,0-.09.1l0,0s.07-.1.12-.1.06,0,.09,0v0c.17-.05.27.17.43.14a.53.53,0,0,1,.11.14c-.06,0-.07,0-.13,0s-.31,0-.46.09-.21,0-.31.06-.08,0-.12,0,0,0,0,0-.11-.11-.18-.12l0,0H57.4s-.09.09-.15.1L57,12c-.09,0-.19.08-.3.09s-.21.08-.25.16,0,0,0,0-.08.06-.09.11h0a1.13,1.13,0,0,1-.37.31,1.62,1.62,0,0,0-.22,0,.36.36,0,0,0-.22,0,.69.69,0,0,0-.1.22.1.1,0,0,0,0,.06,1.37,1.37,0,0,1-.16.18,2,2,0,0,0-.35.28l0,0s-.05,0-.05.06a.5.5,0,0,0,.11-.1s0,0,.06-.05l.08-.05,0,0,.07,0a1.14,1.14,0,0,0,.11-.11c.1-.08.19-.17.19-.24s0-.07,0-.11,0,0,.07-.07.26,0,.42,0a.11.11,0,0,1,.08,0c-.1.11-.4.2-.5.33s0,0,.06,0l.35-.19c.07,0,.12-.11.21-.14l.16-.05h0c.06,0,.16,0,.2,0S56.5,12.6,56.52,12.6Zm6.14,1a0,0,0,0,1,0,0h0v0S62.69,13.64,62.66,13.63Zm-.13-.35s.08,0,.09.05,0,.05,0,.05S62.57,13.3,62.53,13.28Zm-.15-.07,0,0s-.06-.08,0-.13S62.34,13.17,62.38,13.21Zm-.05-.2s0,0,0,0,0,0,0,0S62.32,13,62.33,13Zm-.13.1a.45.45,0,0,0-.12-.16s-.14,0-.16-.08.15.05.22,0,0,.12.1.13S62.23,13.09,62.2,13.11Zm.1-.15,0,0s-.05,0,0-.07A.08.08,0,0,1,62.3,13Zm0-.07,0,0S62.25,12.87,62.26,12.89Zm.1-.1s0,0,0,0,0-.06,0-.08-.06,0-.08-.06,0,0,0,0a1.24,1.24,0,0,1-.5-.47c.07-.07.11,0,.19-.12.12.07.15.21.29.23a1.26,1.26,0,0,1,.13.23A.25.25,0,0,1,62.36,12.79Zm-.09-.52s0,0,0-.06,0-.06,0-.09-.17-.12-.15-.22.09,0,.1,0,.19,0,.24.11,0,.08,0,.11.06.09,0,.14S62.35,12.24,62.27,12.27Zm-.37.6s0,0,0,0S61.89,12.86,61.9,12.87Zm-.7-.39c-.06,0-.14,0-.2-.08s-.06-.13-.14-.16-.06,0-.11,0-.06-.07-.13,0-.06-.1-.13-.05A.72.72,0,0,1,60.7,12c.2.11.44.17.52.43Zm-1-.37s0,0,0,0-.09,0-.13,0,0,0-.05,0-.08,0-.07-.05-.08,0-.13,0,.08-.07.06-.14,0,.07,0,.09,0,0,0-.09a.17.17,0,0,1,.24,0s.07,0,.1,0,0,0,0,0,.05.16.11.15S60.21,12.11,60.22,12.11Zm-.46-.2,0,0s0,0,0,0S59.77,11.88,59.76,11.91Zm-.35.38a1.5,1.5,0,0,0-.2,0c-.09,0-.21-.07-.31,0s-.11-.07-.14,0a.39.39,0,0,0-.21,0c-.09,0-.18,0-.28,0l-.07-.06h-.07s-.07,0-.11-.06,0,0-.05,0l0,0s-.06,0-.09,0-.15,0-.25.06a.18.18,0,0,0,.07-.17.39.39,0,0,1,.15,0h.11s0,0,.08,0a1.41,1.41,0,0,1,.2,0s.11,0,.15,0,.2,0,.28,0,.13,0,.18,0,.11.2.2.18.13-.16.19-.2,0,0,.09,0,.09.09.17.08,0,.18-.07.25S59.42,12.25,59.41,12.29Zm-1.84-.15a.13.13,0,0,0,0,0s-.06,0-.07,0l-.19.08,0,0-.15,0-.15,0s-.12,0-.15,0-.15,0-.18,0-.13,0-.2,0-.14.14-.28.16c0,0,.1,0,.12-.09s.07-.06.1-.09l.08-.06s0,0,.1-.07l.06,0c.05,0,.13,0,.17,0l0,0h.1s0,0,0,0,0,0,.05,0,.23-.05.36-.06h.07l0,0S57.54,12.16,57.57,12.14Zm-1.08.44h0S56.48,12.56,56.49,12.58Z"/><path class="cls-8" d="M61,11l0,0s.11,0,.1.07L60.88,11S61,11,61,11Z"/><path class="cls-8" d="M60.83,10.92s0,0,.05,0-.05,0-.07.06S60.83,10.94,60.83,10.92Z"/><path class="cls-8" d="M56,12.06s-.07.07-.1.1S55.93,12.09,56,12.06Z"/><path class="cls-8" d="M46,11.18h0l0,0Z"/><path class="cls-8" d="M46.62,12.16s0,0,0,.07,0,0,0,0a1.34,1.34,0,0,0,.37.35s0,0,0,0a.08.08,0,0,1-.05,0c-.14-.12-.25-.25-.38-.36C46.67,12.27,46.59,12.2,46.62,12.16Z"/><path class="cls-8" d="M47.9,13.61s0,0,0,.07A.06.06,0,0,1,47.9,13.61Z"/><path class="cls-8" d="M49.28,11.43s.1,0,.09.05a.31.31,0,0,1,.19,0,.14.14,0,0,1,0,.06C49.43,11.58,49.18,11.63,49.28,11.43Z"/><path class="cls-8" d="M49.56,14.18s0,0,0,0,0,0,0,0S49.57,14.16,49.56,14.18Z"/><path class="cls-8" d="M50.42,14.63s0-.05,0,0S50.44,14.64,50.42,14.63Z"/><path class="cls-8" d="M51.89,14.67s0,0,.07,0,.2.06.29.06a.76.76,0,0,0,.15,0,5.22,5.22,0,0,1,.57.07,1.22,1.22,0,0,1,.3.06c-.09.11-.27,0-.39,0l-.06,0c-.31-.08-.58,0-.81-.16,0,0-.08,0-.14,0v0S51.88,14.68,51.89,14.67Z"/><path class="cls-8" d="M53.05,14.65s.08,0,.07,0,.07,0,.11,0a3.61,3.61,0,0,0,.81.17s0,0,0,0-.21,0-.32,0-.31-.07-.44-.1a.37.37,0,0,0-.23-.09A.13.13,0,0,1,53.05,14.65Z"/><path class="cls-8" d="M53.84,14.72v0c.07,0,.13,0,.2,0s-.06,0-.08.06A.28.28,0,0,1,53.84,14.72Z"/><path class="cls-8" d="M54.07,14.9s.07,0,.09,0S54.1,14.89,54.07,14.9Z"/><path class="cls-8" d="M55.73,14.84s.06-.07.1-.05a1,1,0,0,1,.27-.08s0,0,.06,0,0,0,0,0a1.46,1.46,0,0,0,.17,0s0,0,0,0h0s0,0,0,0,0,0,0,0l0,0s-.12,0-.09,0-.11,0-.14,0S55.86,14.82,55.73,14.84Z"/><path class="cls-8" d="M56.34,14.65s0,0,0,0S56.34,14.66,56.34,14.65Z"/><path class="cls-8" d="M56.39,14.63s0,0,0,0S56.39,14.64,56.39,14.63Z"/><path class="cls-8" d="M56.51,14.63s0,0,.07,0Z"/><path class="cls-8" d="M56.62,14.6l.05,0Z"/><path class="cls-8" d="M57.49,14.49h0Z"/><path class="cls-8" d="M55.91,14a.46.46,0,0,0-.2,0,1.38,1.38,0,0,0-.45-.05s-.11,0-.16,0a1.46,1.46,0,0,0-.72,0h-.05l-.23,0a1.37,1.37,0,0,1-.52-.13s0,0,0,0a4.17,4.17,0,0,0-.46-.26s-.08,0-.11,0a.43.43,0,0,1-.16,0,.42.42,0,0,0-.34-.05c0-.05-.11,0-.17-.05a9,9,0,0,1-1-.46s0,0-.09,0a.48.48,0,0,0-.35-.14c0-.08-.12-.09-.18-.16s-.07-.15-.14-.12-.28-.12-.39-.26A2.43,2.43,0,0,0,50,12a1.07,1.07,0,0,0-.27-.09l0,0s-.17,0-.22,0-.32.1-.49,0c-.13.07-.27,0-.39,0s-.19-.11-.22-.19a.42.42,0,0,0-.15-.08s0,0,0-.05h-.06a.64.64,0,0,0-.43-.15s-.05,0-.06,0a1.83,1.83,0,0,1-.75-.16c0-.06-.07-.09-.06-.14s-.06,0-.06,0,0,0,0,0a.86.86,0,0,0-.32,0c-.06,0-.12.05-.07.07s0,.14-.16.1c0,0-.07,0-.07,0l.11.1s0,0,0,0,.08,0,.07,0-.09,0-.14-.06-.06,0-.11,0l0,0s0,0,0,0l0,.05s.07.1.11.17.21.34.33.48,0,.09.06.1,0,0,0,.07,0,0,0,0a.18.18,0,0,1,.09.08s.12.11.18.13a.49.49,0,0,0,.06.13s0,0,0,0,.14.21.27.28a.36.36,0,0,0,.11.14.77.77,0,0,0,.45.45c0,.13.1.12.14.19s.11.26.23.28,0,0,0,0a2.72,2.72,0,0,0,.25.16c.06,0,.09.11.16.13a.25.25,0,0,0,.24,0s.18-.06.21,0,0,0,0,0,0,0,0,0,0,0,0-.06A.17.17,0,0,0,49,14s0,0,0,0a1.11,1.11,0,0,1-.36,0c-.12,0-.19-.14-.29-.13s0-.05,0-.07-.06-.06-.11-.08-.08,0-.11,0-.09-.12-.16-.18-.09-.1-.07-.17,0,.08.07,0a.06.06,0,0,1,0-.06c.1,0,.19-.12.3-.1a.22.22,0,0,0,.19.07,1.59,1.59,0,0,0,.85.44.26.26,0,0,0,.18.11c0,.18.32.1.37.21.09-.09.19,0,.21.09s.09,0,.12,0-.05,0,0,0,0,0,0,0,0,.05,0,.09,0,0,.06,0,0,0,0,0,0,0-.06-.06,0,0,0,0-.06,0-.06-.07,0,0,0,0H50s0,0,0,0a1.33,1.33,0,0,0,.79.3s0,.05.06.06.15,0,.21-.08a2.06,2.06,0,0,1-.34-.07.21.21,0,0,1,0-.14c.14,0,.25.11.38.12h0a.69.69,0,0,1,.21.09c.12,0,.27.08.4.13s0,.06.08,0a.4.4,0,0,0-.2-.07,1,1,0,0,0-.27-.13c-.15-.12-.29-.11-.49-.21,0-.06,0-.06,0-.07s0-.09,0-.11,0,0,0,0a.09.09,0,0,1,0-.09s0,0,0,0,0-.07,0-.12.33,0,.47.07,0,.08,0,.1,0-.07,0-.12.12,0,.18,0,0,0,0,0a1.37,1.37,0,0,0,.37.08c.17,0,.31.11.51.13,0,0,0,0,0,0s.28.05.31.19.06,0,.09.05h0s.07,0,.11,0l.11.08a.17.17,0,0,0,.16,0,.3.3,0,0,0,.16,0l0-.05c-.06,0-.13.07-.2.06s-.07-.07-.12-.05v0c-.25,0-.31-.25-.55-.29a.94.94,0,0,1-.12-.18c.08,0,.12,0,.19,0,.22-.06.46.1.68.11a1.27,1.27,0,0,0,.47.06c0,.05.1.05.15.07s0,0,0,0,.11.14.2.17h.06l.11,0a2,2,0,0,1,.26,0l.43,0c.12.05.3,0,.46,0s.31,0,.42-.07,0,0,0,0,.14,0,.18-.07h0a3,3,0,0,1,.68-.16,1.28,1.28,0,0,0,.28.07.6.6,0,0,0,.29.05,1.21,1.21,0,0,0,.28-.19.21.21,0,0,0,.08,0l.32-.12a4.15,4.15,0,0,0,.63-.16h0l.1,0-.2.06-.1,0-.14,0h0l-.11,0-.22.06a1.06,1.06,0,0,0-.41.18c-.07,0-.08.06-.13.09l-.13.05c-.18,0-.3-.12-.52-.16h-.13c.21-.07.65-.06.88-.16,0,0-.06,0-.1,0l-.58.07c-.12,0-.24.06-.38.07a1.77,1.77,0,0,0-.24,0s0,0,0,0S56,14,55.9,14,55.93,14,55.91,14Zm-9.57-2.74h0l0,0S46.3,11.24,46.34,11.25Zm.4.32s-.11,0-.13,0,0-.06,0-.06S46.69,11.57,46.74,11.57Zm.23,0,0,0c0,.05.12.08.13.14A1.58,1.58,0,0,1,47,11.61Zm.17.22s0,0,0,0,0,0,0,0Zm.1-.13a2.49,2.49,0,0,0,.24.17c.08,0,.19,0,.25.07-.1,0-.21,0-.3,0s-.12-.13-.19-.13S47.22,11.73,47.24,11.7Zm0,.17v0s.09,0,.07.07S47.24,11.9,47.21,11.87Zm.08.08,0,0S47.31,12,47.29,12Zm-.07.13s0,0,.05,0,0,.06,0,.08.07,0,.12.06,0,0,0,0a2,2,0,0,1,.78.5c-.06.09-.13,0-.19.14-.17-.08-.25-.23-.43-.24s-.14-.15-.24-.24S47.19,12.21,47.22,12.08Zm.33.55s0,0,0,0a.3.3,0,0,1,.07.1c.06.07.23.12.23.22,0-.05-.1,0-.13,0s-.2,0-.3-.1,0-.09,0-.12-.1-.08-.1-.14S47.47,12.67,47.55,12.63Zm.2-.69s0,0,.07,0S47.77,12,47.75,11.94Zm1.09.47a2.48,2.48,0,0,1,.3.13c.09.06.1.15.23.21s.08,0,.14,0,.1.09.18,0,.11.12.2.09a.77.77,0,0,1-.27.14c-.3-.17-.62-.27-.8-.58Zm1.44.64s0,0,0,0,.14.05.19.07,0,.05.07.07.13,0,.11.08.11.06.18,0-.11.06-.09.13,0-.06.08-.08a.08.08,0,0,1,0,.11.33.33,0,0,1-.33-.11c-.07,0-.1,0-.14-.08s0,0,0,0-.08-.18-.16-.19S50.29,13.06,50.28,13.05Zm.66.37s0,0,0,.05a.09.09,0,0,1-.06,0A.07.07,0,0,1,50.94,13.42Zm.54-.26.3.1a1.56,1.56,0,0,0,.47.17s.15.11.21.06a.72.72,0,0,0,.32,0c.13.07.28.05.42.14s0,.07.08.09a.38.38,0,0,1,.1,0s.09.08.14.1,0,0,.07,0l0,0s.09,0,.12.06.24,0,.39,0c-.07,0-.15,0-.18.13a1.66,1.66,0,0,1-.22,0,.44.44,0,0,0-.15-.05h-.12c-.1,0-.19-.06-.29-.08S53,14,53,14s-.27-.12-.4-.07a.72.72,0,0,0-.27-.07c-.05-.11-.11-.24-.25-.26s-.22.11-.32.12-.08,0-.12,0-.12-.14-.23-.15a2.36,2.36,0,0,1,.13-.23S51.46,13.2,51.48,13.16Zm2.7.9s0,0,0-.05.09,0,.12,0h.31l.06,0,.22,0h.24c.08,0,.16.06.23,0a.64.64,0,0,0,.27,0,1.16,1.16,0,0,0,.28.05,1.24,1.24,0,0,1,.48-.06c-.07,0-.17,0-.22.05a.9.9,0,0,0-.19,0l-.14,0a.44.44,0,0,1-.18,0h-.1c-.09,0-.18,0-.25,0h0s-.09,0-.14,0h0l-.07,0c-.14,0-.34,0-.52-.07a.45.45,0,0,0-.11,0h-.07S54.23,14,54.18,14.06Zm1.76,0h0S55.94,14,55.94,14Z"/><path class="cls-8" d="M49.34,14h-.06c0-.05-.12,0-.12-.09l.29.13S49.33,14.06,49.34,14Z"/><path class="cls-8" d="M49.51,14.16s0,0-.07,0,.06,0,.09-.05S49.51,14.13,49.51,14.16Z"/><path class="cls-8" d="M56.3,14.71s.14-.05.19-.07S56.36,14.68,56.3,14.71Z"/><path class="cls-8" d="M57.62,16.16h0Z"/><path class="cls-8" d="M56.87,15.84s0,0,0,0,0,0,0,0a.57.57,0,0,0-.26-.1s0,0,0,0a.35.35,0,0,1,0-.06c.09,0,.18.07.26.09S56.86,15.79,56.87,15.84Z"/><path class="cls-8" d="M56,15.23s0,0,0-.06S56,15.2,56,15.23Z"/><path class="cls-8" d="M55.51,17.77s-.09,0-.09,0a.25.25,0,0,1-.16.08v-.06C55.35,17.68,55.53,17.55,55.51,17.77Z"/><path class="cls-8" d="M55,15.28s0,0,0,0,0,0,0,0S55,15.3,55,15.28Z"/><path class="cls-8" d="M54.51,15.05s0,0,0,0S54.49,15,54.51,15.05Z"/><path class="cls-8" d="M53.52,15.19s0,0,0,0-.12,0-.18,0l-.1,0a1.35,1.35,0,0,1-.36-.08.4.4,0,0,1-.19-.07c.09-.1.19,0,.26,0L53,15c.18.08.38,0,.5.14,0,0,0,0,.09,0v0A.11.11,0,0,1,53.52,15.19Z"/><path class="cls-8" d="M52.75,15.22s-.06,0,0,0,0,0-.07,0a1.8,1.8,0,0,0-.48-.25s0,0,0,0,.14,0,.19,0,.18.1.26.14a.18.18,0,0,0,.13.09Z"/><path class="cls-8" d="M52.24,15.1v0s-.08,0-.12,0,0,0,.06-.05S52.23,15.06,52.24,15.1Z"/><path class="cls-8" d="M52.15,14.9s0,0-.06,0S52.13,14.9,52.15,14.9Z"/><path class="cls-8" d="M51.12,14.59s-.06.05-.07,0-.12,0-.19,0,0,0,0,0,0,0,0,0l-.12,0h0s0,0,0,0h0s0,0,0,0h0s0,0,0,0,.08,0,.07,0,.06,0,.09,0S51,14.58,51.12,14.59Z"/><path class="cls-8" d="M50.7,14.56s0,0,0,0S50.7,14.55,50.7,14.56Z"/><path class="cls-8" d="M50.66,14.57l0,0S50.67,14.56,50.66,14.57Z"/><path class="cls-8" d="M50.6,14.52s0,0-.05,0S50.58,14.52,50.6,14.52Z"/><path class="cls-8" d="M50.52,14.51h0Z"/><path class="cls-8" d="M50,14.24l0,0S50,14.22,50,14.24Z"/><path class="cls-8" d="M50.68,15.31s.07.07.11.07a.7.7,0,0,0,.27.19s.07,0,.1.07a.63.63,0,0,0,.49.17l0,0h.17a.79.79,0,0,1,.33.19s0,0,0,0,.16.23.27.29.07,0,.08,0h.12a.28.28,0,0,0,.25.05s.08,0,.12,0c.22.09.49.25.71.36,0,0,0,0,.07,0s.17.11.26.1.09.06.14.11,0,.13.11.09.22.06.32.17a1,1,0,0,0,.13.16,1.64,1.64,0,0,0,.23,0,.1.1,0,0,1,0,0c.05,0,.14-.06.19,0s.23-.2.38-.16.21-.07.3-.12.18,0,.22.08h.14s0,0,0,0l0,0c.09.05.24,0,.34-.1s0,0,.06,0a1.88,1.88,0,0,1,.52-.33s.09,0,.12.07l0,0s0,0,0,0a.41.41,0,0,0,.15-.22c0-.06,0-.11,0-.09s-.1-.07,0-.17,0-.06,0-.07-.06,0-.11,0,0,0,0,0-.06,0-.06,0,0,0,.09-.05,0-.06,0-.07h0s0,0,0,0h0l-.15-.05a2,2,0,0,1-.37-.15s0-.05-.06,0,0-.05,0-.06l0,0a.06.06,0,0,1-.07,0s-.08,0-.11,0a.2.2,0,0,0-.08-.08.08.08,0,0,1,0,.05c-.08,0-.13-.1-.21-.09a.13.13,0,0,0-.08-.07c-.09-.14-.19-.22-.29-.18,0-.12-.07-.07-.09-.11s-.08-.19-.14-.16,0,0,0,0-.09,0-.13-.05-.06-.07-.09-.07-.09.05-.14.14-.1.1-.11,0,0,.05,0,0,0,0,0,0a.31.31,0,0,1,0,.07s0,0,.07,0l0,0a.49.49,0,0,1,.2-.13c.06,0,.11.06.16,0s0,0,0,.06,0,0,.06,0,0,0,.06,0,0,.08.09.1.06,0,.05.12,0-.05,0,0,0,0,0,0-.08.19-.14.21a.11.11,0,0,0-.12,0,.62.62,0,0,0-.53-.12.1.1,0,0,0-.12-.05c0-.16-.2,0-.23-.11-.06.11-.13,0-.13,0s-.07,0-.09,0,0,0,0,0l0,0v-.08h0l0,0s0,0,0,0l0,0c0,.07,0,0,0,.06s0,0,0,0l.07,0s0,0,0,0c-.13-.16-.32-.12-.51-.14a.06.06,0,0,0,0-.05c-.06,0-.1,0-.15.11s.12,0,.22,0a.19.19,0,0,1,0,.13c-.1,0-.16-.07-.25-.06s0,0,0,0-.09,0-.13-.06-.17,0-.25-.08,0-.05-.05,0a.18.18,0,0,0,.12,0,.46.46,0,0,0,.17.09c.08.11.19.07.31.14s0,0,0,.06,0,.09,0,.1,0,0,0-.05a.1.1,0,0,1,0,.09s0,0,0,0,0,.06,0,.11-.23.06-.32,0v-.1s0,.07,0,.12-.09,0-.13,0,0-.05,0-.05-.17,0-.25,0-.2-.1-.34-.11,0,0,0,0-.19,0-.19-.18,0,0,0,0h0s0,0-.06,0,0-.06-.07-.08-.07,0-.1,0-.08,0-.12,0v0s.11-.06.15,0,0,.07.06.06v0c.16,0,.16.26.31.29a.49.49,0,0,1,.06.17c-.05,0-.09,0-.13,0s-.31-.1-.46-.12-.2-.06-.31-.1-.05-.06-.08-.09,0,0,0,0,0-.15-.08-.2h0l-.07,0a1.09,1.09,0,0,1-.18,0l-.27-.12c-.06-.07-.19-.07-.27-.14S51,14.94,50.9,15s0,0,0,0-.09,0-.14,0l0,0a.89.89,0,0,1-.46-.11,1,1,0,0,0-.12-.17.29.29,0,0,0-.14-.17.79.79,0,0,0-.23,0,.11.11,0,0,0-.07,0l-.22-.07c-.15-.07-.23-.16-.38-.22h0s-.06,0-.07,0l.12.07.07,0,.07.06h0l.07.05.14.06c.11,0,.23.1.29.06s.08,0,.12,0l.09,0a3.49,3.49,0,0,0,.2.37.11.11,0,0,1,.08,0c-.16,0-.39-.23-.56-.26,0,0,0,0,.06,0l.35.2c.08,0,.16.05.25.1l.13.1s0,0,0,0,.09.15.17.14S50.67,15.29,50.68,15.31Zm6.79,1h0s0,0,0,0h0S57.49,16.32,57.47,16.34Zm-.35,0c0-.05.05-.07.06-.07s0,0,0,0S57.14,16.34,57.12,16.37Zm-.13.1a.08.08,0,0,1,0,0s-.1,0-.13,0A.48.48,0,0,0,57,16.47Zm-.18-.06s0,0,0,0,0,0,0,0Zm0,.16a.66.66,0,0,0-.2,0c-.06,0-.12.09-.17.07s.14-.07.18-.13.12,0,.15,0S56.82,16.53,56.82,16.57Zm-.06-.17v0s-.06,0-.07,0S56.73,16.4,56.76,16.4Zm-.07,0s0,0,0,0A0,0,0,1,1,56.69,16.39Zm0-.15s0,0,0,0,0,0-.06-.05,0,0-.08,0,0,0,0,0a.58.58,0,0,1-.56-.07c0-.1.08-.05.08-.2s.19.09.28,0,.11.07.18.09A.23.23,0,0,1,56.66,16.24ZM56.32,16s0,0,0,0l-.06-.06s-.13,0-.16-.09,0,0,.07,0,.08-.14.16-.06,0,.07.06.09.06,0,.08.07S56.35,15.87,56.32,16Zm.12.69s0,0,0,0S56.42,16.64,56.44,16.64Zm-.83.05a.59.59,0,0,1-.23,0c-.07,0-.09-.12-.19-.13s0,0-.1,0-.08-.05-.13,0-.08-.09-.15,0a.77.77,0,0,1,.19-.21c.22.08.44.07.62.28Zm-1.09-.18s0,0,0,0-.1,0-.14,0,0,0,0-.06-.09,0-.08-.05-.08,0-.13,0,.09-.07.08-.13,0,.06-.06.08,0,0,0-.1a.17.17,0,0,1,.23.05s.07,0,.1,0,0,0,0,0,0,.16.11.15S54.51,16.51,54.52,16.51Zm-.46-.23s0,0,0,0,0,0,.05,0A.41.41,0,0,1,54.06,16.28Zm-.42.32-.22-.07a1.12,1.12,0,0,0-.32-.12s-.1-.1-.15-.06-.16,0-.23,0-.2-.06-.29-.15a.25.25,0,0,0,0-.09s0,0-.06,0,0-.08-.08-.11l0,0s0,0,0,0,0,0-.07-.07a2,2,0,0,1-.25-.09.2.2,0,0,0,.15-.1l.15.06s0,0,.09.06h.08c.07,0,.12.08.18.1s.12,0,.15.08.17.12.28.07.12,0,.18.06,0,.23.14.24.17-.12.25-.15,0,0,.08,0,.08.12.16.11a2.65,2.65,0,0,1-.12.24S53.66,16.56,53.64,16.6Zm-1.81-.91,0,0s-.06,0-.09,0-.13,0-.21-.06,0,0,0-.05l-.14-.09-.15-.06c-.05,0-.09-.1-.15-.09s-.1-.1-.15-.11-.11-.07-.16-.12-.21,0-.31-.12.11.05.15,0,.09,0,.13,0l.1,0s.07,0,.12,0l.07,0s.1.08.14.1h0s0,.06.07.07h0s0,0,0,0a1.93,1.93,0,0,0,.32.19s0,0,.06,0h0S51.79,15.69,51.83,15.69Zm-1.16-.42s0,0,0,0S50.68,15.25,50.67,15.27Z"/><path class="cls-8" d="M55.17,15.35l0,0s.07,0,.07,0l-.17,0S55.17,15.33,55.17,15.35Z"/><path class="cls-8" d="M55.06,15.29s0,0,0,0,0,0-.06.07S55.06,15.31,55.06,15.29Z"/><path class="cls-8" d="M50.74,14.53s-.09,0-.13,0A.57.57,0,0,1,50.74,14.53Z"/><path class="cls-8" d="M52.51,2.58h0Z"/><path class="cls-8" d="M53.09,2.55l0,0h0l0,0h0l.05.08h0v0l0,.06-.1-.16h0Z"/><path class="cls-8" d="M53.51,3.11s0,0,0,.06A.08.08,0,0,1,53.51,3.11Z"/><path class="cls-8" d="M53.42.54s0,0,.06,0,.05-.1.1-.11V.49C53.54.6,53.44.76,53.42.54Z"/><path class="cls-8" d="M54.12,2.86s0,0,0,0,0,0,0,0S54.12,2.84,54.12,2.86Z"/><path class="cls-8" d="M54.46,3s0,0,0,0S54.47,3,54.46,3Z"/><path class="cls-8" d="M55.08,2.62s0,0,0,0,.09,0,.13,0,0,0,.07,0a.5.5,0,0,1,.24,0s.09,0,.11.05-.13,0-.17,0l0,0c-.12-.06-.25.07-.32-.06s0,0-.06,0v0A.11.11,0,0,1,55.08,2.62Z"/><path class="cls-8" d="M55.62,2.49s0,0,0,0,0,0,0,0,.2.13.3.21,0,0,0,0-.1,0-.13,0-.1-.08-.15-.12a.08.08,0,0,0-.08-.07A.36.36,0,0,1,55.62,2.49Z"/><path class="cls-8" d="M56,2.59v0s.05,0,.08,0a.09.09,0,0,1-.05,0S56,2.62,56,2.59Z"/><path class="cls-8" d="M56,2.77s0,0,0,0S56,2.77,56,2.77Z"/><path class="cls-8" d="M56.63,3.09s.07,0,.06,0,.08,0,.13,0,0,0,0,0,0,0,0,0l.08,0a0,0,0,0,1,0,0h0s0,0,0,0,0,0,0,0,0,0,0,0h0v0s0,0,0,0,0-.06-.06,0S56.69,3.11,56.63,3.09Z"/><path class="cls-8" d="M56.92,3.16s0,0,0,0Z"/><path class="cls-8" d="M57,3.16s0,0,0,0S56.94,3.17,57,3.16Z"/><path class="cls-8" d="M57,3.22s0,0,0,0S57,3.22,57,3.22Z"/><path class="cls-8" d="M57,3.24s0,0,0,0Z"/><path class="cls-8" d="M57.26,3.56s0,0,0,0S57.25,3.57,57.26,3.56Z"/><path class="cls-8" d="M57.22,2.5a.11.11,0,0,0-.07-.09c0-.08-.08-.18-.16-.21s0,0-.05-.07a.38.38,0,0,0-.36-.21l0,0h-.13c-.1,0-.17-.12-.25-.19s0,0,0,0-.11-.21-.2-.27,0,0-.07,0h-.1a.15.15,0,0,0-.2,0s-.07,0-.1,0l-.61-.24s0,0-.06,0-.15-.07-.22,0-.08,0-.12-.08-.06-.11-.1-.06-.18,0-.27-.09S54,.73,54,.71a.51.51,0,0,0-.17,0s0,0,0,0-.09.09-.13.06-.13.24-.24.24-.14.1-.2.16a.23.23,0,0,1-.19,0l-.11,0s0,0-.05,0a.05.05,0,0,1,0,0c-.1,0-.22.08-.29.19s0,0-.05,0c-.12.19-.19.39-.28.54-.06,0-.09,0-.14,0s0,.05,0,.05,0,0,0,0a.41.41,0,0,0,.07.27s.08.08.09,0,.1,0,.14.08,0,0,.06,0l.05-.07h0s0,0,0,0,0,0,0,.07,0,0,0,0,0,0,0,0,0,0,0,0l0,0,.11,0a.4.4,0,0,1,.29,0l0,0,.05,0,0,0h0l.05,0,0,0s.07.09.08.09,0,0,.05.06.09.2.14.15c0,.11,0,.06.07.09s.08.17.12.13,0,0,0,0,.07,0,.11,0,0,.06.07,0,0-.06.06-.16.06-.12.08-.06,0,0,0,0,0,0,0,0V2.83a.15.15,0,0,0,0,.06,0,0,0,0,0,0,0,.7.7,0,0,1-.12.18s-.08,0-.1,0,0,0,0-.06,0,0-.05,0,0,.06,0,0S53.53,3,53.5,3s0-.05,0-.12,0,0,0,0,0,0,0,0,0-.2.06-.23.06,0,.08,0a.32.32,0,0,0,.38,0s.05,0,.08,0c0,.16.14,0,.17,0,0-.11.08-.06.09,0s0,0,0,0,0,0,0,0,0,0,0,0v.07s0,0,0,0,0,0,0,.06,0,0,0,0,0,0,0,0,0,0,0,0l0,0-.05,0h0c.09.13.2,0,.32,0a.05.05,0,0,0,0,0s.06,0,.09-.13l-.14,0a.55.55,0,0,1,0-.13c.06,0,.1,0,.16,0l0,0s.06,0,.09,0l.16,0s0,.05,0,0-.06,0-.08,0a.23.23,0,0,0-.11-.07c-.06-.08-.13,0-.21-.07s0,0,0,0,0-.09,0-.1,0,0,0,.06a.26.26,0,0,1,0-.09s0,0,0,0,0,0,0-.1.15-.11.22-.07v.1s0-.07,0-.11.06,0,.09-.06,0,.05,0,0,.12,0,.18,0,.15.06.25.05,0,0,0,0,.13,0,.12.15,0,0,0,0h0s0,0,0,0,0,.05,0,.07,0,0,.07,0a.19.19,0,0,0,.1-.05v0s-.08.06-.11.05,0-.06,0-.05v0c-.12,0-.09-.23-.21-.25l0-.16s.07,0,.1,0,.23.06.35.08.15.05.22.09,0,0,0,.08,0,0,0,0,0,.14,0,.18h0s0,0,.05,0,.09,0,.13,0l.17.12c0,.07.13.09.17.16s.11.1.19.09,0,0,0,0,.07,0,.11,0,0,0,0,0a.5.5,0,0,1,.31.18v.18a.33.33,0,0,0,0,.17.47.47,0,0,0,.19,0,.05.05,0,0,0,0,0,1.36,1.36,0,0,1,.12.12c.07.1.07.2.14.29h0s0,.05,0,0a.23.23,0,0,0,0-.09.17.17,0,0,0,0,0,.19.19,0,0,1,0-.07h0s0,0,0-.06a.55.55,0,0,0-.07-.09c-.06-.07-.12-.14-.18-.12s-.06,0-.09,0l-.06,0a1.89,1.89,0,0,0,0-.35s0,0,0-.06.2.28.3.35,0,0,0,0l-.17-.26s-.11-.07-.15-.14a.49.49,0,0,0-.07-.11s0,0,0,0,0-.15-.08-.16S57.22,2.52,57.22,2.5Zm-4.8-.08h0s0,0,0,0v0S52.43,2.44,52.42,2.42Zm.19-.18s0,.06,0,.07,0,0,0,0S52.62,2.27,52.61,2.24Zm0-.13s0,0,0,0,.06,0,.11,0A.32.32,0,0,0,52.62,2.11Zm.16,0s0,0,0,0,0,0,0,0S52.79,2.1,52.78,2.11ZM52.69,2a.88.88,0,0,0,.15-.05s0-.11.09-.1-.08.09-.08.16-.09,0-.1,0S52.71,2,52.69,2Zm.12.12v0s0,0,.05,0S52.83,2.1,52.81,2.1Zm0,0a0,0,0,0,0,0,0S52.88,2.1,52.86,2.1Zm.08.12s0,0,0,0,0,0,0,0,0,0,0,0,0,0,0,0a.25.25,0,0,1,.35,0c0,.11,0,.06,0,.22s-.13-.06-.15,0-.07,0-.12-.06S53,2.33,52.94,2.22Zm.27.24a.14.14,0,0,0,0,0s0,0,0,0,.06,0,.09.07,0,.06,0,0,0,.14,0,.07l0-.07-.05-.07C53.15,2.47,53.21,2.54,53.21,2.46Zm-.27-.65s0,0,0,0S53,1.81,52.94,1.81Zm.58-.2s.1-.05.16,0,.08.08.15.07,0,0,.07-.06.06,0,.09,0,.07.06.11,0a1.45,1.45,0,0,1-.1.25c-.17,0-.32,0-.48-.14Zm.8-.07s0,0,0,0,.08,0,.11,0,0,0,0,.05.07-.05.07,0,.06,0,.09,0,0,.09,0,.15a.36.36,0,0,0,0-.09s0,0,0,.08a.11.11,0,0,1-.18,0s-.05,0-.08,0,0,0,0,0-.06-.14-.1-.12S54.33,1.54,54.32,1.54Zm.37.12a.06.06,0,0,1,0,0,0,0,0,0,1,0,.05A.29.29,0,0,1,54.69,1.66Zm.3-.4.18,0c.08,0,.18.09.27.08s.08.08.12,0,.13,0,.19,0,.17,0,.23.13,0,.07,0,.09l0,0s0,.08.05.11,0,0,0,0,0,0,0,0,0,0,0,.06l.19.09a.26.26,0,0,0-.15.1.53.53,0,0,1-.1-.06s0,0-.07-.06H56s-.08-.07-.13-.09-.09,0-.11-.06-.13-.1-.21-.05-.1,0-.14,0,0-.21-.11-.21-.14.13-.19.17,0,0-.07,0-.06-.1-.12-.09,0-.17.07-.25S55,1.31,55,1.26ZM56.4,2l0,0s0,0,.07,0,.1,0,.15.07a.11.11,0,0,1,0,0l.09.09.11.08s0,.1.09.09,0,.11.09.12.06.09.07.15.16,0,.2.15-.06-.06-.1,0-.07,0-.09-.05a.15.15,0,0,1-.07,0,.23.23,0,0,1-.09,0l0,0s-.05-.08-.08-.1h0s0-.05,0-.07h0s0,0,0,0a2,2,0,0,0-.21-.19s0,0,0-.05h0S56.43,2,56.4,2Zm.81.51h0A0,0,0,1,1,57.21,2.54Z"/><path class="cls-8" d="M54,2.82s0,0,0,0,0,0,0,0h.11C54.06,2.87,54,2.85,54,2.82Z"/><path class="cls-8" d="M54.1,2.86s0,0,0,0,0,0,0-.09S54.1,2.83,54.1,2.86Z"/><path class="cls-8" d="M56.88,3.19s.06,0,.09,0S56.91,3.19,56.88,3.19Z"/></g></g><path class="cls-9" d="M46.89,9.76a7.43,7.43,0,0,1,14.77,1.35A7.5,7.5,0,1,0,46.89,9.76Z"/><circle class="cls-10" cx="54.38" cy="9.3" r="7.53"/></g></g></svg>