<svg xmlns="http://www.w3.org/2000/svg" xmlns:xlink="http://www.w3.org/1999/xlink" viewBox="0 0 108 120"><defs><style>.cls-1,.cls-3{fill:none;}.cls-2{isolation:isolate;}.cls-3{stroke:#ec1c24;stroke-miterlimit:10;stroke-width:2px;}.cls-4{fill:#ec1c24;}.cls-5{fill:url(#radial-gradient);}.cls-10,.cls-6{mix-blend-mode:multiply;}.cls-7{clip-path:url(#clip-path);}.cls-10,.cls-8,.cls-9{fill:#be1e2d;}.cls-9{fill-rule:evenodd;}</style><radialGradient id="radial-gradient" cx="-443.01" cy="-386.27" r="7.5" gradientTransform="matrix(0.81, 0.59, -0.59, 0.81, 181.83, 685.83)" gradientUnits="userSpaceOnUse"><stop offset="0.07" stop-color="#ee4036"/><stop offset="0.33" stop-color="#ea3d35"/><stop offset="0.58" stop-color="#de3533"/><stop offset="0.83" stop-color="#ca272f"/><stop offset="0.95" stop-color="#be1e2d"/><stop offset="1" stop-color="#ec1c24"/></radialGradient><clipPath id="clip-path"><circle class="cls-1" cx="54.25" cy="112.09" r="7.5"/></clipPath></defs><g class="cls-2"><g id="_3rdLawIcons" data-name="3rdLawIcons"><ellipse class="cls-3" cx="54.16" cy="58.06" rx="30.37" ry="56.06"/><path class="cls-4" d="M17.25,100.1h4.92a13.81,13.81,0,0,1,3.39.4,7.75,7.75,0,0,1,2.8,1.29,6.37,6.37,0,0,1,1.9,2.32,7.78,7.78,0,0,1,.71,3.47,7,7,0,0,1-.69,3.18,6.9,6.9,0,0,1-1.83,2.31,8.12,8.12,0,0,1-2.67,1.41,10.15,10.15,0,0,1-3.17.49H17.25Zm3.28,11.84h1.7a8.81,8.81,0,0,0,2.11-.23A4.58,4.58,0,0,0,26,111a3.64,3.64,0,0,0,1.12-1.41,4.88,4.88,0,0,0,.41-2.13,4.06,4.06,0,0,0-.41-1.9,3.8,3.8,0,0,0-1.1-1.34,4.69,4.69,0,0,0-1.62-.78,7.1,7.1,0,0,0-2-.27H20.53Z"/><circle class="cls-5" cx="54.25" cy="112.09" r="7.5"/><g class="cls-6"><g class="cls-7"><polygon class="cls-8" points="46.4 106.56 47.08 107.02 47.59 107.67 48.06 108.42 48.99 107.67 49.42 108.53 50.37 107.7 50.79 108.44 51.61 107.84 52.16 108.17 52.55 108.95 53.01 109.48 53.59 109.64 54.22 109.69 55.1 109.36 55.52 110.09 56.04 110.45 57.09 110.55 56.45 111.41 56.14 112 55.67 111.6 54.88 111.7 54.65 111.61 53.94 111.25 54.56 112.27 54.41 113.2 53.95 113.61 52.65 113 52.38 113.65 52 114.17 51.66 114.71 51.26 114.19 51.48 113.34 50.85 112.47 50.92 113.74 50.02 113.79 49.37 113.33 48.93 114.75 48.53 113.6 47.69 114.51 47.09 114.2 46.44 114.78 45.83 114.58 45.02 113.12 44.47 114.04 43.6 113.41 43.33 114.87 42.97 113.82 43.07 112.71 42.92 111.63 42.45 110.42 43.81 109.67 44.72 108.69 45.7 107.76 46.4 106.56"/><path class="cls-1" d="M45.91,106.28l-.65,1.13-.93.88-.87.94-1.71.93.63,1.61.13,1-.1,1.16.39,1.17.69,2,.39-2.1.11-.59-.2-.15-.1-.07,0,0,.11.08.86.63.55-.92.07-.11,0,0-.08.13-.15.25.45.81,1.13.38.6-.55-.11-.05.07,0,.68.34.49-.53.1.28.56,1.61.5-1.63.2-.69-.09-.06,0,0,.31.22,1.66-.09-.1-1.83-1,.36.47.65-.22.86.57.74.48.64.43-.68.33-.53.41-.55.07-.18,1.1.52.89-.78.22-1.33-.74-1.2-.72.79.73.37.39.15.69-.09.28.25.53.46.33-.63.28-.55,1.2-1.62-1.88-.18-.3-.21-.6-1-1.2.46-.45,0-.37-.11-.31-.35-.43-.85-1-.6-.61.44-.45-.78-1,.86.07-.06.17.34-.23-.45,0-.1.09.17-.41-.8-1,.81c-.14.12,0,0,0,0l-.16-.24-.57-.74-.76-.51-.63.92.62.41.43.56.79,1.27.95-.78-.07.06-.19-.38.26.5.06.12-.09-.16,0-.07,0,.09.39.78,1-.88.06-.06,0,0-.07.06-.21-.38.18.33.42.73,1-.74.09.06.35.69.62.71.79.22.81.07.55-.21.25.43.75.51.26,0h0l-.09.11-.32.63.86-.17-.66-.57-.9.12-.07,0-.69-.35-1.75-.87,1,1.66.52.85-.08.52,0,0-1.49-.71-.47,1.14-.35.48-.35.56.91,0-.23-.31.21-.84-.77-1.07L50.2,110.6l.1,1.9,0,.71h-.16l-1.13-.79-.65,2.16,1.06,0-.71-2-1.18,1.28.07,0-.64-.33-.69.62-.1,0L45,112l-.73,1.23-1.09-.8-.43,2.34,1.08-.08-.32-.94.09-1.06-.17-1.2-.31-.82,1-.55,1-1,1-1,.73-1.28Z"/><path class="cls-9" d="M46.29,106.5s0,0,0,0,0,.09-.06.08Z"/><path class="cls-9" d="M43.62,109.18c-.09.1-.12.1-.12.1h0a.33.33,0,0,0-.1.06l-.61.33-.94.52.36.9s0,0,0,.09-.05,0-.09-.1c-.13-.34-.25-.63-.36-.91,1-.55,1.2-.66,1.66-.94,0,0,0,0,0,0h0S43.62,109.13,43.62,109.18Z"/><path class="cls-9" d="M44,114.37h0Z"/><path class="cls-9" d="M43.16,112.88l.07-.41c.23.17.44.33.5.39l.56.38h0v0s0,0,0,0c-.36-.25-.72-.51-1-.72C43.22,112.76,43.19,112.88,43.16,112.88Z"/><path class="cls-9" d="M47.18,114.67c-.1,0,.09,0,0,0l.08,0,.14.08A1.27,1.27,0,0,0,47.18,114.67Z"/><path class="cls-9" d="M49.55,114.21s0,0,0,0S49.57,114.17,49.55,114.21Z"/><path class="cls-9" d="M51.14,113.5c0,.13,0,.15-.07.24l-.12.51.48.64.26.33.21-.35,0-.05.24-.42c.13-.21.25-.37.43-.62l.18-.44.36.17.85.4.39-.34A3.53,3.53,0,0,1,54,114l-.65-.3-.37-.19-.09,0-.07,0-.16.4c-.31.42-.49.72-.71,1.08l-.25.42-.29-.39-.49-.66.06-.21.13-.54s0,0,0,0S51.14,113.49,51.14,113.5Z"/><path class="cls-9" d="M53.32,113.49c.09,0,.29.12.28.14l.37.18.08-.07.54-.44.19-1.07-.66-1.09-.28.3.36.2s-.07,0-.12,0l-.26-.13.33-.35c.16.25.31.46.46.74l.23.36c-.09.54-.11.59-.21,1.1l-.4.34-.25.19-.71-.34S53.29,113.48,53.32,113.49Z"/><path class="cls-9" d="M54.25,111.51h0l-.2-.33-.16.17.34.17-.26-.09-.09,0,.2-.22C54.14,111.3,54.2,111.4,54.25,111.51Z"/><path class="cls-9" d="M54.28,111.69a1.1,1.1,0,0,1,.27.13l.05,0-.05,0Z"/><path class="cls-9" d="M55.23,109.07l0,0a1.77,1.77,0,0,1-.46.19l-.31.14-.25.1-.39,0s-.14,0-.17,0h0a0,0,0,0,0,0,0s.06,0,0,0h0a4.75,4.75,0,0,0-.51-.13h0l0,0a.07.07,0,0,1,0,0s.1,0,0,0l.09,0c-.1,0,0,0-.1,0s0,0,.06,0l.07,0,.33.08s0,0,0,0,.39.07.49,0h.06l1-.42Z"/><path class="cls-9" d="M53.06,109.25s-.06-.1,0,0S53.07,109.24,53.06,109.25Z"/><path class="cls-9" d="M52.92,109.11c-.06-.08,0-.07-.09-.13S52.94,109.11,52.92,109.11Z"/><path class="cls-9" d="M52.7,108.79s-.07-.15-.13-.23A1,1,0,0,1,52.7,108.79Z"/><path class="cls-9" d="M52.49,108.39a.93.93,0,0,1-.1-.15A.61.61,0,0,1,52.49,108.39Z"/><path class="cls-9" d="M49.9,107.62l-.2.15-.05,0A2.7,2.7,0,0,1,49.9,107.62Z"/><path class="cls-9" d="M54.26,110.14h0l.47-.17c.13,0,.07,0,.12,0h0l0,.08.24.43.71.48.26,0h.07l-.07.08-.1.14-.3.63.7-.13-.63-.51-.62.1-.21,0H54.9l-.1,0-.45-.2-.26-.12L53,110.43l.61,1,.55.92-.1.57s0,0,0,0v0l-.11.08-.07,0-.07-.05-.25-.13-.91-.44-.24-.11c-.08.21-.16.41-.25.6l-.16.45-.15.22c-.17.22-.37.55-.54.83l.68,0a2.53,2.53,0,0,0-.28-.31l0-.05V114l.06-.24.13-.53-.72-1-.74-1,.07,1.25,0,.9-.42,0-1-.67-.06.22-.17.6c-.15.47-.23.72-.33,1.08h.66L49,113.9c-.07-.25-.19-.59-.32-1l-.31.34-.44.45-.2.21,0,0-.07.06-.58-.29-.5.45a.73.73,0,0,1-.17.14h0a1.13,1.13,0,0,1-.22-.11l0-.1-.8-1.43s0,0,0,0l-.2-.36-.4.69-.18.31,0,0-.06.16-.15-.08-.05,0-.24-.17-.54-.39-.05.27c0,.25-.08.59-.14.94l-.12.75.52,0,0-.09-.15-.49a3.09,3.09,0,0,1-.12-.42l0,0,.06-.65c0-.08,0-.11,0-.21a.51.51,0,0,1,0-.18v-.07c0-.32-.06-.63-.13-1.09l-.27-.65a.46.46,0,0,0,0-.13s0,0,0-.06l-.06-.13c.08,0,.13-.09.41-.25l.72-.41c.27-.29.43-.45.66-.67.14-.07.33-.24.41-.23a1.49,1.49,0,0,1,.19-.15s.05,0,.07,0l.37-.31.2-.19.24-.23.07-.13c0-.17.09-.34-.07-.16-.06-.07-.34.2,0-.45,0-.12.06-.24,0-.22s-.19.21-.35.43c0,0,0,0,0,0l-.09.16c-.05,0-.1.09-.11.08l.1-.09c.08-.16.1-.24.19-.41s0-.2.06-.39l.1-.16c0-.06-.07,0,0-.11a1.58,1.58,0,0,0-.14.2,3.42,3.42,0,0,0-.4.55l-.07.11-.66.58a5.13,5.13,0,0,0-.63.61,1.29,1.29,0,0,0-.28.29s0,0-.11.06,0,0,0,0l-.13.15-.08.09h0c-.1.09-.49.29-.7.43l-.19.08-.44.23s-.06.06-.11.1l-.15.08c.37.91.41,1.14.58,1.52v0c0,.15,0,.39.07.63l0,.33a3.42,3.42,0,0,0-.06.48l-.06.68.17.49.15.38a1.08,1.08,0,0,0,.07.27l.57,1.82L43.8,115l.1-.54c0-.14.05-.07.06-.1l-.22-.17s0,0,0,0l.9.65.41-.7.16-.26c0-.07,0,0,0,0l0,.06-.14.25h0l.08,0,.14.21a2.59,2.59,0,0,1,.22.38.47.47,0,0,1,.11.16h0l.15.06s0,0,0,0l-.16,0c-.08-.14-.18-.31-.23-.38a.64.64,0,0,0-.06-.11l-.14-.22a.31.31,0,0,0-.06-.06l-.07-.06h0l.12-.19.06-.09-.11.18c-.18.29-.33.56-.46.8-.1-.08-.07-.07-.14-.13-.24-.16-.44-.33-.72-.53-.08-.06,0,0,0,0l0,0a.58.58,0,0,0,.12.1l0,0s0,0,0,.09,0,0,0,0l0,.17a1,1,0,0,1-.05.2c0-.07.05-.21.05-.3a.75.75,0,0,1,0,.15.75.75,0,0,0,0-.3.64.64,0,0,1,0-.21l0-.13s0,0,0,0l.75.56c.15-.23.28-.46.42-.69s.05-.08.06-.09l0,0,.63,1.08.34.11.53.19.41-.38a1.54,1.54,0,0,0,.22-.17l.62.3a5.23,5.23,0,0,1,.44-.46.55.55,0,0,1,.22-.25v0s.08.16.1.26,0-.06,0,0,0,0,0,0,0,.09,0,.11l0,.13a.11.11,0,0,1,0,0c0-.08,0-.1,0-.15s0,0,0,0,0-.09,0-.17l0,.06-.07-.18s0,0,0,0c.07.25.12.44.19.62l.35,1.07.33-1.08.21-.69.07-.27.07,0s0,0,.17.14l.11.07.3,0h.16l.29-.06-.74,0-.36-.25,0,0s0,0-.06,0l0-.09.43.31.61,0,.22,0,.42,0,0-.79,0-.73-.49.17.46.65s0,.08.07.12v0c0-.06-.22-.33-.33-.46l-.2-.31.46-.16,0,.74,0,.76L50,114l-.36-.26s-.06-.06-.11-.11v0s0,0-.07.1,0,0,0,0,0,.09-.07.09l0-.15s-.06.13-.08.11l.11-.39.58.38.5,0,.27,0c.06,0-.2,0-.24,0l.43,0,0-.23a.23.23,0,0,0,0-.12c0-.41,0-.67-.06-1l-.06,0,.28.37.35.48-.22.85.35.45s0,0,0,.09c.22-.17.27-.39.43-.58a4.23,4.23,0,0,1,.38-.46l0-.06a2.72,2.72,0,0,1,.13-.28l0-.15a.14.14,0,0,0,0-.07l.24.12.39.22c.26.13.45.2.59.26l0,0a3.43,3.43,0,0,0,.43-.43l-.14.1-.29.29-.37-.15c-.16-.08-.24-.15-.41-.22h0c-.2-.09-.35-.16-.51-.25l-.29.58a4.66,4.66,0,0,0-.56.77l-.21.26h.08l-.16-.27.19.24h-.15c.07-.12.12-.22.22-.37a5,5,0,0,1,.46-.71l.32-.77,1.15.54.19.1.37-.33.12-.83h0a4.09,4.09,0,0,0-.27-.49s0,0-.08-.09a3.58,3.58,0,0,1-.2-.4l-.14-.35.27.2a2,2,0,0,0,.32.21l.22.11.15.08a1.46,1.46,0,0,0,.22.09l.81-.14.18.16.32.27-.13,0,.31-.6.33-.43.26-.34-.95-.1-.22-.15-.33-.21-.4-.7-.35.16c-.06,0,0,0-.11,0l-.38.16a2.24,2.24,0,0,0-.37,0l-.15,0h-.14l-.65-.15-.54-.56c-.16-.31-.29-.54-.39-.73l-.25-.16-.12-.1-.24.11-.41.23-.19.09-.16-.39c-.06-.13-.11-.25-.24-.49-.23.22-.41.41-.54.56l-.42.48,0,0c-.1-.19-.22-.35-.22-.32s-.29-.53-.24-.41l-.35.3-.57.47c-.22-.37-.44-.76-.54-1L47,107.1l-.22-.14a.36.36,0,0,0-.09-.08c-.07,0-.3-.23-.37-.23a5.43,5.43,0,0,0,.62.48l0,0a1.92,1.92,0,0,0,.21.29c.09.13.17.26.23.36l.05.09a.72.72,0,0,0,.07.11c.09.15.16.31.3.53l.17.27.71-.6.2-.18v0h0s0,0,0,.06l.11.19.06.11s.17.3.27.44a1.66,1.66,0,0,0,.2-.25A3.58,3.58,0,0,0,50,108l.33-.3,0,.07c.08.23.19.53.33.87.14-.07.31-.15.51-.27a2.36,2.36,0,0,1,.38-.19l0,0,.1.07a.65.65,0,0,1,.13.09l-.25-.13-.26.19c-.22.17-.45.33-.69.5l-.34-.6-.16-.27.1.17-.78.72a4.74,4.74,0,0,0,.53-.45l.24-.2-.12-.21.15.26.36.65.91-.66.06,0,.09,0,.11.06.05,0,0,0,.07.13.14.29.13.26.55.65s.15,0,.09,0c.35.09.36.11.63.19a4.93,4.93,0,0,0,.76.08h0S54.17,110.12,54.26,110.14Zm-8.4-2.45s0,0,0,0,0,0-.05.08.05-.1.05-.12l-.1.15h0C45.82,107.64,45.9,107.58,45.86,107.69ZM44.37,109s.24-.33.31-.39.2-.16.14-.08S44.48,108.86,44.37,109Zm-.54.66s0,0,0,0h0c-.17.07-.49.26-.62.29l.62-.32Zm-.89.42s0,0,0,0a.94.94,0,0,1-.15.06Zm0,.13-.42.21.21.57.27.62c0,.11,0,.19,0,.28l-.06-.28c-.11-.25-.22-.53-.31-.69l-.18-.51a2.24,2.24,0,0,0,.29-.17S42.91,110.2,42.91,110.22Zm-.26,0h0l-.26.15s0,.08,0,.08l0-.09A2.37,2.37,0,0,1,42.65,110.24Zm-.24.27s0,0,0,0S42.46,110.65,42.41,110.51Zm-.09,0s.07.18.09.26l.1.33c.07.18.12.24.21.47,0,.08,0,0,.05.07v0l.17,1-.09,1.12c.1.29.2.63.35,1.08l.16.5.11-.52,0-.2a.47.47,0,0,1,0,.21l-.06.68-.29-.65c0-.1-.09-.2-.12-.16l-.31-.92a9.49,9.49,0,0,0,.06-1v-.13l-.12-1h0l-.23-.64A1.76,1.76,0,0,1,42.32,110.52Zm.45,2.12c0,.08,0,.06,0,.08v0a3.27,3.27,0,0,1,0,.41l-.06.71.12.37a.92.92,0,0,1,.06.22c-.06-.21-.11-.24-.2-.53l0-.06c0-.26,0-.33,0-.52s0-.44,0-.62h0l0-.38c0-.24-.08-.5-.07-.6A8,8,0,0,1,42.77,112.64ZM43,112a2.35,2.35,0,0,1,0,.24S43,112.07,43,112Zm.64,1.36.77.55.13-.22L45,113l.21.39.29.47a4.82,4.82,0,0,0,.35.59l0,.06a3.6,3.6,0,0,0,.52.18l0-.06s0,0,0,.08l-.52-.1-.06,0L45,113.08l-.56.91-.78-.62Zm4.12.88s.05-.06,0-.06c.21-.2.46-.5.65-.72l.1-.11.09.29a3.72,3.72,0,0,1,.2.59c.05.11.12.31.18.49h-.23c0-.09,0-.17.06-.24s-.05.31,0,.14a.92.92,0,0,0,0-.16.7.7,0,0,1,.13-.31l-.15.59H49c-.1-.28-.19-.57-.25-.76s-.12-.32-.18-.5l-.11.12s0,0,.07-.06a3.64,3.64,0,0,1-.34.34l-.34.33S47.82,114.19,47.79,114.23Zm1.25-.18.06-.16a.33.33,0,0,1,0,.17C49,114.14,49,114.1,49,114.05Zm1.07-.57.48,0v-.19l0-.77-.06-1.08.64.88.72,1,0,.15-.13.45c0,.18,0,.19-.05.24s0,0,.05,0l.27.35-.57,0c.15-.25.27-.5.43-.72l.25-.34c.13-.31.27-.67.4-1l1,.46.34.2.14.07h0l.22-.15v0l0-.22,0-.15.07-.33,0,0-.56-.89-.51-.82.87.42.39.2L54,111l-.86-.33.55.67a.84.84,0,0,0,.15.14l.45.73,0,.06,0,.14-.05.32,0,.34,0,0-.31.26-.44-.22L53,113l-.47-.22-.06.11-.29.71a5.91,5.91,0,0,0-.56.85l-.13.21.29,0-.36-.45,0-.13a6.75,6.75,0,0,0,.25-.73l-.21-.32-.18-.24-.32-.38-.48-.51.11.64c0,.19.07.35.1.54s0,.28,0,.44v.15c-.2,0-.4,0-.69,0,0,0,0-.08.11-.12S50.1,113.5,50.11,113.48Zm4.54-2.19s.05,0,0,0l.08,0a.47.47,0,0,0,.15,0l0,0,.81-.12.57.47,0,0-.56.11.11-.18.23-.43.15-.19.14-.21h-.11l-.12,0h-.06l-.23,0-.27-.16-.38-.28-.21-.38s0-.08-.08-.11l0-.08-.19.06-.49.17h0l-.72,0-.72-.17c-.26-.3-.3-.35-.51-.61l.24.25.29.33.3.06.4.1h.4l.32,0,.34-.14c.22-.09.21-.11.41-.19l0,0,.14.25.19.33.58.41h0l.24,0,.29,0h.09l.07,0-.07.06-.35.46-.32.61.4-.08-.42-.36-.13-.12-.43.05-.3,0h-.11l-.16-.07Zm-.6-1.2h-.12S54.07,110.08,54.05,110.09Z"/><path class="cls-9" d="M46.8,115l-.19.19-.08.06-.42-.14a1.43,1.43,0,0,1-.28-.1l.7.23.57-.51s0,0-.09.09Z"/><path class="cls-9" d="M47.18,114.67s0,0,0,0,0,0,0,0l0,0h0S47.17,114.66,47.18,114.67Z"/><path class="cls-9" d="M53.16,109.27h0s-.33-.37-.42-.44c.09.06.36.39.42.44Z"/><polygon class="cls-8" points="47.99 117.4 48.48 118.03 49.22 117.86 49.94 117.8 50.34 118.94 51.16 118.49 51.76 118.91 52.6 119.03 53.06 118.35 52.59 117.89 52.96 116.99 53.44 116.22 53.67 115.24 54.83 115.56 55.17 114.74 55.3 113.75 56.44 114.32 57.16 114.68 58.06 114.47 57.47 115.03 57.28 115.81 57.01 116.25 55.93 117.09 57.2 116.93 57.74 116.69 58.36 116.43 59.17 116.59 59.83 116.92 60.22 117.48 60.24 118.21 60.98 118.4 60.42 119.53 59.11 119.48 58.34 120.39 57.25 120.75 56.37 121.46 55.38 121.78 54.32 121.38 53.19 120.87 51.89 120.76 50.81 120.13 49.67 119.64 48.6 118.98 47.62 118.45 47.99 117.4"/><path class="cls-1" d="M47.46,117.21l-.53,1.51,1.39.74,1.09.68,1.15.49,1.15.67,1.34.12,1,.45,1.31.5,1.27-.41.88-.71,1.15-.38.69-.82,1.4,0,1-2.07-1-.26v-.47l-.58-.82-.84-.42-1.06-.21-.74.31-.51.23-1.19.14.41,1,1.16-.9.37-.6.17-.71.47-.45,1.5-1.41-2,.47-.7.16-.75-.37-1.62-.83-.23,1.71-.12.3-1.25-.35L52.92,116l-.46.73-.54,1.3.51.49-.09-.09h0l-.37-.05-.77-.55-.59.33,0,0-.33-.93-1.18.1-.44.1-.27-.36-.88.69.71.91,1.05-.23.25,0,.48,1.35.86-.48c.49-.27.15-.08.23-.12l.41.3,1.33.18.91-1.35-.57-.56-.06,0,0,0h0l.14.13.21-.51.5-.81.12-.51,1.08.3.55-1.34,0-.29,1.35.67,1.09-.26-.51-.94-.72.67-.2.86-.17.28-1,.76L54,117.88l2-.24,1.35-.17.65-.28.29-.12.13-.06h0l.57.11.46.23.22.31,0,1,.75.19.06,0h0l-.1,0-.18,0-.1.19-1.23,0-.83,1-1,.34-.88.71-.7.23-.91-.34-1.16-.52-1.27-.12-1-.58-1.13-.48-1-.66-.58-.3.21-.61Z"/><path class="cls-9" d="M47.87,117.36s0,0,0,0,0,.07,0,.06Z"/><path class="cls-9" d="M49.14,119.87c.1.07.09.08.18.14l.12.06.05,0,1.1.47.28.15s0,0,.06,0,0,0-.11,0l-.25-.14-1.16-.47-.08,0C49.39,120.07,49.1,119.9,49.14,119.87Z"/><path class="cls-9" d="M59.31,119.87s0,0,0,0,.05,0,.05,0S59.3,119.86,59.31,119.87Z"/><path class="cls-9" d="M60.74,117.89s0,0,0,0Z"/><path class="cls-9" d="M57.49,116.49c-.14.05-.12.07-.21.09l-.16.07-.64.08-.4.07-.18,0,.19.46,1.11-.86.12-.2.19-.32c.07-.28.11-.42.16-.61a2.64,2.64,0,0,1-.11.63l-.33.52,0,0a.85.85,0,0,0-.16.14l-.89.7-.24-.57a9.66,9.66,0,0,1,1.23-.14h0a3.5,3.5,0,0,1,.33-.16l0,0S57.5,116.48,57.49,116.49Z"/><path class="cls-9" d="M57.3,116.07s.08-.13.12-.2,0-.05,0,0,0-.2.08-.33l.11-.37.56-.51.56-.51-.75.16-.82.18-.25-.13s.06,0,.1,0l.15.08a4.84,4.84,0,0,1,.59-.15l.22-.06,1-.28-.81.73-.3.28-.26.21s0,.13-.07.24-.08.25-.15.5l-.14.23S57.3,116.1,57.3,116.07Z"/><path class="cls-9" d="M57.42,114.48h0l-.24.06a2.17,2.17,0,0,0-.26-.12s.16,0,.19,0l.07,0Z"/><path class="cls-9" d="M56.88,114.27s-.21-.08-.25-.11Z"/><path class="cls-9" d="M53.36,115.41a1.1,1.1,0,0,1-.07.41,2.4,2.4,0,0,1,0,.32l-.23.39s-.09.11-.1.15,0-.09,0-.06l-.17.28-.09.24s0,0,0,0,0,0,0,.07.08-.21.05-.12l0-.09c0,.08,0,0-.06.11,0,0,0-.07,0-.08s0,0,0-.06l0,0c.07-.13.17-.29.13-.25s.2-.26.23-.36l.09-.15,0-.25Z"/><path class="cls-9" d="M52.65,117.23s0,.09,0,0S52.65,117.22,52.65,117.23Z"/><path class="cls-9" d="M52.6,117.4a.75.75,0,0,1-.07.12C52.55,117.46,52.59,117.39,52.6,117.4Z"/><path class="cls-9" d="M52.4,117.8a.81.81,0,0,1,0,.14.57.57,0,0,0,.11.11l-.12-.11Z"/><path class="cls-9" d="M52.64,118.22l.08,0S52.69,118.27,52.64,118.22Z"/><path class="cls-9" d="M51.34,118.15l-.15-.12h0l0,0C51.26,118.07,51.34,118.13,51.34,118.15Z"/><path class="cls-9" d="M53.74,116.57l.12-.18.08-.32a.64.64,0,0,0,0-.18l0-.08.08,0,.66.17.36.1.23-.55.3-.7,0-.18v-.24h.15l.1,0,.15.08.7.3.35.16,1-.24-.32-.6-.47.43s0,0-.05,0l-.18.16-.14.5-.06.19,0,.13s-.22.32-.21.3l-.13.1c-.12.09-.22.18-.34.26l-.4.34-.13.1-1.26.93,1.57-.17a10.06,10.06,0,0,0,1-.17l.31,0,.34-.16c.23-.11.48-.21.76-.33l.65.12.53.26.28.4,0,.58c0,.11,0,.2,0,.3l.18,0,.47.13-.07,0-.08.21a1.17,1.17,0,0,0-.12.21l-.07.13h-.05a1.6,1.6,0,0,0-.43,0l-.79,0-.41.49-.31.35-.1.1a1.5,1.5,0,0,0-.31.07l-.76.25-.22.18s0,0,0,0-.36.33-.56.47l-.07.07a6.63,6.63,0,0,1-.8.32l-.07,0a9,9,0,0,1-1.07-.36c-.24-.12-.64-.3-.8-.41l-.18-.09-.46,0-.17,0h-.15l-.5-.06-.3-.18-.35-.19s-.15-.08-.19-.12l-.19-.1-1.15-.46c-.21-.13-.49-.31-.71-.47a2,2,0,0,1-.26-.33.9.9,0,0,1-.18-.12s0,0,0,0l-.33-.21h0c-.05,0-.08,0-.15,0s-.29.24-.18-.14c0-.08,0-.21-.08-.17a3.16,3.16,0,0,0-.23.41s0,0,0,0l0,.15a.31.31,0,0,1,.12.07l-.14-.07c.05-.15,0-.21.1-.38s-.06-.18,0-.36a1.09,1.09,0,0,0,0-.14s0,0,0-.09a.71.71,0,0,0-.08.19.52.52,0,0,0-.13.2l-.21.52-.08.22.81.46.44.26.31.19s.17.14.27.19,0,0,.06.09,0,0,0,0a2.46,2.46,0,0,1,.32.19l.12.07.59.22a1.79,1.79,0,0,0,.33.18.13.13,0,0,1,.09,0l.15.06c.28.15.51.33.86.5l.08.06.19.11.4,0a4.52,4.52,0,0,0,.46.07l.46,0,.35.15.41.17a2.84,2.84,0,0,0,.63.29l.37.16.18.08.36.14.41-.14s0,0,0,0l.78-.26.2-.16c.17-.14.34-.25.5-.39s.2-.18.18-.18.06,0,.13-.08a5.42,5.42,0,0,1,.56-.22.41.41,0,0,1,.09,0l.1,0s0,0,0,0a2.27,2.27,0,0,0-.33.13l-.09,0-.26.11-.21.09s-.13.13-.21.2l-.66.55-.25.09c-.06,0,0,0-.08,0s-.24.07-.38.13l-.15.06-.27.1-.1,0L54.6,122c-.1-.07-.38-.15-.39-.19s.16.08.24.09-.1,0-.11-.06c.25.07.36,0,.68.14l.36.14.28-.1.15-.06.71-.22.88-.72,1.09-.39.26-.28.22-.27a1.35,1.35,0,0,0,.17-.17l.1-.12a3.36,3.36,0,0,1,.62,0,.87.87,0,0,1,.27,0l.46,0,.09-.17a1.81,1.81,0,0,1,.22-.44s0,.1,0,0,0,0,0-.07a1.71,1.71,0,0,1,.11-.17l.14-.28a.47.47,0,0,1,0,.14,3.59,3.59,0,0,1-.17.32s0,0,0,0-.06.13-.12.21a.36.36,0,0,0,0-.11l-.18.39s0-.09,0,0c.16-.29.27-.51.37-.68.16-.33.29-.57.4-.8l-.91-.23,0-.46v-.11l-.15-.22a2.54,2.54,0,0,0-.37-.43l.48.67v.43a.37.37,0,0,1,0,.11v-.52c-.21-.31-.24-.37-.41-.6l-.07-.08-.07,0-.67-.35-.93-.19-.47.19a1.36,1.36,0,0,0-.25.11c.23-.09.39-.15.63-.26l.09,0,.93.21c.3.17.39.21.72.38l.47.67v.28a.5.5,0,0,0,0,.18s0,.06,0,.15,0,0,0,0v0s0,0,0,0h-.07s0-.06,0-.07a.13.13,0,0,0,0,.08s.06,0,0,0h-.07l0-.67c-.15-.2-.25-.33-.38-.53l0-.08-.1-.07s0,0,.09.08a.39.39,0,0,1,0,.06l0,0-.42-.18s0,0-.09-.06l-.16-.08c-.33-.07-.56-.1-.83-.15l-.14.07-1,.44-.55.08s0,0-.08,0l-.63.07,0,.06a1.89,1.89,0,0,1,.4-.24,1.86,1.86,0,0,1,.25-.17l.11-.1a2.17,2.17,0,0,0,.29-.21l.09-.06.19-.27.13-.19c0-.16,0-.2.05-.29a3,3,0,0,0,.06-.44l-.05.11a4.28,4.28,0,0,1-.09.59h0a3.05,3.05,0,0,0-.22.32h0l-.08.14c-.46.35-.75.5-1.15.78l0,0h0l.36,0h.53l-.59.09-.29.06-.44.09.36-.31c.31-.27.72-.57,1-.82l.24-.41v-.05c.08-.25.12-.44.19-.75l.59-.58h0l.13.24a4.62,4.62,0,0,0-.47.09s0,0-.09,0a2.2,2.2,0,0,1-.38.05c-.11-.07-.18-.14-.31-.21l-.18-.08-.31-.17c-.26-.12-.49-.21-.7-.32l-.28-.14-.13.89h0c-.11.22-.23.52-.37.87l-.61-.18a5.57,5.57,0,0,1-.55-.14,4.21,4.21,0,0,0-.11.65c0,.06,0,0,0,.09l0,.2a1.77,1.77,0,0,0-.2.38.72.72,0,0,1-.07.11l-.17.31-.26.78.08.07h0l0,0,0,0,.06,0,.37.36-.18.27-.5.57-.29-.08-.6-.2-.2-.16a2.68,2.68,0,0,0-.41-.24c-.19.15-.28.24-.46.37a1.64,1.64,0,0,0-.3.24l-.14.08-.41-1L49.8,118h-.55c-.22,0-.49.06-.82.12l-.25-.33a.9.9,0,0,0,0-.09c-.05,0-.18-.25-.24-.26a3.81,3.81,0,0,0,.41.59.69.69,0,0,0,.11.17l.26-.06c.24,0,.35,0,.5-.06l.08,0h.31l.21,0,.07.18.39,1a3.57,3.57,0,0,0,.64-.46.39.39,0,0,0,.16-.12l.13-.12.07,0c.2.14.16.1.36.25l.14.15a7.24,7.24,0,0,0,1,.33c.12-.14.26-.31.42-.52s.23-.35.32-.47l0,0,.06,0c-.18.29-.43.68-.71,1.1l-1.16-.16-.37-.27-.11-.07a1.59,1.59,0,0,1-.24.16l.2-.09s0,0,0,0l0,0,.46.34,1.19.17.18-.26.57-.9-.45-.41-.11-.11c.09.09.07.08.07.07h0l0,0h0l.06-.12.15-.34s0-.07,0,0a.89.89,0,0,1,.06-.15,3.83,3.83,0,0,0,.42-.63S53.7,116.61,53.74,116.57Zm-6,1.77s0,0,0,0a.33.33,0,0,0,0,.06s0-.07,0-.07l-.05.1h0C47.71,118.33,47.77,118.26,47.76,118.34Zm1.16.88s-.3-.13-.36-.17-.17-.12-.09-.09l.11.05A3.53,3.53,0,0,0,48.92,119.22Zm.63.33s0,0,0,0l.1.08a1.87,1.87,0,0,1,.38.2l-.39-.19Zm.7.4s0,0,0,0l.11.07Zm.11-.07.46.23.36.21c.24.14.5.24.68.36-.22-.09-.57-.3-.76-.37l-.29-.18a3.12,3.12,0,0,0-.36-.15S50.34,119.9,50.36,119.88Zm.11.17h0a1.11,1.11,0,0,1,.27.13A1.69,1.69,0,0,1,50.47,120.05Zm.3.14h0s0,0,0,0,.07.06,0,0Zm0,.09s.11.06.15.09l.2.15c.14.08.21.09.38.2s0,0,.08,0l.29.15,1.32.1,1.16.55c-.06,0-.35-.13-.34-.05l-.85-.38-.52,0-.8-.09-.29-.17A3,3,0,0,1,50.74,120.28Zm1.64.81a.86.86,0,0,1,.13,0,2.43,2.43,0,0,1,.35,0l.25,0a4.19,4.19,0,0,1,.56.27c-.14-.08-.25-.08-.4-.16l-.18,0a.85.85,0,0,1-.24,0l-.43,0-.32-.06-.33,0a1.52,1.52,0,0,1-.29-.18s.11,0,.31.12l.36,0Zm-.46-.39h.19S52,120.71,51.92,120.7Zm3.53,1,.87-.3,0,0c.26-.2.43-.3.76-.57l.09-.09.28-.11a3.48,3.48,0,0,0,.55-.19l.24-.07a3.67,3.67,0,0,0,.23-.29,2.52,2.52,0,0,1-.2.34l-.13.06-.94.31c-.29.22-.54.42-.89.71-.3.09-.64.18-.91.24Zm4.25-2.29h.08c.27,0,.42,0,.56,0h0l.11-.19.1-.22a.31.31,0,0,1,.08-.12c0-.09.13-.26.17-.37h0s0,.1,0,0,0,0,0,0h-.08c-.09,0-.14,0-.16-.07a1.38,1.38,0,0,1,.28,0c-.09.2-.22.46-.31.61a3.13,3.13,0,0,1-.21.41h0l0,0,0,0c-.2,0-.4-.06-.64-.06C59.71,119.4,59.75,119.39,59.7,119.38Zm.83-1-.14,0a.32.32,0,0,1,.15,0C60.62,118.38,60.58,118.39,60.53,118.39Zm-.69-.93-.22-.3-.49-.24-.06,0-.68-.14-.25.11-.31.15a5.25,5.25,0,0,0-.54.23,1,1,0,0,0-.26,0c-.37,0-.72.1-1.05.16l-1.34.21,1.06-.88,0,0,1-.77.06-.09a1.3,1.3,0,0,1,.17-.22h0l.07-.28.17-.53,0,0,.23-.22.11-.07.3-.26.24.45h0l-1,.24-.44-.21.45.17a.78.78,0,0,0,.19-.1l.72-.17h.05l-.17-.32-.35.33-.28.28v0l-.19.76-.1.15-.13.24-.33.24-.73.56-.59.45.73-.1.44-.07c.29,0,.56-.07.86-.11l.07,0a6.85,6.85,0,0,0,1-.34l.08,0h.29a1.83,1.83,0,0,1,.33,0l.13,0,.24.1.36.2a3.84,3.84,0,0,0,.22.32c-.06,0-.09,0-.16,0S59.86,117.45,59.84,117.46Zm-3.31-2.77s0,0,0,0a2.3,2.3,0,0,0-.37-.16l-.24-.11-.11-.05-.16-.06,0,0,0,0,0,.35,0,.14-.32.81L55,116c-.29-.09-.62-.19-.82-.23l-.31-.1s0,.06,0,.09l-.05.15-.11.45-.1.14-.37.67-.12.32-.08.19a.36.36,0,0,1,0,.09.19.19,0,0,1,0-.07l.07-.19a2.46,2.46,0,0,0,.11-.32l0,0c.09-.14.19-.35.25-.47l.2-.34,0-.17c0-.18,0-.3.08-.46l0-.19h0c.19.06.27.1.61.19l.23.06.28.09.14-.32.06-.17.12-.25.13-.29.1-.66.2.11.17.09.22.11C56.26,114.54,56.37,114.62,56.53,114.69Zm-2.87,2s0,0,0,.08S53.66,116.62,53.66,116.65Z"/><path class="cls-9" d="M59,120.25l-.07.1a.58.58,0,0,0-.12.14l-.19.23-.13,0,.12,0,.63-.75A1.94,1.94,0,0,1,59,120.25Z"/><path class="cls-9" d="M59.27,119.88s0,0,0,.06,0,0,0-.07S59.25,119.88,59.27,119.88Z"/><path class="cls-9" d="M52.66,117.1c0,.12-.15.39-.24.64C52.5,117.5,52.6,117.27,52.66,117.1Z"/><polygon class="cls-8" points="62.16 115.51 61.2 115.15 60.5 114.86 60.49 113.83 60.73 112.79 59.24 112.94 60.13 111.83 59.32 111.39 59.69 110.76 58.69 109.91 58.64 109.61 58.77 108.7 58.05 108.64 57.46 108.39 56.98 107.82 56.09 107.92 56.3 106.98 55.53 107.04 54.68 106.23 54.7 106.17 54.88 106.13 55.43 105.79 56.55 105.52 56.84 106.31 57.38 106.73 57.95 106.75 58.57 107.31 59.22 106.3 59.97 106.75 60.41 107.63 61.37 107.33 61.47 108.52 62.03 108.94 63.13 108.55 63.75 108.83 64 110.13 64.92 109.68 65.92 109.45 64.9 110.26 64.22 111.21 63.63 112.22 63.04 113.23 62.73 114.4 62.16 115.51"/><path class="cls-1" d="M62.65,115.77l.6-1.17.31-1.15,1.12-1.94.62-.86,1-.76,1.92-1.52-2.39.54-1.06.24-.33.16-.16-.86-1.1-.5-1,.37-.13-.1-.14-1.64-1.1.35-.16.06-.06,0,.13,0h0l-.3-.61-1.35-.81-.59.91v0h0l-.3-.28-.6,0-.27-.22-.41-1.1-1.69.41-.82.53-.2.13,0,.09s0,.09,0,.16l.06.16a1.21,1.21,0,0,0,.15.33l.38.36.62.58.38,0h-.12l-.22,1,1.38-.16.37.44.8.33.22,0-.06.41.09.59.8.68-.42.71.81.45.15.09-.23-.13L58,113.63l2-.2-.07.34v1.47l1.18.47L62,116l.39-1-.82-.31-.41-.17c-.1,0-.06,0-.07,0h0v-.6l.39-1.73-1.49.15.55,0-.32.4.79-1-.88-.49-.23-.13.23.13-.11.19,0,0,.09-.16.38-.63-1.21-1h0l.19-1.41-1.21-.11-.39-.16-.58-.7-.42,0,.2-.91-1.26.1-.14-.13,0,0,.55-.13.17.47.81.63.55,0,1,.87.72-1.12.14.09.59,1.17L61,108l-.15,0,.06.75,1,.75,1.16-.42.16.07.32,1.73,1.53-.74.94-.22-.47-1-1.09.86-.74,1L62.52,113l-.31,1.18-.55,1Z"/><path class="cls-9" d="M62.26,115.56s0,0,0,0,0-.06.05,0Z"/><path class="cls-9" d="M63.71,113c0-.1.07-.09.12-.17a.41.41,0,0,0,.05-.11c.28-.44.52-.89.72-1.27h0v0s0,0,0,0l-.72,1.33C63.89,112.79,63.74,113.07,63.71,113Z"/><path class="cls-9" d="M64.59,109.24s-.11.05-.11,0Z"/><path class="cls-9" d="M64.4,110.52a4.3,4.3,0,0,1-.57.27l-.23.13c0-.17-.09-.36-.14-.65a.41.41,0,0,1,0-.12l.17.7A2.43,2.43,0,0,1,64.4,110.52Z"/><path class="cls-9" d="M61.83,108.26s0,0,0,0,0-.06,0-.07S61.82,108.26,61.83,108.26Z"/><path class="cls-9" d="M60.49,106.81s0,0-.05-.06S60.46,106.75,60.49,106.81Z"/><path class="cls-9" d="M57.44,106.41s-.09,0-.13-.11l-.23-.17-.16-.45-.21-.48h0l-1.35.34-.59.38-.22.14s-.05,0-.07.06a.11.11,0,0,0,0,.12,2.13,2.13,0,0,0,.29.4.67.67,0,0,1-.21-.2c0-.09-.14-.17-.15-.29s.07-.09.23-.2l.35-.22.19-.14.16-.1,1.44-.37c.16.39.36.94.36,1l.06.06.28.2,0,0S57.45,106.41,57.44,106.41Z"/><path class="cls-9" d="M54.72,106.05c-.06.06-.19.08-.19.1s.09.17.14.28a2.18,2.18,0,0,0,.37.4l.42.41.57,0-.17.7c0,.06,0,0,0-.06,0-.23.08-.39.12-.58a.33.33,0,0,1-.1,0l-.09,0-.34,0-.75-.76-.17-.28c-.06,0,0-.16,0-.16l.16-.09S54.74,106,54.72,106.05Z"/><path class="cls-9" d="M56.11,107.21h0l-.12.57s0-.13,0-.17A3.64,3.64,0,0,1,56.11,107.21Z"/><path class="cls-9" d="M55.83,108s0,.1,0,.18h.08l-.1,0C55.79,108.14,55.82,108.06,55.83,108Z"/><path class="cls-9" d="M58.79,110.34a.45.45,0,0,1,.23.16c.2.13.27.2.41.3l0,.06s0,.07-.06.09,0,0,0,0l-.3.53s0,0,0,0l0,0,.07,0-.07,0c0-.08.13-.21.08-.12l.08-.14c-.09.14,0,0-.14.19,0,0,.07-.12.06-.12l.09-.11.1-.18s0-.06,0,0a.61.61,0,0,1,.09-.12.19.19,0,0,0-.07-.06,1.15,1.15,0,0,0-.2-.14Z"/><path class="cls-9" d="M59.19,111.53c.07,0,.14.09.06.06S59.18,111.54,59.19,111.53Z"/><path class="cls-9" d="M59.45,111.66c-.05,0,0,0,0,0l.05,0-.09,0s.06,0,.06,0A0,0,0,0,1,59.45,111.66Z"/><path class="cls-9" d="M59.67,111.82c-.07-.06,0,0,.08,0S59.62,111.79,59.67,111.82Z"/><path class="cls-9" d="M59.82,111.9s0,0,0,.07S59.79,111.93,59.82,111.9Z"/><path class="cls-9" d="M60.12,113.23s0,0,0,0S60.11,113.25,60.12,113.23Z"/><path class="cls-9" d="M60,110.41l-.39-.34c-.08-.06-.16-.13-.24-.18l-.17-.16c-.06,0,0,0-.05-.06v-.06l.1-.78a5.21,5.21,0,0,0,.08-.55l-.34,0-.78-.09s-.47-.19-.43-.16l-.17-.19-.4-.44-.36,0-.17,0h0l-.05,0,0-.32.12-.56-1.08.07-.12-.13s0,0,0,0a.59.59,0,0,1-.14-.19,1,1,0,0,0,.21-.09h0a.93.93,0,0,1,.22-.06l.23-.07.11,0,0,0h.08l.19.39.05.13c.23.19.32.24.45.34l.28.21.56,0,.83.77.7-1.09.27.16.09,0,0,0s.1.21.16.34l.36.68.45-.15.37-.1h0c0,.09,0,.16,0,.2l.06.72.85.65.14,0c.39-.13.52-.15.75-.22l.25-.09.22.09s0,0,0,0l.07,0a1.43,1.43,0,0,1,.05.24l.14.55.16.7.61-.3.36-.21.29-.15.43-.11.53-.1-.23-.5a1.68,1.68,0,0,1-.26.16l-.41.32a.8.8,0,0,0-.14.09.59.59,0,0,1-.11.09l-.18.14c-.27.34-.49.65-.69,1l0,0a1,1,0,0,1-.11.17c-.34.63-.64,1.26-1.08,1.92h0c-.1.17-.16.3-.23.34s-.06.15-.08.18,0,0,0,0l-.09.26-.08.26s0,0,0,.06l0,.1c0,.12,0,.27.09.12.07.07.29-.14.05.38,0,.09,0,.19,0,.18s.15-.16.27-.34c0,0,0,0,0,0s.11-.22.13-.22a4.13,4.13,0,0,0-.18.44c-.06.2,0,.16,0,.31s0,.06-.07.13.06,0,0,.09a.91.91,0,0,0,.1-.16,1.67,1.67,0,0,0,.31-.42l.18-.33.2-.63.15-.51h0s.09-.11.13-.2,0,0,.08-.07,0,0,0,0a1.81,1.81,0,0,1,.18-.31c.06-.15.21-.4.3-.59a1.24,1.24,0,0,0,.2-.29s0,0,0-.07c.09-.18.2-.35.26-.45s.22-.28.34-.46.18-.24.3-.4h0a1.58,1.58,0,0,0,.2-.12l.26-.2c.18-.13.36-.28.54-.43l1.67-1.4-2.07.57-.39.11a3.18,3.18,0,0,0-.67.12h0c-.25.11-.35.15-.33.13s0,0,0,0v0h0s0,0,0,0,0,0,0-.16l-.12-.7-.24-.11-.28-.11-.13,0-.38-.13h0a3,3,0,0,0-.42.17,1.34,1.34,0,0,1-.26.09s0,0-.08.05l-.07,0s0,0,0,0l.28-.12.09,0,.45-.19.41.16.42.17.19.08.12.66,0,.16s0,0,0,0a0,0,0,0,0,0,0s0,0,0,.06h0s0,0,0,0h0s0,0,.16-.07a.68.68,0,0,0,.19-.08.94.94,0,0,1,.3,0c-.07,0-.13,0-.27.06l.16,0-.17.06a3.79,3.79,0,0,0-.35.27,1.26,1.26,0,0,0-.23.13v0l0-.29-.14-.76-.88-.39-.89.34-.17,0-.12-.08a1.67,1.67,0,0,0-.13-.12l-.08-.07a6.28,6.28,0,0,1-.08-.82,3,3,0,0,1-.07-.57l-.33.08a.62.62,0,0,1-.24.1l-.32.09s.09,0,0,0a.16.16,0,0,0-.06,0c-.11,0,.08,0,0,0l-.08,0,.05,0s.06,0,0,0-.08,0,0,0,0,0,0,0a.14.14,0,0,0,.1,0,1.05,1.05,0,0,1,.21-.06l-.19.07.52-.18h0l-.61.17c-.13,0,.09,0,0,0l-.06,0-.09-.17-.27-.53-.82-.49c-.06-.05-.19-.12-.3-.2h0a3,3,0,0,0-.37.67c.11-.18.24-.37.38-.61l.67.41c.12.08.14.11.16.15l-.38-.22-.43-.27-.33.52-.09.15c-.09.15-.14.19-.19.28h0l-.45-.42-.41,0c-.11,0-.12,0-.17,0a5.11,5.11,0,0,0,.57,0l0,0,.43.43v0a1.64,1.64,0,0,0,.19-.25l.43-.67.43.27a1.08,1.08,0,0,0,.23.16s0,.06.16.14,0,0,0,0l.09.07s0,.06,0,.07l0,0-.12-.08a.59.59,0,0,0,.11.09s0,.06,0,.07l0-.06-.85-.46-.25.39-.13.12c0,.06.09-.08.12-.09a4.16,4.16,0,0,0-.22.4s0,0-.06.06l-.1.15-.59-.51h-.58l-.53-.42-.14-.33s0,0,0-.08l-.15-.4a2.44,2.44,0,0,1-.66.1,1.19,1.19,0,0,1-.28,0l-.13,0-.11,0-.23.15-.41.22c-.11.08-.19,0-.2.14s.08.1.11.15a1.76,1.76,0,0,0,.37.32l-.07-.1a1.74,1.74,0,0,1-.22-.18l-.11-.11-.05-.06a.14.14,0,0,1,0-.07,1,1,0,0,0,.34-.16h0a3.82,3.82,0,0,1,.45-.27c.4-.08.71-.1,1.13-.2l.05.14c0,.19.07.33.1.48-.08-.24-.12-.26-.19-.46l0,0-.44.13-.56.13a5.11,5.11,0,0,1-.57.33,1.56,1.56,0,0,0,.31.32l.36.33.18,0a4.71,4.71,0,0,0,.61,0c.06,0,0,0,.11,0v0c-.08.35-.18.45-.25.71l0,.18,0,.11h.18l.68-.11.07.08.41.5.58.24a5.93,5.93,0,0,0,.76.08c0,.24-.07.5-.11.71l0,.26,0,.27a4.48,4.48,0,0,0,.53.41s0,0,.07.07.34.27.5.37l0,0-.08.12-.15.3a.34.34,0,0,0-.05.12,9.44,9.44,0,0,1,.9.45l-.52.65a5,5,0,0,0-.48.4l0,0c0,.05.2.09.61.07.26,0,.51-.11.76-.18V113a.66.66,0,0,0,0,.28l-.11.62,0,.44a3,3,0,0,1,0,.45l.47.24a5.76,5.76,0,0,0,.65.28s0,0,.08,0,.27.12.32.1a3.36,3.36,0,0,0-.56-.26,1.47,1.47,0,0,0-.3-.13c-.14-.06-.25-.15-.37-.2l-.07,0-.15-.09h0v-.19l0-.33v-.31l.11-.67a1.28,1.28,0,0,0,0-.42l0-.1a4.09,4.09,0,0,0-.48.13c-.25,0-.21,0-.44.06s-.32-.09-.28-.15.26-.18.29-.17l.15-.18.17-.2c-.09.14-.37.51-.28.39s0,0,0,0h0l1.17-.14,0,.21.06-.24-.25,0-1.06.11.22,0-.07.08c-.22.26.3-.44.59-.81l-.28-.16-.39-.22-.05,0,0,0-.18-.1h0l.07,0s0,0,0,0a.36.36,0,0,0,0,.09s0,0,.05-.07l.08-.12.32-.5a2.91,2.91,0,0,0-.33-.26S60,110.47,60,110.41Zm2.55,4.2s0,0,0,0,0,0,0-.06,0,.08,0,.09l.08-.12C62.56,114.65,62.48,114.7,62.52,114.61Zm.57-1.37s0,0,0,0a1.37,1.37,0,0,1-.07.34c0,.07-.07.19-.07.11s.1-.33.12-.46Zm.27-.6s0,0,0,0,.22-.36.3-.43Zm.44-.61s0,0,0,0,.06-.09.08-.09Zm0-.12c.14-.22.3-.46.44-.71l0,0c.15-.22.27-.44.41-.61-.11.2-.31.47-.4.65l0,0c-.12.2-.28.42-.35.58S63.76,111.93,63.75,111.91Zm.18-.09h0c.05-.09.13-.25.16-.24A1.88,1.88,0,0,1,63.93,111.82Zm.16-.25s0,0,0,0S64.15,111.48,64.09,111.57Zm.09,0s.06-.1.09-.14a1,1,0,0,1,.1-.14l0,0c.09-.12.1-.18.22-.34s0,0,0-.07l.35-.52c.3-.25.65-.53,1-.8l.42-.32-.53.1-.76.15s.33-.1.28-.16l.46-.11L67,109l-.88.68a7.58,7.58,0,0,0-.74.62l-.24.18-.36.47c-.11.15-.23.32-.32.42A.88.88,0,0,1,64.18,111.59Zm1-1.18a.28.28,0,0,1,.1-.06,2,2,0,0,1,.27-.19l.57-.46,1-.82-1.3.26-.19,0,.19-.06,1.38-.51-1.09,1.12a.73.73,0,0,1-.16.14,2.88,2.88,0,0,1-.68.62l-.11.06-.06,0a4.3,4.3,0,0,1-.28.37s.21-.37.27-.48Zm-.53.09a1.17,1.17,0,0,1,.11-.16S64.69,110.46,64.65,110.5Zm-.52-.34-.2.1-.17-.87-.07-.51-.28-.13-.29-.1h0a3.27,3.27,0,0,0-.47.18c-.19.06-.4.13-.61.22l0,0,.05,0a5,5,0,0,1,.46-.25l.65-.23.61.28c.07.42.15.87.21,1.37l.19-.08Zm-2.83-2.24s0,0,0,0a3.25,3.25,0,0,0,0-.37l-.1,0-.18,0a1.5,1.5,0,0,1-.39.12l-.23.08a2.12,2.12,0,0,0-.2-.37s.16.22.1,0,0,0-.09-.09-.11-.24-.1-.27a6,6,0,0,1,.33.59,4.26,4.26,0,0,1,.43-.12,2.07,2.07,0,0,1,.4-.13h0l.15,0a3.84,3.84,0,0,0,0,.48S61.29,107.88,61.3,107.92ZM60,107.05l0-.11s0,0,.07.09S60,107.07,60,107.05Zm-.71-.32-.56.9-.11.17-.8-.74h-.57l0,0a6.9,6.9,0,0,0-.68-.53l0-.05a2.86,2.86,0,0,0-.21-.51l-.08,0s-.51.12-.66.16l-.17.1a.37.37,0,0,1-.15,0c-.06,0,0,.06,0,.09s.06.1.11.15l.15.14s0,0,0,.06l0,0h.19l.82-.07-.14.68c0-.17,0-.37,0-.37l.05-.21-.68,0H55.6l-.09-.09-.22-.19-.22-.21s-.11-.07-.06-.12.1,0,.14,0a2.91,2.91,0,0,1,.36-.22h.06l.51-.13.35-.08.06.11a3.25,3.25,0,0,0,.21.55l.21.16a3.6,3.6,0,0,0,.39.38l.52,0h0l.1.07.2.14c.12.09.23.15.34.24l.1.1.19-.32.26-.38a1.7,1.7,0,0,0,.18-.28,1.68,1.68,0,0,1,0,.2S59.29,106.7,59.3,106.73Zm-2.83.79s0,0,0,0l0,.07a.3.3,0,0,0,.1,0l.09,0,.46-.06.38.43.1.16,0,.06.42.18.06,0,.86.06.15,0a9.22,9.22,0,0,0-.13,1,1.92,1.92,0,0,1-.05.24v.14l.09.06c.07.08.18.17.29.27l.43.38.29.23c-.16.3-.44.81-.29.57l-.07,0,.07,0,.1.06h0l.05,0-.05,0h0l-.18-.1,0,0s0,0,0,0h0l0-.09.11-.19.16-.33,0,0-.51-.41c-.14-.1-.22-.15-.43-.32l-.17-.14v0l0-.18a3.21,3.21,0,0,0,.08-.47l0-.22.08-.43-.17,0h-.17l-.28,0-.29,0-.5-.22c-.17-.19-.33-.39-.5-.6l0,0-.45,0-.09,0c-.05,0-.07,0-.11,0Zm3.6,3a.68.68,0,0,1,.12.11S60,110.52,60.07,110.53Z"/><path class="cls-9" d="M62.05,108.5h0a.83.83,0,0,1,.19-.06l-.19.07-.21-.16s.07,0,.13.09S62.05,108.49,62.05,108.5Z"/><path class="cls-9" d="M61.83,108.31h.05a.07.07,0,0,1-.06,0h0S61.82,108.32,61.83,108.31Z"/><path class="cls-9" d="M59,111.43l0,0,.68.35c-.25-.11-.3-.15-.68-.35Z"/><path class="cls-1" d="M47.91,106.72a1,1,0,0,1,.65-.1,1.21,1.21,0,0,1,.64.32,3.94,3.94,0,0,0,1,.64,3.46,3.46,0,0,0,1.74.27v-1.11a4.09,4.09,0,0,0-.43-.83,2.44,2.44,0,0,0-.44-.46,6.7,6.7,0,0,0-.89-.58l-.55,1a4.85,4.85,0,0,1,.73.46,1.78,1.78,0,0,1,.24.24h0a3.25,3.25,0,0,1-.7-.48,2.38,2.38,0,0,0-1.17-.56,2.27,2.27,0,0,0-1.33.22Z"/><path class="cls-9" d="M47.71,106.33s0,0,0,0h0Z"/><path class="cls-9" d="M48.24,106.53s0,0,0,0,0,0,0,0a.31.31,0,0,0,.19,0h0s0,0,0,0a.58.58,0,0,0-.18,0S48.24,106.58,48.24,106.53Z"/><path class="cls-9" d="M48.89,106.7s0,0,0,0S48.89,106.71,48.89,106.7Z"/><path class="cls-9" d="M49.49,105.81s.06,0,.06,0a.14.14,0,0,1,.1,0v0C49.59,105.92,49.45,105.89,49.49,105.81Z"/><path class="cls-9" d="M49.65,107.07s0,0,0,0,0,0,0,0Z"/><path class="cls-9" d="M50.11,107.41s0,0,0,0S50.12,107.42,50.11,107.41Z"/><path class="cls-9" d="M51.14,107.56s0,0,.06,0,.14,0,.2,0l.07,0,.16,0,.08-.09a.23.23,0,0,1,.1-.07s-.05.09-.09.12v0l0,.07a.94.94,0,0,1-.44,0h-.08l0,0S51.14,107.57,51.14,107.56Z"/><path class="cls-9" d="M51.66,107.4s0,0,0,0,0,0,0,0a.47.47,0,0,0,.15-.06.18.18,0,0,1-.12,0h0a.16.16,0,0,0,.09,0s-.07.05-.1.06l-.1,0Z"/><path class="cls-9" d="M51.8,107.29h0l-.08,0,0,0Z"/><path class="cls-9" d="M51.77,107.28l0,0Z"/><path class="cls-9" d="M51.47,106.42s-.07,0-.06-.06-.07-.11-.13-.16,0,0,0,0,0,0,0,0a1,1,0,0,0-.09-.1h0v0s0,0,0,0h0s0,0,0,0,0,0,0,0,0,0,0,0,.06.07.06.05,0,.08.06.09A1.86,1.86,0,0,1,51.47,106.42Z"/><path class="cls-9" d="M51.17,106.07s0,0,0,0S51.18,106.06,51.17,106.07Z"/><path class="cls-9" d="M51.14,106.05s0,0,0,0S51.15,106,51.14,106.05Z"/><path class="cls-9" d="M51.12,106s0,0,0,0S51.11,106,51.12,106Z"/><path class="cls-9" d="M51.06,105.93s0,0,0,0Z"/><path class="cls-9" d="M50.79,105.46a0,0,0,0,1,0,0S50.8,105.45,50.79,105.46Z"/><path class="cls-9" d="M50.71,106.5s0,0,0,0,0,0,0,0h0s0,0,0,0,0,0,.07.07l.07,0h0l.13.08c.06,0,.1,0,0,0l0,0-.21-.1s0,0,0,0h0s0,0,0,0,0,0,0,0,0,0,0,0a.91.91,0,0,1-.21,0h0a.26.26,0,0,0-.17-.07s-.06,0-.09-.08,0-.06-.07-.06-.13-.08-.18-.16l-.06-.11s-.08-.06-.14-.09a0,0,0,0,1,0,0s-.09,0-.11-.08a.54.54,0,0,1-.27-.09c-.07,0-.16,0-.23-.06a.64.64,0,0,1-.16-.11.18.18,0,0,0-.1,0s0,0,0,0h0a.39.39,0,0,0-.28,0s0,0,0,0a1.89,1.89,0,0,1-.47.06c0-.05-.09-.07-.11-.12l0,0s0,0,0,0a.26.26,0,0,0-.21,0s0,.1,0,.13.12.17,0,.23a.17.17,0,0,0,0,.12s.06,0,.11.06,0,0,0,0,0,0,0,0,0,0-.06.06,0,.11,0,.15,0,0,0,0,0,0,0,0,0,0,0,0a.16.16,0,0,0,.1,0c.08,0,.15,0,.21,0s0,0,.05,0,0,0,0,0,0,0,0,0,0,0,0,0,.06,0,.09,0a.06.06,0,0,0,0,0s0,0,0,0,.09,0,.15,0,0,0,.06,0a.27.27,0,0,0,.22.09s0,0,.07.06,0,.09.09.09h0l.1.07s0,0,.07.06a.17.17,0,0,0,.12,0s.08,0,.09,0h0s0,0,0,0l0,0a.11.11,0,0,0-.06,0h0l-.17,0c-.05,0-.08-.07-.12-.07s0,0,0,0,0,0-.05,0h0s0,0-.06-.06,0,0,0-.06,0,0,0,0,0,0,0,0,.08-.06.13,0a.16.16,0,0,0,.09,0,1.67,1.67,0,0,0,.39.27.23.23,0,0,0,.09.08c0,.08.16.1.19.16s.1,0,.11.07,0,0,.06,0,0,0,0,0h0s0,0,0,0h0a.07.07,0,0,1,0,0s0,0,0,0,0,0,0,0h0l-.05,0h0a1,1,0,0,0,.47.26s0,0,.06,0,.11,0,.13,0l-.25-.09s0,0,0-.07.18.09.27.11h0l.16.06.3.07s.05,0,.07,0l-.15,0a1.42,1.42,0,0,0-.22-.07,3.17,3.17,0,0,0-.37-.15s0,0,0,0,0,0,0,0,0,0,0,0,0,0,0,0l0,0s0,0,0,0a1.11,1.11,0,0,1,.26.07s0,0,0,.05,0,0,0-.06.07,0,.09,0,0,0,0,0a.47.47,0,0,0,.19,0,2.5,2.5,0,0,0,.29,0s0,0,0,0a.45.45,0,0,1,.25.07h.07a0,0,0,0,1,0,0s0,0,.06,0,0,0,.07,0,0,0,.06,0,0,0,0,0h0l-.06,0s-.06,0-.07,0h0a.22.22,0,0,1-.16,0,1.44,1.44,0,0,0-.23-.07l-.15-.1s0,0,.07,0,0,0,.08,0a.32.32,0,0,0,.17,0c.11,0,.11,0,.16,0s0,0,0,0l-.05,0s.1.07.09.07l0,0,0,0a1,1,0,0,1-.15-.13.53.53,0,0,1-.08-.17s-.05-.11-.06-.16v0c-.06-.06-.05-.15-.13-.18s0,0,0,0,0,0-.09,0v0a.73.73,0,0,1-.29-.19c0-.06,0-.12,0-.19a.29.29,0,0,0,0-.2.57.57,0,0,0-.23,0s-.05,0-.06,0l-.19,0c-.12-.06-.13-.2-.25-.26v0s0,0-.06,0a.14.14,0,0,0,.07.1s0,0,0,0,0,.06,0,.08h0s0,0,0,0l.11.05c.1,0,.19.08.26,0s.08,0,.12,0,0,0,.07,0,0,.26,0,.38a.07.07,0,0,1,0,.05c-.12,0-.23-.22-.38-.23s0,0,0,0l.22.18s.12.05.16.1l.05.09h0s0,.06,0,.06Zm-2.93-.44h0s0,0,0,0h0S47.77,106.08,47.78,106.06Zm.31.06s0,0-.06,0,0,0,0,0S48.07,106.14,48.09,106.12Zm.11-.08v0s.08,0,.1,0Zm.14.06s0,0,0,0l0,0S48.35,106.1,48.34,106.1Zm0-.11a.45.45,0,0,0,.16,0c.05,0,.11,0,.14,0s-.11,0-.15,0-.09,0-.13,0S48.35,106,48.35,106Zm0,.11h0s0,0,0,0A0,0,0,0,1,48.38,106.1Zm.06,0v0S48.46,106.12,48.44,106.12Zm0,.09s0,0,0,0,0,0,0,0,0,0,.07,0,0,0,0,0a.56.56,0,0,1,.44.12s-.06,0-.08.06-.14-.07-.22,0l-.14,0C48.52,106.29,48.46,106.28,48.44,106.21Zm.24.15,0,0,0,0s.11,0,.12.06,0,0-.06,0-.08.06-.14,0l0,0s-.06,0-.07,0S48.65,106.4,48.68,106.36Zm0-.35s0,0,0,0S48.68,106,48.67,106Zm.63.21a.83.83,0,0,1,.16.09s0,.09.11.13l.07,0s0,0,.09,0,.05.07.09.07a.27.27,0,0,1-.13,0,2.3,2.3,0,0,1-.39-.37Zm.71.49s0,0,0,0,.06,0,.09.06,0,0,0,0,.06,0,.05,0,.06,0,.1,0-.06,0-.05,0,0,0,0,0a0,0,0,0,1,0,0,.25.25,0,0,1-.18-.08s0,0-.07-.05,0,0,0,0,0-.09-.08-.1S50,106.72,50,106.71Zm.34.22v0s0,0,0,0Zm.21-.12h.08s.08,0,.1,0,.06,0,0,0,0,0,0,0h0s0,0,.06,0l.08,0h0l.1.05s0,0,0,0l0,0s0,0,.07,0a.46.46,0,0,1-.14-.07l.24.15s.07,0,.08,0a.16.16,0,0,0-.07,0s0,0,0,0h-.14s0,0-.09,0h0s-.11,0-.11,0-.06,0-.09,0-.13-.13-.16-.12,0,.09-.06.1,0,0,0,0-.06-.06-.1-.06l0-.11S50.55,106.83,50.56,106.81Zm.55,0-.06,0-.06,0-.07,0,0,0h0a.08.08,0,0,0,0,0,.13.13,0,0,0,0,0s0,0,0,0l0,0s0,0,0,0,0,0,0-.07-.09,0-.13-.11.06.06.09,0,0,0,.06,0l0,0a.13.13,0,0,1,.06,0v0s0,0,0,.07h0s0,0,0,0h0s0,0,0,0a.51.51,0,0,0,0,.12h0s0,0,0,0l0,0Zm-.37-.37Z"/><path class="cls-9" d="M49.54,107s0,0,0,0-.07,0-.06,0l.14.1S49.54,107,49.54,107Z"/><path class="cls-9" d="M49.63,107.05h0s0,0,0,0Z"/><path class="cls-9" d="M51.22,106.06s-.06-.06-.09-.07S51.19,106,51.22,106.06Z"/><path class="cls-1" d="M60.68,116.86a.62.62,0,0,0,.26.47.65.65,0,0,0,.35.11.58.58,0,0,0,.36-.09.62.62,0,0,0,.3-.44l0-.53-.49-.09a1.23,1.23,0,0,1-.71-.69c-.19-.37-.32-.86-.6-1.39a2.78,2.78,0,0,0-.56-.74,1.84,1.84,0,0,0-.43-.3c-.16-.08-.25-.1-.37-.15l-.31-.12s-.06-.05-.05,0h0L58,112.1a.92.92,0,0,0-.45,1.28,1.14,1.14,0,0,0,.47.48,2.35,2.35,0,0,0,.4.17c.1,0,.26.09.33.13a.68.68,0,0,1,.18.13,1.61,1.61,0,0,1,.34.45c.2.36.33.85.59,1.37a2.28,2.28,0,0,0,1.47,1.27l0-.56s0,0,0,0,0,.06,0,0Z"/><path class="cls-9" d="M61.12,116.83h0s0,0,0,0Z"/><path class="cls-9" d="M61.36,116.32s0,0,0,0h0a.31.31,0,0,0-.13-.06h0s0,0,0,0a.74.74,0,0,0,.14,0S61.38,116.28,61.36,116.32Z"/><path class="cls-9" d="M61,115.9s0,0,0,0A0,0,0,0,1,61,115.9Z"/><path class="cls-9" d="M60.05,116.46s0,0,0,0-.05,0-.07-.06,0,0,0,0S60.12,116.4,60.05,116.46Z"/><path class="cls-9" d="M60.51,115.4s0,0,0,0,0,0,0,0S60.5,115.4,60.51,115.4Z"/><path class="cls-9" d="M60.41,115s0,0,0,0S60.41,115,60.41,115Z"/><path class="cls-9" d="M60,114.48s0,0,0,0,0-.09-.07-.12,0,0-.05,0-.11-.15-.16-.22a.66.66,0,0,1-.08-.13c.07,0,.1.08.13.13l0,0c.08.13.2.19.2.33s0,0,0,.06h0Z"/><path class="cls-9" d="M59.65,114.09s0,0,0,0,0,0,0,0a1.42,1.42,0,0,0-.24-.34s0,0,0,0,.09,0,.12.11.08.13.11.19l0,.11Z"/><path class="cls-9" d="M59.39,113.81h0l-.08-.07s0,0,.05,0A.13.13,0,0,1,59.39,113.81Z"/><path class="cls-9" d="M59.37,113.65s0,0,0,0S59.35,113.65,59.37,113.65Z"/><path class="cls-9" d="M58.67,113.27s-.05,0-.06,0-.07,0-.12,0,0,0,0,0,0,0,0,0l-.08,0h0s0,0,0,0h0s0,0,0,0h0v0s0,0,0,0,0,0,.06,0S58.61,113.25,58.67,113.27Z"/><path class="cls-9" d="M58.38,113.24s0,0,0,0A0,0,0,0,1,58.38,113.24Z"/><path class="cls-9" d="M58.36,113.24s0,0,0,0S58.37,113.23,58.36,113.24Z"/><path class="cls-9" d="M58.34,113.19s0,0,0,0Z"/><path class="cls-9" d="M58.3,113.18h0S58.29,113.17,58.3,113.18Z"/><path class="cls-9" d="M58.31,112.92s0,0,0,0Z"/><path class="cls-9" d="M58.26,113.86a.1.1,0,0,0,.09,0,.37.37,0,0,0,.2.09s.05,0,.07,0,.15.06.27.07H59a.44.44,0,0,1,.14.16s0,0,0,0a1.18,1.18,0,0,0,.07.2s0,0,0,.05l.06,0a.22.22,0,0,0,.11.12s0,0,0,.06a4,4,0,0,1,.21.46s0,0,0,0a.29.29,0,0,0,.09.16s0,.07,0,.12,0,.07,0,.08a1.23,1.23,0,0,1,.08.23.37.37,0,0,0,0,.11.54.54,0,0,0,.07.13h0s.06.06.06.1.14.06.19.16.1.09.15.12a.42.42,0,0,1,.06.14.42.42,0,0,0,.06.08,0,0,0,0,0,0,0h0a.32.32,0,0,0,.18.16s0,0,0,0a1.84,1.84,0,0,1,.38.17c0,.06,0,.1,0,.16s0,0,0,0v0a.36.36,0,0,0,.09.05l0-.55h0v0s0,0,0,0,0,.07.05.08,0,0,0,0,0,0,.07,0-.06.06-.12.07-.06.11-.15.11l-.07,0c-.05,0,0,.06-.08,0s.05.09.1.12a.34.34,0,0,0,.35.11.48.48,0,0,0,.34-.37l0-.19-.34-.27s0-.06-.09-.06,0,0,0,0,0,0,0,0a0,0,0,0,0,0,0,0,0,0,0,1,0,0s0,0-.07,0,0,0,0,0l0,0c-.06,0,0-.06-.1-.07l0,0A.19.19,0,0,0,61,116s0,0,0-.08,0-.1,0-.11h0a.47.47,0,0,0-.06-.09s0,0,0-.07a.12.12,0,0,0-.09,0s-.07,0-.06-.06a0,0,0,0,1,0,0,0,0,0,0,1,0,0l0,0,0,0v0a.47.47,0,0,1,.12.07s0,.08.08.09,0,0,0,0,0,0,0,0l0,0s0,0,0,.07,0,0,0,.07,0,0,0,0a0,0,0,0,1,0,0s-.1,0-.13,0a.12.12,0,0,0-.07,0,1.08,1.08,0,0,0-.2-.34.13.13,0,0,0,0-.08c0-.06-.08-.12-.06-.17s0-.07,0-.09,0,0,0-.05,0,0,0,0h0s0,0,0,0,0,0,0,0h0s0,0,0,0h0s0,0,0,0,0,0,0,0l0,0h0a.77.77,0,0,0-.12-.35s0,0,0,0,0,0-.08,0a1.47,1.47,0,0,0,.06.14.05.05,0,0,1,0,0s0-.12-.06-.16l0,0a.16.16,0,0,1,0-.09c0-.07,0-.12-.07-.18s0,0,0,0a.94.94,0,0,0,0,.09.65.65,0,0,0,0,.13c0,.09,0,.14.07.24s0,0,0,0,0,0,0,0,0,0,0,0,0,0,0,0v0s0,0,0,0S60,115,60,114.9l0,0s0,0,0,0,0,0-.06-.05,0,0,0,0a.31.31,0,0,0-.08-.15c-.05-.07-.06-.14-.12-.22s0,0,0,0-.08-.11,0-.17,0,0,0,0h0s0,0,0,0,0,0,0-.07,0,0-.05,0,0,0-.08,0v0s.08,0,.1,0,0,0,0,.06h0c.08.09,0,.2.08.28a.17.17,0,0,1,0,.1s0,0,0-.06-.12-.18-.2-.24a.34.34,0,0,0-.14-.15s0,0,0-.07,0,0,0,0,0-.09,0-.12,0,0,0,0,0,0,0,0-.08,0-.11,0l-.16-.1s-.14,0-.19-.1-.13-.06-.2,0,0,0,0,0-.07,0-.11,0h0a.44.44,0,0,1-.37-.12.67.67,0,0,1,0-.2.61.61,0,0,0,.05-.18,1.51,1.51,0,0,0-.17-.1s0,0-.06,0a.45.45,0,0,1,0-.2c.06-.15.25-.16.37-.19h0s.07,0,0,0a.14.14,0,0,0-.14,0s-.05,0-.07,0a.42.42,0,0,0-.12,0,0,0,0,0,0,0,0s0,0-.07,0a.24.24,0,0,0-.07.13c0,.12,0,.25.08.26s.07,0,.1.06,0,0,0,.06a.49.49,0,0,0-.08.4.17.17,0,0,1,.06.06c-.17,0-.31-.37-.38-.54,0,0,0,0,0,.08a.85.85,0,0,0,.21.41,1.16,1.16,0,0,0,.24.14.45.45,0,0,0,.13.1s0,0,0,0,.06.1.12.08S58.26,113.85,58.26,113.86Zm3.06,2.94h0a0,0,0,0,0,0,0S61.32,116.8,61.32,116.8Zm-.07,0s.06,0,.07,0,0,0,0,0S61.28,116.74,61.25,116.75Zm-.12,0s0,0,0,0,0,0,0-.08S61.1,116.74,61.13,116.76Zm-.06-.11h0s0,0,0,0S61.06,116.64,61.07,116.65Zm-.07.08a.94.94,0,0,0-.1-.1s-.09,0-.11,0,.1,0,.14,0,0,.07.08.07S61,116.71,61,116.73Zm0-.11h0s0,0,0,0A.05.05,0,0,1,61,116.62Zm0,0h0A0,0,0,1,1,61,116.59Zm0-.08s0,0,0,0a.08.08,0,0,1,0,0s0,0-.06,0h0a.47.47,0,0,1-.27-.28s0,0,.1,0,.07.11.15.12,0,.07.08.1S61.08,116.44,61.05,116.51Zm-.09-.23s0,0,0,0,0,0,0,0-.09,0-.07-.09,0,0,0,0,.09,0,.12,0v0s0,0,0,0S61,116.26,61,116.28Zm-.18.3h0S60.78,116.57,60.78,116.58Zm-.39-.4a.6.6,0,0,1-.09-.13s0-.09,0-.14,0,0,0,0,0-.06-.05-.07,0-.07,0-.09.08,0,.12,0a1.43,1.43,0,0,1,.17.43Zm-.37-.66s0,0,0,0,0-.06,0-.09,0,0,0,0,0,0,0-.07,0,0-.05-.07.05,0,.07,0,0,0,0,0,0,0,0,0a.17.17,0,0,1,.07.15s0,0,0,.07h0s0,.08,0,.11Zm-.11-.33s0,0,0,0,0,0,0,0Zm-.25-.1a.57.57,0,0,0-.08-.13.75.75,0,0,0-.1-.2.1.1,0,0,0-.06-.09s-.06-.07-.09-.1-.08-.1-.1-.16,0,0,0,0a.05.05,0,0,0,0,0s0,0,0-.07,0,0,0,0v0s0,0,0,0a.73.73,0,0,0-.13-.09s.08,0,.12,0,.05,0,.07.06a.33.33,0,0,0,0,.06l0,0s0,.08.07.11.05,0,.05.09,0,.12.11.14,0,.07.07.11-.05.11,0,.16.11,0,.15.06,0,0,0,.06,0,.08,0,.12l-.12,0S59.68,115.08,59.66,115.09ZM59,114s0,0,0,0,0,0,0,0l-.11,0v0l-.07,0-.11,0s-.06-.06-.1,0-.08-.07-.11-.07-.08,0-.11-.07-.16,0-.26-.08.1.06.14,0,.07,0,.1,0h.17l0,0s.07.05.1.06h0s0,0,.05,0h0l0,0,.18.11s0,0,0,0h0S59,114,59,114Zm-.76-.21s0,0,0,0S58.27,113.82,58.26,113.83Z"/><path class="cls-9" d="M60.54,115.5h0s0,0,0,.06a.45.45,0,0,1-.06-.12S60.55,115.5,60.54,115.5Z"/><path class="cls-9" d="M60.52,115.42s0,0,0,0,0,0,0,0A0,0,0,0,0,60.52,115.42Z"/><path class="cls-9" d="M58.42,113.21s-.05,0-.07,0S58.39,113.21,58.42,113.21Z"/><path class="cls-1" d="M47.27,116.84a1.33,1.33,0,0,1,.89-.4,4.26,4.26,0,0,1,1.24.12,4,4,0,0,0,3.2-.23l-.65-.9a1.68,1.68,0,0,1-1,.24,6.65,6.65,0,0,1-1.3-.2,3.18,3.18,0,0,0-3.21.66Z"/><path class="cls-9" d="M46.94,116.56a0,0,0,0,1,0,0h0Z"/><path class="cls-9" d="M47.42,116.61s0,0,0,0,0,0,0,0a.18.18,0,0,0,.13-.09,0,0,0,0,0,0,0,.08.08,0,0,1,0,0,.57.57,0,0,0-.11.11S47.45,116.64,47.42,116.61Z"/><path class="cls-9" d="M48,116.45s0,0,0,0S48,116.46,48,116.45Z"/><path class="cls-9" d="M47.84,115.39s0,0,.06,0a.1.1,0,0,1,.07,0v0S47.86,115.48,47.84,115.39Z"/><path class="cls-9" d="M48.55,116.26s0,0,0,0,0,0,0,0A0,0,0,0,0,48.55,116.26Z"/><path class="cls-9" d="M48.89,116.34s0,0,0,0S48.9,116.35,48.89,116.34Z"/><path class="cls-9" d="M49.43,116.29s0,0,0,0,.08,0,.12,0h.05a1.6,1.6,0,0,1,.23,0,.34.34,0,0,1,.12,0c0,.06-.11,0-.16,0h0c-.12,0-.23,0-.32-.07h-.06Z"/><path class="cls-9" d="M49.9,116.25s0,0,0,0,0,0,0,0a2.09,2.09,0,0,0,.33.12s0,0,0,0-.09,0-.13,0-.12,0-.17-.07a.15.15,0,0,0-.09,0S49.89,116.26,49.9,116.25Z"/><path class="cls-9" d="M50.23,116.3v0s.05,0,.08,0l0,0S50.24,116.32,50.23,116.3Z"/><path class="cls-9" d="M50.31,116.41s0,0,0,0S50.32,116.41,50.31,116.41Z"/><path class="cls-9" d="M51,116.49s0,0,0,0,.07,0,.12,0,0,0,0,0,0,0,0,0l.08,0h0a0,0,0,0,0,0,0h0s0,0,0,0h0s0,0,0,0-.05,0,0,0-.05,0-.06,0S51.07,116.49,51,116.49Z"/><path class="cls-9" d="M51.28,116.41s0,0,0,0A0,0,0,0,0,51.28,116.41Z"/><path class="cls-9" d="M51.31,116.39s0,0,0,0S51.31,116.41,51.31,116.39Z"/><path class="cls-9" d="M51.36,116.42s0,0,0,0S51.37,116.42,51.36,116.42Z"/><path class="cls-9" d="M51.41,116.41l0,0S51.42,116.4,51.41,116.41Z"/><path class="cls-9" d="M51.84,116.5s0,0,0,0Z"/><path class="cls-9" d="M51.11,115.79s-.06,0-.08,0-.12,0-.17,0,0,0-.06,0a.36.36,0,0,0-.3,0h0l-.1,0a.46.46,0,0,1-.23,0s0,0,0,0a1.06,1.06,0,0,0-.2-.12s0,0-.06,0l-.07,0a.22.22,0,0,0-.16,0s0,0-.08,0-.35-.06-.51-.07h0a.27.27,0,0,0-.18,0s-.07,0-.11,0-.06,0-.08,0a.93.93,0,0,1-.23,0l-.1,0-.14,0h0s-.07,0-.11,0-.1.09-.2.09-.11.05-.16.09a.23.23,0,0,1-.14,0s0,0-.08,0h0s0,0,0,0a.27.27,0,0,0-.2.08s0,0,0,0-.18.18-.31.21-.09,0-.13-.08h-.05s0,0,0,0a.19.19,0,0,0-.14.09c0,.05,0,.1.09.11s.17.11.12.19a.19.19,0,0,0,.08.1l.1,0s0,0,0,0,0,0,0,0,0,0,0,.07.07.09.09.13h0l0,0s0,0,0,0a.15.15,0,0,0,.09,0s.12,0,.15-.06,0,0,0,0l0,0,0,0s0,0,0,0,0,0,0-.06h.05a.08.08,0,0,1,0,0s.08,0,.11,0a.07.07,0,0,0,.06,0,.19.19,0,0,0,.2,0s0,0,.07,0,.08,0,.12,0h0l.1,0s0,0,.07,0a.14.14,0,0,0,.06-.07s0,0,.06,0v0h0v0l0,0h0a.39.39,0,0,1-.1.08s-.08,0-.1,0a0,0,0,0,1,0,0s0,0,0,0,0,0,0,0,0,0-.07,0,0,0-.06,0,0,0,0,0h0s0-.1.06-.12a.15.15,0,0,0,.07,0,1.1,1.1,0,0,0,.35,0,.11.11,0,0,0,.08,0c0,.06.12,0,.15,0s.07,0,.09,0,0,0,0,0,0,0,0,0h0l0,0h0a0,0,0,0,1,0,0s0,0,0,0,0,0,0,0,0,0,0,0h0a0,0,0,0,1,0,0,.55.55,0,0,0,.31,0s0,0,0,0,.06,0,.07,0H49a.11.11,0,0,1,0-.06c.05,0,.1,0,.14,0h0a.24.24,0,0,1,.09,0l.15,0s0,0,0,0l-.08,0-.11,0c-.06,0-.12,0-.2-.06s0,0,0,0,0,0,0,0,0,0,0,0a.05.05,0,0,1,0,0h0s0,0,0,0,.13,0,.19,0a.43.43,0,0,0,0,0s0,0,0,0l.07,0s0,0,0,0a.43.43,0,0,0,.16,0,1.24,1.24,0,0,0,.22,0s0,0,0,0,.12,0,.14.08,0,0,0,0h0s0,0,0,0l0,0a.06.06,0,0,0,.07,0s.05,0,.07,0l0,0s-.05,0-.08,0,0,0,0,0h0c-.11,0-.13-.13-.23-.14l-.06-.08s0,0,.09,0,.19,0,.29,0,.13,0,.2,0,0,0,.06,0,0,0,0,0,0,.08.07.1h0l0,0s.07,0,.11,0l.18,0s.13,0,.19,0,.13,0,.17,0,0,0,0,0,.06,0,.07-.05h0a.52.52,0,0,1,.26-.12,1.27,1.27,0,0,0,.13.11.25.25,0,0,0,.14.11c.06,0,.07-.13.09-.18a.15.15,0,0,0,0-.06l.11-.1c.07,0,.18,0,.26,0s0,0,0,0,0,0,0,0a.09.09,0,0,0-.09,0s0,0,0,0l-.07,0h0l-.07,0c-.06,0-.12.08-.12.18s0,.07,0,.1,0,0,0,0-.16-.19-.25-.25a0,0,0,0,1,0,0c.06-.08.24,0,.29-.13s0,0,0,0l-.2,0s-.08.06-.13.06h-.1v0s-.08-.06-.12,0Zm-4.24.53h0s0,0,0,0,0,0,0,0h0S46.87,116.34,46.87,116.32Zm.25,0s0,.06,0,.07l0,0S47.12,116.31,47.12,116.28Zm.05-.1s0,0,0,0,.06,0,.09,0S47.2,116.16,47.17,116.18Zm.13,0s0,0,0,0h0Zm0-.1a.61.61,0,0,0,.13,0s0-.07.08-.07-.07.06-.08.1-.08,0-.09,0S47.26,116.11,47.25,116.09Zm.08.08h0s0,0,0,0Zm0,0a0,0,0,0,0,0,0S47.38,116.17,47.37,116.17Zm0,.08s0,0,0,0h0s0,0,0,0,0,0,0,0a.44.44,0,0,1,.34-.11s0,0,0,.1-.12,0-.16.07a.5.5,0,0,1-.12,0S47.46,116.31,47.41,116.25Zm.24,0h.06s.08,0,.11,0,0,0,0,0,0,.09-.08.09l-.05,0s0,0,0,0S47.64,116.33,47.65,116.28Zm-.18-.3s0,0,0,0S47.48,116,47.47,116Zm.48-.16a.7.7,0,0,1,.14,0,.32.32,0,0,0,.14,0s0,0,.05,0,.06,0,.08,0,.06,0,.09,0-.05.07-.07.1a1.18,1.18,0,0,1-.42,0Zm.69-.06a0,0,0,0,0,0,0s.06,0,.09,0,0,0,0,0,0,0,.06,0,0,0,.08,0,0,0,0,.06l0,0a0,0,0,0,1,0,0,.14.14,0,0,1-.15,0s0,0-.07,0,0,0,0,0-.06,0-.1,0S48.65,115.76,48.64,115.76Zm.32,0,0,0,0,0S49,115.83,49,115.81Zm.21-.17h.15a.83.83,0,0,0,.22,0s.08,0,.1,0a.38.38,0,0,0,.15,0,1.77,1.77,0,0,1,.2,0l0,0h0l0,0s0,0,0,0l0,0s0,0,0,0h.16s-.06,0-.08.08a.15.15,0,0,1-.09,0l-.07,0h0l-.12,0s-.08,0-.1,0-.12,0-.18,0-.08,0-.12,0-.06-.1-.12-.1-.09.07-.13.09,0,0-.06,0-.06,0-.11,0l0-.11S49.17,115.66,49.17,115.64Zm1.23.26a0,0,0,0,0,0,0s0,0,.05,0a.53.53,0,0,0,.13,0l0,0h.09a.27.27,0,0,0,.09,0s.07,0,.09,0,.08,0,.11,0,.07,0,.11,0,.11-.08.18,0-.06,0-.08,0-.05,0-.07,0l-.06,0s0,0-.07,0h0s-.07,0-.1,0h0l-.06,0h0l0,0a1.33,1.33,0,0,0-.21,0l0,0h0S50.43,115.89,50.4,115.9Zm.72-.08h0S51.12,115.84,51.12,115.82Z"/><path class="cls-9" d="M48.46,116.24h0s0,0,0,0h.11S48.46,116.25,48.46,116.24Z"/><path class="cls-9" d="M48.53,116.26s0,0,0,0,0,0,0,0S48.52,116.25,48.53,116.26Z"/><path class="cls-9" d="M51.27,116.46s.06,0,.08,0S51.3,116.44,51.27,116.46Z"/></g></g><path class="cls-10" d="M61.66,110.92a7.64,7.64,0,0,1-14.9,1.49,7.5,7.5,0,1,0,14.9-1.49Z"/></g></g></svg>