<svg xmlns="http://www.w3.org/2000/svg" xmlns:xlink="http://www.w3.org/1999/xlink" viewBox="0 0 108 120"><defs><style>.cls-1,.cls-3{fill:none;}.cls-2{isolation:isolate;}.cls-3{stroke:#98f900;stroke-miterlimit:10;stroke-width:2px;}.cls-4{fill:#98f900;}.cls-5{fill:url(#radial-gradient);}.cls-6{mix-blend-mode:color-burn;}.cls-7{clip-path:url(#clip-path);}.cls-8{fill:#603813;fill-rule:evenodd;}.cls-9{fill:#87352a;mix-blend-mode:multiply;}.cls-10{fill:#8bc53f;mix-blend-mode:hue;}</style><radialGradient id="radial-gradient" cx="362.63" cy="252.94" r="7.5" gradientTransform="translate(-267.79 -220.73)" gradientUnits="userSpaceOnUse"><stop offset="0" stop-color="#f05a28"/><stop offset="0.31" stop-color="#ee5728"/><stop offset="0.51" stop-color="#e64e29"/><stop offset="0.69" stop-color="#da3f2a"/><stop offset="0.85" stop-color="#c82a2c"/><stop offset="0.92" stop-color="#be1e2d"/><stop offset="1" stop-color="#ec1c24"/></radialGradient><clipPath id="clip-path"><circle class="cls-1" cx="94.84" cy="32.22" r="7.5" transform="translate(60.95 126.48) rotate(-88.99)"/></clipPath></defs><g class="cls-2"><g id="_3rdLawIcons" data-name="3rdLawIcons"><ellipse class="cls-3" cx="52.83" cy="60.73" rx="50.2" ry="57.68"/><path class="cls-4" d="M93.21,2.38h5.54a14.07,14.07,0,0,1,1.94.14,5.12,5.12,0,0,1,1.76.55,3.29,3.29,0,0,1,1.26,1.14,3.52,3.52,0,0,1,.48,2,3.11,3.11,0,0,1-.7,2.09,3.85,3.85,0,0,1-1.86,1.19v0a4.31,4.31,0,0,1,1.33.41,3.46,3.46,0,0,1,1,.78,3.14,3.14,0,0,1,.66,1.1,3.74,3.74,0,0,1,.23,1.34,3.56,3.56,0,0,1-.5,2,4,4,0,0,1-1.3,1.27,5.71,5.71,0,0,1-1.8.69,9.52,9.52,0,0,1-2,.21H93.21Zm3.27,6h2.38a3.06,3.06,0,0,0,.74-.09,2,2,0,0,0,.66-.27,1.47,1.47,0,0,0,.48-.51,1.6,1.6,0,0,0,.17-.75,1.42,1.42,0,0,0-.19-.77,1.46,1.46,0,0,0-.52-.47,2.58,2.58,0,0,0-.71-.24,4.26,4.26,0,0,0-.78-.07H96.48Zm0,6.15h2.94a3.37,3.37,0,0,0,.77-.09,1.89,1.89,0,0,0,.7-.29,1.72,1.72,0,0,0,.52-.55,1.57,1.57,0,0,0,.2-.81,1.33,1.33,0,0,0-.26-.85,1.67,1.67,0,0,0-.67-.5,3.29,3.29,0,0,0-.86-.23A6.55,6.55,0,0,0,99,11.1H96.48Z"/><circle class="cls-5" cx="94.84" cy="32.22" r="7.5" transform="translate(60.95 126.48) rotate(-88.99)"/><g class="cls-6"><g class="cls-7"><path class="cls-8" d="M99,38.48Z"/><path class="cls-8" d="M98.79,37.72s0,0,0,0,0,0,0,0a.44.44,0,0,0,0-.26s0,0,0,0l.06,0a1.69,1.69,0,0,0,0,.24S98.83,37.68,98.79,37.72Z"/><path class="cls-8" d="M98.91,36.73s0,0,0,0S98.94,36.72,98.91,36.73Z"/><path class="cls-8" d="M96.42,37.39s-.06-.08,0-.1a.3.3,0,0,1-.15-.12l.06,0C96.43,37.19,96.63,37.31,96.42,37.39Z"/><path class="cls-8" d="M98.46,35.81s0,0,0,0,0,0,0,0S98.44,35.81,98.46,35.81Z"/><path class="cls-8" d="M98.39,35.1s0,0,0,0S98.38,35.08,98.39,35.1Z"/><path class="cls-8" d="M97.58,34.17c0-.05,0,0,0-.06s-.1-.15-.15-.21a.6.6,0,0,0-.11-.06c-.13-.1-.23-.24-.36-.34a1.54,1.54,0,0,1-.19-.17c.13-.06.23.08.3.16h.06c.18.21.43.29.45.55,0,0,0,.05.08.08v0Z"/><path class="cls-8" d="M96.8,33.61s-.06,0,0-.06,0,0-.07,0a1.4,1.4,0,0,0-.51-.4s0,0,0,0,.17,0,.23.1.2.16.28.23a.27.27,0,0,0,.12.16Z"/><path class="cls-8" d="M96.27,33.3v0c-.06,0-.09-.06-.14-.06s0,0,.07,0S96.26,33.26,96.27,33.3Z"/><path class="cls-8" d="M96.18,33.07s-.07,0-.08,0S96.15,33.08,96.18,33.07Z"/><path class="cls-8" d="M94.92,32.85s0,.06-.08,0-.13,0-.2.06,0,0,0,0,0,0,0,0a.42.42,0,0,0-.12,0s0,0,0,0h0s0,0,0,0h0s0,0,0,0a0,0,0,0,0,0,0s0,0,0,0,.09,0,.07,0,.08,0,.1,0S94.82,32.86,94.92,32.85Z"/><path class="cls-8" d="M94.46,33s0,0,0,0S94.46,33,94.46,33Z"/><path class="cls-8" d="M94.42,33h0A0,0,0,0,1,94.42,33Z"/><path class="cls-8" d="M94.34,33s0,0,0,0S94.32,33,94.34,33Z"/><path class="cls-8" d="M94.25,33l0,0S94.23,33,94.25,33Z"/><path class="cls-8" d="M93.62,33h0S93.62,33,93.62,33Z"/><path class="cls-8" d="M94.72,33.67a.21.21,0,0,0,.13,0,.77.77,0,0,0,.27.11s.06,0,.09,0a.54.54,0,0,0,.42.11l0,0h.14c.1,0,.17.12.23.2s0,0,0,0,0,.22.07.29,0,0,0,0,.05,0,.08,0a.13.13,0,0,0,.12.12s0,0,0,.07a2.35,2.35,0,0,1,.12.64s0,0,0,.05a.2.2,0,0,0,0,.24c-.06.05,0,.11,0,.17s-.09.11,0,.13,0,.22,0,.36-.07.12-.09.18,0,.15.09.23h0c0,.06.11.11.09.18s.28.13.32.3.16.18.24.25a.46.46,0,0,1,0,.26.37.37,0,0,0,.07.14s0,0,0,0l.06,0c0,.11.16.23.29.29s0,0,0,0a4.1,4.1,0,0,1,.63.29c0,.06,0,.09,0,.15l.06,0s0,0,0,0a.52.52,0,0,0,.3,0s.1-.06,0-.08,0-.12.13-.12.06,0,0-.05l-.08-.07s0,0,0,0l0,0s.07,0,.11,0,0,0,.07,0l0,0s0,0,0,0l0,0s0-.08-.07-.13a.94.94,0,0,1-.12-.37.07.07,0,0,0,0-.08s0,0,0-.06,0,0,0,0,0,0,0-.06,0-.07-.06-.09a.3.3,0,0,0,0-.1l0,0c0-.06,0-.16,0-.21a.15.15,0,0,0,0-.11c.08-.13.12-.24,0-.31.1-.06,0-.08.06-.13s.14-.15.08-.19,0,0,0,0a.76.76,0,0,0,0-.15s0-.08,0-.12a.23.23,0,0,0-.18-.08s-.14-.05-.08-.1,0,0,0,0,0,0,0,0h-.07s0,0,.07.06,0,0,0,0a.87.87,0,0,1,.21.15c0,.06,0,.14.06.16l-.06,0s0,0,0,.07,0,0,.06,0,0,.08,0,.13,0,.07-.09.09,0,0,0,0,0,0,0,0-.2,0-.25,0a.09.09,0,0,0-.06-.1.8.8,0,0,0-.12-.59.12.12,0,0,0,0-.14c.15-.09-.08-.22,0-.29-.12,0-.09-.12,0-.16s-.06,0,0-.08,0,0,0,0,0,0,0,0a.13.13,0,0,1,.07,0s0,0,0,0h.06s0,0,0,.06,0,0,0,0,0,0,0,.06,0,0,0,0l.06.07s0,0,0,0c.07-.23-.06-.41-.17-.62a.1.1,0,0,0,0-.07s-.07-.1-.18-.09.08.13.12.25a.2.2,0,0,1-.11.08c-.07-.09,0-.21-.1-.29l0,0a.68.68,0,0,1,0-.17,1.69,1.69,0,0,0-.13-.31s0-.07,0-.07a.29.29,0,0,0,.07.16.71.71,0,0,0,.06.23c0,.16.07.24.09.4s0,0,0,.07-.08,0-.08.07,0,0,0,0a.14.14,0,0,1-.07.06,0,0,0,0,1,0,0c-.05,0,0,0-.1.07s-.17-.19-.18-.3.06,0,.07-.07,0,0-.09.07-.06-.08-.1-.09,0,0,0,0-.09-.16-.14-.23-.08-.23-.19-.33,0,0,0,0-.14-.16-.07-.27,0-.05,0-.08a.05.05,0,0,1,0,0s0,0,0-.07,0-.08,0-.11-.08,0-.11-.06-.09,0-.14,0v.05s.12,0,.17,0,0,.07,0,.08l0,0c.17.11,0,.32.16.43a.64.64,0,0,1-.06.18s-.07,0-.09-.09c-.17,0-.2-.23-.33-.3s-.17-.12-.25-.17,0-.07-.07-.1,0,0,0,0,0-.15,0-.2l0,0s0,0-.06,0-.13,0-.19,0l-.28-.1c-.07-.06-.2,0-.31-.09s-.21,0-.29,0,0,0,0,0-.1,0-.13.05h0a1.12,1.12,0,0,1-.47.1.93.93,0,0,0-.2-.1.36.36,0,0,0-.22-.08,1.29,1.29,0,0,0-.2.15s0,0-.05.05a.94.94,0,0,1-.24.06c-.17,0-.29,0-.46.06h0l-.08,0,.15,0a.12.12,0,0,0,.08,0h.21l.16,0c.13,0,.26,0,.29-.12s.06-.05.09-.08l.1,0c.13.06.22.15.37.22a.09.09,0,0,1,.09,0c-.14,0-.46,0-.62.06h.48a2.28,2.28,0,0,1,.26,0,.86.86,0,0,0,.17,0v0c.07,0,.13.1.2.07S94.71,33.65,94.72,33.67Zm4.07,4.83h0s0,0,0,0l0,0S98.82,38.5,98.79,38.5Zm-.27-.26c0-.05.09,0,.1,0s0,0,0,0S98.56,38.24,98.52,38.24Zm-.16,0,0,0s-.07-.08,0-.13S98.31,38.16,98.36,38.2ZM98.3,38s0,0,0,0,0,0,0,0S98.28,38,98.3,38Zm-.13.1a.71.71,0,0,0-.12-.18c0-.05-.13-.06-.15-.12s.14.09.21.09,0,.13.09.14S98.2,38.08,98.17,38.1Zm.1-.14h0s0,0,0-.07S98.26,37.93,98.27,38Zm0-.07h0S98.23,37.86,98.24,37.89Zm.11-.1s0,0,0,0,0,0,0-.07,0,0-.06-.06h0a.59.59,0,0,1-.2-.54c.1,0,.08,0,.22,0,0,.1,0,.2.11.24s0,.13,0,.21A.26.26,0,0,1,98.35,37.79Zm.08-.45s0,0,0,0,0,0,0-.07-.06-.12,0-.18.07,0,0,.05.16,0,.12.1a.25.25,0,0,0,0,.09s0,.06,0,.1S98.51,37.33,98.43,37.34Zm-.54.45s0,0,0,0S97.88,37.78,97.89,37.79ZM97.44,37c0-.08-.09-.14-.09-.23s.06-.14,0-.23-.06,0-.08-.08,0-.1-.07-.12,0-.12,0-.16a.78.78,0,0,1,.27.09c0,.25.13.46,0,.72Zm-.31-1.12s0,0,0,0,0-.1,0-.14,0,0,0-.07-.07-.07,0-.1,0-.09-.06-.12.1,0,.15,0h-.1s0-.06.07-.08a.19.19,0,0,1,.08.24s0,.07,0,.11,0,0,0,0-.11.13-.08.18Zm0-.53,0,0a.06.06,0,0,1,.06,0A.13.13,0,0,1,97.1,35.37Zm-.5-.16a1,1,0,0,0-.06-.18c0-.09,0-.21-.11-.27s0-.12-.05-.11-.08-.09-.12-.12-.1-.1-.11-.19,0-.06,0-.08l0,0a.22.22,0,0,0,0-.11l0,0s0,0,0,0,0,0,0-.07l-.2-.11a.2.2,0,0,0,.15-.09s.09,0,.12.08a.16.16,0,0,0,.07.07l.07,0c.06,0,.08.1.12.15s.09,0,.08.11.07.16.18.18.07.1.09.14-.12.19-.07.25.2,0,.26.08,0,0,0,.08,0,.13,0,.19a1.51,1.51,0,0,1-.26,0S96.65,35.2,96.6,35.21Zm-.8-1.37,0,0s0,0-.07,0l-.18,0,0,0a.52.52,0,0,0-.13-.06l-.14,0s-.1-.08-.14,0-.13-.07-.17-.06-.12,0-.18-.08-.19.06-.33,0c0,0,.12,0,.15,0a.18.18,0,0,0,.13,0h.1a.22.22,0,0,1,.12,0H95a1.38,1.38,0,0,1,.16.06h0s0,.05.08.06h0s0,0,0,0a2.22,2.22,0,0,0,.31.14s0,0,.05,0h0S95.76,33.84,95.8,33.84Zm-1.1-.21h0S94.71,33.61,94.7,33.63Z"/><path class="cls-8" d="M98.46,36l0,0s0,.06,0,.09a.65.65,0,0,1,0-.2S98.48,36,98.46,36Z"/><path class="cls-8" d="M98.47,35.84s0,0,0,0-.05,0-.09,0Z"/><path class="cls-8" d="M94.49,32.92s-.1,0-.14,0A.58.58,0,0,1,94.49,32.92Z"/><path class="cls-8" d="M100.61,38.62h0Z"/><path class="cls-8" d="M100.27,37.84s0,0,0-.06,0,0,0,0a.49.49,0,0,0-.13-.26,0,0,0,0,0,0,0l0,0c0,.08.08.18.13.26S100.3,37.8,100.27,37.84Z"/><path class="cls-8" d="M100,36.74s0,0,0-.05S100.05,36.72,100,36.74Z"/><path class="cls-8" d="M97.9,38.2s-.09-.06-.06-.09a.27.27,0,0,1-.17-.06l0,0C97.84,38,98.07,38.05,97.9,38.2Z"/><path class="cls-8" d="M99.37,36.12s0,0,0,0,0,0,0,0S99.35,36.13,99.37,36.12Z"/><path class="cls-8" d="M99.23,35.59h0S99.23,35.58,99.23,35.59Z"/><path class="cls-8" d="M98.57,34.9s0,0,0,0,0-.13-.07-.19l-.06-.07a1.18,1.18,0,0,1-.12-.36.36.36,0,0,1,0-.2c.13,0,.1.16.11.23a.05.05,0,0,0,0,0c0,.21.21.32.14.51,0,0,0,.05.05.07s0,0,0,0Z"/><path class="cls-8" d="M98.14,34.23s0,0,0-.06,0,0,0-.07a2.08,2.08,0,0,0,0-.55s0,0,0,0,.07.12.06.2,0,.2,0,.29a.2.2,0,0,0,0,.17Z"/><path class="cls-8" d="M98,33.71h0s0-.09,0-.13,0,0,.07,0S98,33.68,98,33.71Z"/><path class="cls-8" d="M98.14,33.53s0,0,0-.06S98.12,33.51,98.14,33.53Z"/><path class="cls-8" d="M98,32.44s-.07,0,0-.07,0-.11-.07-.18,0,0,0,0,0,0,0,0a.7.7,0,0,1,0-.12h0s0,0,0,0,0,.05,0,0,0,0,0,0,0,0,0,0,0,0,0,0,0,0,0,0,0,.09,0,.07,0,.07,0,.09S97.93,32.35,98,32.44Z"/><path class="cls-8" d="M97.8,32s0,0,0,0Z"/><path class="cls-8" d="M97.79,32s0,0,0,0S97.8,32,97.79,32Z"/><path class="cls-8" d="M97.81,31.91s0,0,0,0S97.8,31.9,97.81,31.91Z"/><path class="cls-8" d="M97.79,31.83s0,0,0,0Z"/><path class="cls-8" d="M97.84,31.24s0,0,0,0S97.85,31.24,97.84,31.24Z"/><path class="cls-8" d="M97.12,32.32a.21.21,0,0,0,0,.15.71.71,0,0,0,0,.35s0,.08,0,.12a.69.69,0,0,0,.07.56v0c0,.05.05.1.07.16a1.18,1.18,0,0,1,0,.42s0,0,0,0a1.31,1.31,0,0,0-.11.42s0,.06,0,.09a.47.47,0,0,1,.07.12.25.25,0,0,0,.09.25c0,.06,0,.09,0,.14,0,.25.07.61.12.88,0,0,0,0,.05.07a.3.3,0,0,0,.1.29c0,.06,0,.13,0,.2s-.06.14,0,.16.11.23.1.4a1.36,1.36,0,0,0,0,.21,1,1,0,0,0,.15.2h0c0,.06.14.07.14.15s.31,0,.4.18c.14,0,.21.11.31.14s.11.14.1.23a.25.25,0,0,0,.11.09s0,0,0,.06h.05c0,.1.2.16.33.18s0,0,0,0a2.25,2.25,0,0,1,.62.15c0,.06,0,.08,0,.13l0,0s0,0,0,0a.46.46,0,0,0,.27,0s.1-.06,0-.08,0-.12.13-.12,0,0,0,0,0,0-.08-.07,0,0,0,0-.05,0-.05,0,.07,0,.11,0,0,0,.07,0l0,0s0,0,0,0l0,0s0-.08-.07-.14a1.27,1.27,0,0,1-.17-.38.08.08,0,0,0,0-.08.14.14,0,0,0,0-.06s0,0,0,0,0,0,0-.06,0-.08-.09-.09a.2.2,0,0,0,0-.11l0,0c-.07,0,0-.18-.09-.22a.16.16,0,0,0,0-.12c0-.16,0-.29-.09-.34.07-.1,0-.09,0-.14s.08-.19,0-.21,0,0,0,0,0-.09,0-.13,0-.08,0-.11a.24.24,0,0,0-.19,0s-.15,0-.1-.06,0,0,0,0,0,0,0,0,0,0-.06,0,0,0,.08,0v0a.78.78,0,0,1,.24.05s0,.12.09.12l0,0s0,0,0,.07.06,0,.06,0,0,.09,0,.13,0,.08,0,.13,0-.05,0,0a.17.17,0,0,1,0,.05c-.08,0-.2.07-.26,0a.08.08,0,0,0-.09-.07.62.62,0,0,0-.28-.47c0-.06,0-.09,0-.12.12-.12-.13-.16-.06-.25C99,36.12,99,36,99,36s-.07,0,0-.06,0,0,0,0h0l.06,0s0,0,0,0h.07s0,0,0,0,0,0,0,0,0,0,0,0h0s0,0,0,.05,0,0,0,0c0-.2-.08-.31-.18-.47,0,0,0,0,0,0a.17.17,0,0,0-.17-.06c0,.06.07.1.1.19s0,.05-.1.07,0-.16-.09-.22l0,0a.25.25,0,0,1,0-.14c0-.09-.06-.17-.07-.26s0,0,0-.06a.17.17,0,0,0,0,.13.46.46,0,0,0,0,.2c0,.12,0,.19.06.33s0,0,0,.06-.08,0-.08.07,0,0,0,0l-.07,0s0,0,0,0,0,0-.09.07-.18-.16-.19-.27l.08-.06s0,0-.1.06,0-.07-.09-.09,0,0,0,0-.07-.16-.11-.24,0-.23-.09-.36,0,0,0,0-.06-.19,0-.26,0,0,0-.07l0,0s0,0,0-.08,0-.06,0-.09a.1.1,0,0,0,0-.1s0-.07-.1-.08l0,0s.1.06.11.11-.05.06,0,.09h0c.07.16-.13.28-.08.44a.75.75,0,0,1-.12.14c0-.06-.05-.07-.05-.13s-.08-.33-.14-.48a1,1,0,0,0-.06-.34s0-.07,0-.12,0,0,0,0,.11-.11.13-.17a.43.43,0,0,1,0,0s0-.06,0-.08-.06-.11-.07-.17V33c0-.09,0-.21,0-.33s0-.22-.06-.29,0,0,0,0,0-.11-.06-.13,0,0,0,0a.9.9,0,0,1-.09-.5,1.22,1.22,0,0,0,.12-.19.35.35,0,0,0,.1-.19.5.5,0,0,0-.11-.22.07.07,0,0,0,0-.06,2.09,2.09,0,0,1,0-.25c0-.18.07-.28.07-.45v0s0-.07,0-.07a1.06,1.06,0,0,0,0,.14s0,.05,0,.08l0,.1v0a.15.15,0,0,0,0,.08.86.86,0,0,0,0,.16c0,.13,0,.27,0,.31s0,.06.06.1,0,.05,0,.1-.18.2-.26.35a.13.13,0,0,1,0,.09c0-.16.06-.47,0-.65,0,0,0,.05,0,.07l-.06.43c0,.09,0,.18,0,.28s0,.11,0,.18,0,0,0,0-.09.16,0,.23S97.13,32.31,97.12,32.32Zm3.24,6.31h0s0,0,0,0l0,0S100.39,38.63,100.36,38.63Zm-.28-.24s.09,0,.1,0,0,0,0,.05S100.12,38.39,100.08,38.39Zm-.17,0,0,0s-.08-.06-.07-.12S99.86,38.34,99.91,38.38Zm-.09-.19s0,0,0,0,0,0,0-.05S99.81,38.19,99.82,38.19Zm-.1.13a.77.77,0,0,0-.15-.16s-.15,0-.17-.07.15,0,.22,0,.07.12.12.12S99.74,38.29,99.72,38.32Zm.06-.17v0s-.06,0,0-.06A.07.07,0,0,1,99.78,38.15Zm0-.06,0,0S99.73,38.07,99.74,38.09Zm.09-.12s0,0,0,0,0-.06,0-.08,0,0-.07,0,0,0,0,0a.66.66,0,0,1-.36-.47c.09,0,.09,0,.2-.08.08.08.08.2.2.21s0,.13.07.2A.23.23,0,0,1,99.83,38Zm0-.46s0,0,0,0,0-.05,0-.08-.11-.1-.06-.18.07,0,.07,0,.15,0,.16.08,0,.08,0,.1,0,.06,0,.11S99.86,37.47,99.78,37.51Zm-.4.58s0,0,0,0S99.37,38.08,99.38,38.09Zm-.65-.58a.93.93,0,0,1-.16-.18c0-.08,0-.15,0-.23s-.07,0-.1-.05,0-.11-.11-.1,0-.13-.08-.14a.87.87,0,0,1,.28,0c.09.22.26.39.24.67Zm-.63-1s0,0,0,0,0-.09-.07-.13,0-.05,0-.08-.08-.06,0-.1,0-.1-.08-.12.11,0,.15,0-.07,0-.1,0S98,36,98,36a.19.19,0,0,1,.11.22s0,.07,0,.12,0,0,0,0-.08.14,0,.19S98.1,36.51,98.1,36.52ZM98,36s0,0,0,0a.06.06,0,0,1,.06,0A.11.11,0,0,1,98,36Zm-.52-.17a1.82,1.82,0,0,0-.07-.25c0-.11,0-.27-.08-.38s0-.15,0-.17-.06-.17-.09-.24,0-.22,0-.35,0-.05,0-.08a.21.21,0,0,0,0-.08s0-.09.06-.13,0,0,0-.05,0,0,0,0,0-.07,0-.1,0-.17,0-.28c0,0,.08.09.17.09a.49.49,0,0,1,0,.17.47.47,0,0,0,0,.12.19.19,0,0,1,0,.08c0,.07,0,.15,0,.22s0,.11,0,.17,0,.22.08.29,0,.14,0,.2-.16.17-.12.27.2.09.25.14,0,.06,0,.09,0,.14,0,.21a1.38,1.38,0,0,1-.26,0S97.51,35.79,97.46,35.81Zm-.17-2.19h-.05s0-.07,0-.09,0-.15,0-.23l0,0,0-.17c0-.06,0-.12,0-.18s0-.13,0-.18.05-.15,0-.2,0-.14.05-.2a.62.62,0,0,1,0-.36s0,.13,0,.16a.26.26,0,0,0,0,.14l0,.11a.83.83,0,0,1,0,.12v.08c0,.06,0,.13,0,.18v0s0,.07,0,.1,0,0,0,0l0,0a2.55,2.55,0,0,0,0,.4s0,.05,0,.08,0,0,0,0S97.27,33.58,97.29,33.62Zm-.14-1.32s0,0,0,0A0,0,0,0,1,97.15,32.3Z"/><path class="cls-8" d="M99.4,36.26h0s.06,0,0,.08a.75.75,0,0,1-.09-.15S99.43,36.25,99.4,36.26Z"/><path class="cls-8" d="M99.39,36.14s0,0,0,0h-.09Z"/><path class="cls-8" d="M97.85,32.05s0-.09,0-.12S97.83,32,97.85,32.05Z"/><path class="cls-8" d="M92.36,24.7h0v0Z"/><path class="cls-8" d="M92.19,25.83s0,.05,0,.09,0,0,0,0a1.28,1.28,0,0,0,.17.52s0,0,0,0a.06.06,0,0,1-.07,0,3.75,3.75,0,0,1-.19-.53C92.17,26,92.13,25.85,92.19,25.83Z"/><path class="cls-8" d="M93,27.8s0,0,0,.07A.06.06,0,0,1,93,27.8Z"/><path class="cls-8" d="M94.68,25.85s.07,0,.06,0,.09,0,.14,0l0,.06C94.75,26,94.56,26,94.68,25.85Z"/><path class="cls-8" d="M94.81,28.49s0,0,0,0,.05,0,0,0S94.82,28.46,94.81,28.49Z"/><path class="cls-8" d="M95.71,28.76s0-.05,0-.05S95.73,28.76,95.71,28.76Z"/><path class="cls-8" d="M96.8,28.59s0,0,0,0,.13.06.18.08h.11a.83.83,0,0,1,.33.22.59.59,0,0,1,.15.17c-.13,0-.18-.09-.24-.15h-.05c-.16-.17-.37-.11-.46-.28,0,0,0,0-.09,0v0A.13.13,0,0,1,96.8,28.59Z"/><path class="cls-8" d="M97.62,28.83s.06,0,0,.07,0,0,0,.06c.06.18.23.36.3.58,0,0,0,0,0,0s-.12-.11-.14-.2-.11-.21-.16-.3a.21.21,0,0,0-.09-.16Z"/><path class="cls-8" d="M98,29.32h0s0,.11.09.15-.05,0-.08,0S98,29.37,98,29.32Z"/><path class="cls-8" d="M98,29.57s.05,0,.05.05S98,29.58,98,29.57Z"/><path class="cls-8" d="M98.41,30.83s.07,0,0,.07,0,.15.07.23,0,0,0,.05,0,0,0,0a.57.57,0,0,0,0,.15s0,0,0,0v0s0-.06,0,0,0,0,0,0,0,0,0,0,0,0,0,0,0,0,0,0,0-.11,0-.08,0-.1,0-.12S98.44,30.93,98.41,30.83Z"/><path class="cls-8" d="M98.56,31.34s0,0,0,0S98.55,31.34,98.56,31.34Z"/><path class="cls-8" d="M98.58,31.39s0,0,0,0S98.56,31.39,98.58,31.39Z"/><path class="cls-8" d="M98.55,31.49s0,0,0,.06S98.55,31.51,98.55,31.49Z"/><path class="cls-8" d="M98.56,31.59a.06.06,0,0,1,0,.05A.08.08,0,0,1,98.56,31.59Z"/><path class="cls-8" d="M98.43,32.33s0,0,0,0A0,0,0,0,1,98.43,32.33Z"/><path class="cls-8" d="M99.25,31a.35.35,0,0,0,0-.2,1.16,1.16,0,0,0,0-.49c0-.06,0-.12,0-.18a1.22,1.22,0,0,0-.26-.78l0-.05c0-.08-.11-.13-.15-.21a5.85,5.85,0,0,1-.27-.56s0,0,0,0a1.75,1.75,0,0,0-.27-.59s-.09-.06-.11-.12L98,27.7a.6.6,0,0,0-.39-.22.47.47,0,0,0-.2-.1,5.63,5.63,0,0,0-1.18-.48s-.06,0-.09,0a.45.45,0,0,0-.35-.07c0-.07-.12-.06-.18-.11s-.07-.13-.12-.08-.22,0-.3-.17-.06-.12-.09-.16-.12-.05-.19-.05l0,0s-.14,0-.17,0-.26.12-.38,0c-.12.06-.21,0-.31-.06s-.13-.12-.12-.2a.3.3,0,0,0-.1-.09s0,0,0-.05a0,0,0,0,1,0,0c0-.1-.16-.17-.28-.22s0,0,0-.05a1,1,0,0,1-.49-.38c0-.06,0-.1.06-.14s0,0,0,0,0,0,0,0a.91.91,0,0,0-.23-.16c-.06,0-.11,0-.09,0s-.07.11-.18,0,0,0-.07,0,0,.07,0,.14h0s0,.07,0,.08a.81.81,0,0,0-.06-.13c0-.06-.05,0-.07-.07V24.8s0,0,0,0a.15.15,0,0,0,0,.07,1,1,0,0,0,0,.19c0,.22-.06.38-.06.58,0,0,0,.09,0,.12s0,0,0,.06,0,0,0,0a.28.28,0,0,1,0,.13,1.89,1.89,0,0,0,.1.21.24.24,0,0,0,0,.15h.06c.09.13,0,.28.15.4a.49.49,0,0,0,0,.19.76.76,0,0,0,.35.59c0,.13.08.16.12.24s.1.3.23.34,0,0,0,0a3.16,3.16,0,0,0,.27.2c.07.05.11.13.18.16a.3.3,0,0,0,.27,0c.06,0,.19-.05.23,0s0,0,0,0,0,0,0,0,0,0,0-.07a.3.3,0,0,0-.13,0s0,0,0,0a.86.86,0,0,1-.39,0c-.12,0-.21-.16-.31-.16s0-.05,0-.07-.07-.07-.12-.1-.09,0-.12,0-.08-.14-.16-.22-.08-.13,0-.18,0,.08.06.06a.07.07,0,0,1,0-.06c.11,0,.22-.08.33,0a.24.24,0,0,0,.19.1,1.32,1.32,0,0,0,.88.48.23.23,0,0,0,.2.09c0,.19.35.06.41.17.07-.11.18,0,.21,0,0-.08.09,0,.12,0s0,0,0,0,0,0,0,0a.15.15,0,0,1,0,.08s0,0,.06,0a.09.09,0,0,1,0,.06s0,0-.06,0,0,0,0,0,0,0-.06-.06h0l-.1,0s0,0,0,0a1.13,1.13,0,0,0,.73.12s0,0,0,0,.11,0,.16-.11-.15,0-.28,0a.17.17,0,0,1,0-.13c.11,0,.21.06.31,0s0,0,0,0a.34.34,0,0,1,.16.05c.09,0,.2,0,.28.1s0,.05,0,0a.14.14,0,0,0-.13-.06.32.32,0,0,0-.19-.1c-.11-.11-.24-.07-.41-.13,0-.06,0-.05,0-.06s0-.09,0-.1,0,0,0,.05a.12.12,0,0,1,0-.09s0,0,0,0,0-.06,0-.12.29-.07.42,0,0,.07,0,.1,0-.07,0-.12.11,0,.16,0,0,0,0,0a1,1,0,0,0,.33.06c.16,0,.26.14.43.2,0,0,0,0,0,0s.22.13.18.26,0,.05,0,.08h0s0,.05.06.08,0,.08,0,.11a.14.14,0,0,0,.1.08s.09.05.14,0l0-.05c-.06,0-.14,0-.18-.06s0-.08,0-.1h0c-.17-.12-.1-.36-.3-.47a1.08,1.08,0,0,1,0-.21c.06.06.11,0,.17.08.24,0,.38.29.55.43s.2.24.29.38,0,.1,0,.16,0,0,0,0,0,.17,0,.25,0,0,0,.05,0,.08,0,.1.11.12.14.21a3.69,3.69,0,0,1,.1.39c0,.12.07.28.05.42s0,.29.09.39,0,0,0,0,0,.14.06.18a0,0,0,0,1,0,0,1.43,1.43,0,0,1,0,.66c0,.08-.1.15-.14.23a.55.55,0,0,0-.13.24,1.42,1.42,0,0,0,.06.3.21.21,0,0,0,0,.08,1.66,1.66,0,0,1,0,.32c0,.23-.13.35-.17.57v0s0,.08,0,.1a1.89,1.89,0,0,0,.06-.18.62.62,0,0,0,0-.1l0-.12v0l0-.1a1.94,1.94,0,0,0,0-.2c0-.17,0-.35,0-.41s0-.09,0-.14a.56.56,0,0,1,0-.13,4.18,4.18,0,0,0,.31-.42.24.24,0,0,1,0-.12c0,.22-.13.62-.13.85a.32.32,0,0,0,0-.09c0-.16.09-.35.12-.55s0-.24,0-.38a1.57,1.57,0,0,0,0-.23s0,0,0,0,.1-.2.06-.3S99.24,31,99.25,31Zm-6.72-6h0v0s0,0,0,0V25S92.51,24.93,92.53,25Zm.09.46c-.05,0-.08-.07-.09-.09s0-.07,0,0S92.58,25.39,92.62,25.42Zm.15.14h0c0,.05.06.11,0,.16A1.66,1.66,0,0,0,92.77,25.56Zm0,.26s0,0,0,0a.05.05,0,0,1,0,.05S92.82,25.84,92.8,25.82Zm.15-.07a.72.72,0,0,0,.12.23c.05.07.16.08.18.14S93.09,26,93,26s-.05-.15-.1-.18S92.92,25.77,93,25.75Zm-.12.13h0s.06.06,0,.09A.11.11,0,0,1,92.83,25.88Zm0,.1h0S92.88,26,92.87,26Zm-.12.09s0,0,0,.05,0,.07,0,.1.06,0,.09.09,0,0,0,0a3,3,0,0,1,.57.68c-.07.07-.12,0-.21.09-.15-.12-.19-.28-.35-.35a1.79,1.79,0,0,1-.15-.31A.32.32,0,0,1,92.75,26.07Zm.09.63s0,0,0,.06a.28.28,0,0,1,0,.12c0,.09.19.18.17.29,0-.06-.1,0-.12-.08s-.22,0-.27-.2,0-.1,0-.14-.08-.12-.05-.18S92.74,26.71,92.84,26.7Zm.43-.57s0,0,0,0S93.28,26.15,93.27,26.13Zm.82.63c.08,0,.18.06.25.13s.08.15.19.19.07,0,.13,0,.08.08.16,0,.09.1.17.06a.59.59,0,0,1-.24.17c-.27-.14-.56-.24-.68-.54Zm1.25.49s0,0,0,0,.12,0,.17,0,0,0,.07.06.11,0,.11.05.11,0,.17,0-.09.08-.06.14,0-.06.06-.08.07,0,.06.09a.29.29,0,0,1-.32,0c-.06,0-.09,0-.14,0s0,0,0,0-.1-.16-.17-.16S95.35,27.26,95.34,27.25Zm.64.22,0,0s0,0-.05,0A.1.1,0,0,1,96,27.47Zm.48-.35.34.08a5.54,5.54,0,0,0,.54.21c0,.05.16.15.24.13a3.24,3.24,0,0,0,.36.2c.11.13.29.22.37.4a.61.61,0,0,1,0,.13.86.86,0,0,1,.07.1,1.67,1.67,0,0,1,0,.18.43.43,0,0,0,0,.07s0,0,0,.06,0,.09,0,.13a2.44,2.44,0,0,1,.21.36c-.06,0-.12-.1-.21-.07a2,2,0,0,1-.11-.2.52.52,0,0,0-.07-.16.73.73,0,0,1-.09-.08c-.06-.08-.1-.19-.17-.27s-.14-.1-.16-.18-.21-.25-.36-.26-.18-.11-.26-.15a.35.35,0,0,0-.24-.3c-.12,0-.23.09-.33.11s-.08,0-.12,0-.14-.13-.25-.12a2.16,2.16,0,0,1,.1-.25S96.45,27.16,96.46,27.12Zm2.31,2.11s0,0,0,0,.05.09.08.11.1.19.14.31a.14.14,0,0,1,0,.07l0,.24a1.23,1.23,0,0,1,0,.25c0,.09,0,.18,0,.25a1.26,1.26,0,0,0,0,.27c0,.08,0,.19,0,.29a1.06,1.06,0,0,1,0,.47c0-.06,0-.17,0-.21a.5.5,0,0,0,0-.19c0-.05,0-.1,0-.15a.35.35,0,0,1,0-.17v-.1a2.09,2.09,0,0,0,0-.24s0,0,0-.05a.76.76,0,0,0,0-.15s0,0,0,0,0-.06,0-.08a2.4,2.4,0,0,0-.1-.54s0-.07,0-.11a.43.43,0,0,1,0-.07C98.79,29.33,98.81,29.27,98.77,29.23Zm.45,1.8s0,0,0,0S99.2,31,99.22,31Z"/><path class="cls-8" d="M94.56,28.37l-.06,0c0-.06-.14,0-.14-.09l.32.11S94.55,28.39,94.56,28.37Z"/><path class="cls-8" d="M94.76,28.47s0,0-.07,0,.06,0,.08-.06S94.76,28.44,94.76,28.47Z"/><path class="cls-8" d="M98.51,31.31s0,.12,0,.16S98.53,31.36,98.51,31.31Z"/><path class="cls-1" d="M92.49,25.64c.08,0,.4.17.85.5a2.84,2.84,0,0,0,.86.4,4.52,4.52,0,0,0,.8.16l2.87.46.22-1.42-2.87-.46a5.72,5.72,0,0,1-.62-.12,1.38,1.38,0,0,1-.46-.22c-.17-.11-.36-.27-.63-.43a2,2,0,0,0-1.08-.31Z"/><path class="cls-8" d="M92.46,25.08v0s0,0,0,0Z"/><path class="cls-8" d="M92.66,25.57v0s0,0,0,0a.14.14,0,0,0,.13,0s0,0,0,0a.11.11,0,0,1,0,.05c-.06,0-.1,0-.14,0S92.63,25.63,92.66,25.57Z"/><path class="cls-8" d="M93.14,26s0,0,0,0S93.13,26,93.14,26Z"/><path class="cls-8" d="M94,24.88s0,0,0,0,0,0,.07,0l0,0S93.93,25,94,24.88Z"/><path class="cls-8" d="M94,26.22s0,0,0,0,0,0,0,0Z"/><path class="cls-8" d="M94.4,26.43a0,0,0,0,1,0,0S94.41,26.44,94.4,26.43Z"/><path class="cls-8" d="M95,26.35s0,0,0,0,.09,0,.12,0l.06,0a1,1,0,0,1,.24,0l.12,0c0,.08-.11,0-.16,0h0c-.12,0-.23,0-.32-.05s0,0-.06,0h0S95,26.36,95,26.35Z"/><path class="cls-8" d="M95.5,26.26s0,0,0,0,0,0,0,0,.21.07.32.12,0,0,0,0-.09,0-.13,0-.12-.05-.18-.07a.09.09,0,0,0-.09-.05Z"/><path class="cls-8" d="M95.83,26.29v0s0,0,.08,0l0,0Z"/><path class="cls-8" d="M95.91,26.43s0,0,0,0S95.93,26.42,95.91,26.43Z"/><path class="cls-8" d="M96.59,26.57s0-.06,0,0,.08,0,.12,0,0,0,0,0,0,0,0,0,0,0,.07,0h0s0,0,0,0h0s0,0,0,0h0a0,0,0,0,1,0,0s0,0,0,0,0-.05-.06,0S96.64,26.57,96.59,26.57Z"/><path class="cls-8" d="M96.86,26.52s0,0,0,0S96.85,26.53,96.86,26.52Z"/><path class="cls-8" d="M96.88,26.51s0,0,0,0S96.88,26.52,96.88,26.51Z"/><path class="cls-8" d="M96.92,26.55s0,0,0,0Z"/><path class="cls-8" d="M97,26.55l0,0Z"/><path class="cls-8" d="M97.3,26.83s0,0,0,0S97.3,26.85,97.3,26.83Z"/><path class="cls-8" d="M96.84,25.69s-.06,0-.09,0-.13-.07-.2-.05,0,0-.07,0-.22,0-.34,0h0l-.11.05a.49.49,0,0,1-.24-.05s0,0,0,0a.92.92,0,0,0-.21-.13s0,0-.06,0a.11.11,0,0,1-.07,0,.17.17,0,0,0-.17,0s0,0-.08,0l-.47-.06h0a.16.16,0,0,0-.15,0s-.05,0-.07-.05,0-.06,0,0-.11,0-.14-.08l0-.09-.1,0v0s-.07,0-.08,0-.13,0-.19,0-.11,0-.17,0S93.6,25,93.61,25a.34.34,0,0,0-.06-.06s0,0,0,0,0,0,0,0a.22.22,0,0,0-.18-.12s0,0,0,0a.75.75,0,0,1-.38-.13,1.23,1.23,0,0,1,0-.2s0,0,0,0,0,0,0,0-.14-.09-.2-.06-.07.11,0,.17,0,.26-.09.28a.35.35,0,0,0,0,.16,1.33,1.33,0,0,0,.06.12s0,0,0,0,0,0,0,0-.05,0-.07,0,0,.14,0,.19h0s0,.05,0,.08,0,0,0,0a.24.24,0,0,0,0,.11s0,.09.09.08,0,0,0,0,0,0,0,.05,0,0,0,0h0s0,0,.07,0a.07.07,0,0,0,0,.05l0,0c.06,0,0,.07.11.06a.07.07,0,0,0,0,.05.18.18,0,0,0,.18.15c0,.06,0,.05,0,.08s0,.12.1.12h0s.08,0,.11.07,0,.05.08.06a.16.16,0,0,0,.13,0s.09,0,.1,0l0,0v0l0,0H93.5s-.09-.07-.14-.06v0s0,0-.05,0,0,0-.06,0,0-.05-.07-.08,0,0,0-.07,0,0,0,0a0,0,0,0,1,0,0c.05,0,.1-.07.15-.06a.11.11,0,0,0,.09,0,.74.74,0,0,0,.39.21.13.13,0,0,0,.09.05c0,.09.16,0,.18.1s.09,0,.11,0,0,0,0,0,0,0,0,0a0,0,0,0,0,0,0,.06.06,0,0,1,0,0h0a0,0,0,0,1,0,0s0,0,0,0,0,0,0,0,0,0,0,0h0s0,0,0,0a.59.59,0,0,0,.37.11l0,0s.07,0,.09-.06h-.15a.15.15,0,0,1,0-.08c.06,0,.12,0,.17,0h0c.05,0,.06,0,.09,0l.17,0s0,0,0,0a.09.09,0,0,0-.08,0,.31.31,0,0,0-.12-.05c-.07-.06-.13,0-.22-.08s0,0,0,0,0-.05,0-.06,0,0,0,0a.43.43,0,0,1,0-.05h0s0,0,0-.06.15,0,.21,0a.07.07,0,0,0,0,.05s0,0,0-.06.06,0,.08,0,0,0,0,0A.29.29,0,0,0,95,26a1.46,1.46,0,0,0,.22,0s0,0,0,0,.12,0,.14.09,0,0,0,0h0s0,0,0,0,0,0,.05.05a0,0,0,0,0,.06,0s.05,0,.07,0v0s-.06.05-.09.05,0-.05,0,0h0c-.11,0-.13-.15-.23-.15a.21.21,0,0,1-.06-.1s.05,0,.08,0,.21,0,.31,0,.13,0,.21,0,0,0,.06,0,0,0,0,0,0,.1.08.13h0l0,0s.08,0,.12,0l.18,0s.13,0,.19.06.13,0,.19,0,0,0,0,0,.06,0,.09,0,0,0,0,0,.2-.11.31-.07a1.63,1.63,0,0,0,.09.19c0,.07,0,.15.09.19s.12-.11.16-.17,0,0,0-.06l.15,0c.12,0,.16.16.26.16s0,0,0,0,0,0,0,0a.08.08,0,0,0-.07-.07s0,0-.05,0,0-.06,0-.08h0s0,0,0,0a.12.12,0,0,0-.1,0,.22.22,0,0,0-.22.13s0,.07-.08.09,0,0-.06,0a2,2,0,0,0-.14-.41s0,0-.05,0,.28.06.39,0,0,0,0,0l-.26-.05s-.11.05-.17,0-.06,0-.1,0,0,0,0,0-.07-.11-.12-.06S96.84,25.71,96.84,25.69Zm-4.23-.89v0h0s0,0,0,0l0,0S92.59,24.82,92.61,24.8Zm.18.22c0,.06-.05.05-.06,0s0,0,0,0S92.77,25,92.79,25Zm.12,0s0,0,0,0,0,0,0,.08S92.94,25,92.91,25Zm.06.13s0,0,0,0,0,0,0,0S93,25.11,93,25.11ZM93,25a.2.2,0,0,0,.09.09s.1,0,.11,0-.09,0-.14,0,0-.07-.08-.06S93,25,93,25Zm-.05.14h0s0,0,0,0S93,25.15,93,25.13Zm0,0,0,0S93,25.18,93,25.17Zm0,.1s0,0,0,0a.07.07,0,0,0,0,0s0,0,0,0l0,0a.42.42,0,0,1,.31.2c0,.05-.06,0-.1.08s-.1-.1-.18-.09,0-.06-.09-.09A.11.11,0,0,1,93,25.27Zm.1.25s0,0,0,0,0,0,0,0,.1,0,.09.09-.05,0-.06,0-.1,0-.14,0,0,0,0-.05,0,0,0-.05S93,25.55,93.07,25.52Zm.18-.41s0,0,0,0S93.26,25.12,93.25,25.11Zm.45.26s.08,0,.11.07,0,.07.09.1H94s0,0,.07,0,0,.05.08,0a.32.32,0,0,1-.12.08c-.12-.08-.25-.13-.3-.29Zm.57.28h0s0,0,.08,0,0,0,0,0,0,0,0,0,0,0,.07,0,0,0,0,.07l0,0s0,0,0,.05a.12.12,0,0,1-.15,0s0,0-.06,0,0,0,0,0,0-.08-.07-.08S94.28,25.65,94.27,25.65Zm.29.11s0,0,0,0,0,0,0,0A.06.06,0,0,1,94.56,25.76Zm.22-.22h.14a.77.77,0,0,0,.22,0,.07.07,0,0,0,.1,0,.26.26,0,0,0,.15,0c.06,0,.14,0,.2,0s0,0,0,.05h.05s0,.05.06.06h0v0s0,0,.06,0a1.09,1.09,0,0,1,.17,0,.17.17,0,0,0-.09.11.18.18,0,0,1-.1,0,.12.12,0,0,0-.07,0h0a.93.93,0,0,1-.13,0s-.07,0-.1,0-.12,0-.18,0-.09,0-.12,0-.06-.12-.13-.11-.09.09-.13.11,0,0-.06,0-.06-.06-.11,0a1.31,1.31,0,0,1,.05-.15S94.77,25.57,94.78,25.54Zm1.25.23s0,0,0,0,0,0,.06,0l.14,0,0,0,.1,0h.1s.07,0,.1,0,.08.06.12,0,.08,0,.11.07.14-.08.22,0-.08,0-.1,0-.07,0-.1,0h-.06a.24.24,0,0,1-.09,0h0l-.1,0h0s0,0,0,0h0s0,0,0,0a1.32,1.32,0,0,0-.23-.05l0,0h0S96.06,25.76,96,25.77Zm.81,0s0,0,0,0S96.84,25.75,96.84,25.73Z"/><path class="cls-8" d="M93.85,26.15h0s-.07,0-.06-.05l.14.07S93.85,26.16,93.85,26.15Z"/><path class="cls-8" d="M93.94,26.21h0s0,0,0,0S93.94,26.2,93.94,26.21Z"/><path class="cls-8" d="M96.83,26.57s.06,0,.09,0S96.86,26.56,96.83,26.57Z"/><path class="cls-8" d="M92.4,24.56Z"/><path class="cls-8" d="M92,25.14s0,0,0,0,0,0,0,0a.34.34,0,0,0-.1.23h-.09c0-.08.08-.16.1-.23S91.9,25.15,92,25.14Z"/><path class="cls-8" d="M91.42,26s0,0,0,0S91.39,26,91.42,26Z"/><path class="cls-8" d="M94,25.8s.05.05,0,.06a.3.3,0,0,1,.11.07h-.06C93.94,25.91,93.77,25.83,94,25.8Z"/><path class="cls-8" d="M91.75,26.74s0,0,0,0,0,0,0,0S91.78,26.74,91.75,26.74Z"/><path class="cls-8" d="M91.75,27.2s0,0,0,0S91.75,27.22,91.75,27.2Z"/><path class="cls-8" d="M92.31,27.81s0,0,0,0,0,.1.06.14,0,0,.06.05a.93.93,0,0,1,.12.27.28.28,0,0,1,0,.15c-.13,0-.11-.11-.13-.17l0,0c0-.15-.21-.23-.13-.38s0,0,0-.06h.08Z"/><path class="cls-8" d="M92.72,28.28s0,0,0,0,0,0,0,.05,0,.26.07.41a.08.08,0,0,1,0,0c0-.06-.09-.08-.08-.14s0-.16,0-.23a.1.1,0,0,0,0-.12Z"/><path class="cls-8" d="M92.89,28.64h0s0,.07,0,.09,0,0-.07,0S92.87,28.67,92.89,28.64Z"/><path class="cls-8" d="M92.79,28.81s0,0,0,0S92.81,28.82,92.79,28.81Z"/><path class="cls-8" d="M93.25,29.52s.07,0,.06,0,.08.05.13.08,0,0,0,0,0,0,0,0l.08.05h0s0,0,0,0h0s0,0,0,0,0,0,0,0v0s0,0,0,0,0-.06-.05-.05S93.3,29.57,93.25,29.52Z"/><path class="cls-8" d="M93.54,29.69s0,0,0,0S93.53,29.7,93.54,29.69Z"/><path class="cls-8" d="M93.57,29.7s0,0,0,0S93.56,29.71,93.57,29.7Z"/><path class="cls-8" d="M93.59,29.76s0,0,0,0S93.6,29.77,93.59,29.76Z"/><path class="cls-8" d="M93.64,29.79h0Z"/><path class="cls-8" d="M93.93,30.14a0,0,0,0,1,0,0S93.92,30.15,93.93,30.14Z"/><path class="cls-8" d="M94,29.12s0-.07,0-.08,0-.16,0-.2,0,0,0-.07,0-.19-.14-.26v0l-.09-.06a.33.33,0,0,1,0-.24l0,0c0-.08.11-.17.11-.25s0,0,0-.06,0,0-.06-.05a.1.1,0,0,0-.07-.14s0-.05,0-.08a3.09,3.09,0,0,1,0-.52s0,0,0,0a.14.14,0,0,0,0-.18c.05,0,0-.08.05-.12s.1-.07,0-.09,0-.14,0-.23.09-.08.11-.12,0-.09-.05-.13h0s-.09-.07-.06-.11-.25-.1-.25-.2-.11-.11-.18-.16,0-.11,0-.15,0-.06,0-.09,0,0,0,0l0,0c0-.07,0-.16-.12-.22s0,0,0,0-.26-.21-.29-.33,0-.06.09-.08,0,0,0,0h0a.38.38,0,0,0-.19-.11s-.1,0-.09,0-.09.07-.16,0,0,0-.07,0,0,0,0,.08h0s0,0,0,0,0,0,0-.07,0,0-.06,0v0s0,0,0,0,0,0,0,0a.35.35,0,0,0-.08.11c-.06.11-.16.2-.21.29s-.06,0-.05.05l0,0s0,0,0,0a.07.07,0,0,1,0,.05s0,.07,0,.1a.16.16,0,0,0-.07.07,0,0,0,0,1,.05,0c0,.06-.1.11-.09.18s-.06.05-.06.08-.19.19-.14.27c-.11,0,0,.07-.09.11s-.16.11-.11.16,0,0,0,0a.28.28,0,0,0,0,.13s-.06.06,0,.09a.22.22,0,0,0,.17.07s.13.05.07.08h0s0,0,0,0h.07s0,0-.06,0,0,0,0,0a.48.48,0,0,1-.2-.12c0-.05,0-.11,0-.13l.06,0s0,0,0-.06,0,0,0,0,.06-.06.07-.1,0-.06.11-.07-.05,0,0,0a.06.06,0,0,1,0,0c.06,0,.19,0,.23.07s0,.06,0,.08a.38.38,0,0,0,0,.44.06.06,0,0,0,0,.09c-.16.06.06.15,0,.21.12,0,.08.07,0,.1s.06,0,0,.05,0,0,0,0,0,0,0,0L92,27s0,0,0,0H92s0,0,0,0h0c.07,0,0,0,0,0h0l0,0h0c-.1.15,0,.26.08.4s0,0,0,0a.19.19,0,0,0,.16.06.84.84,0,0,1-.07-.16.19.19,0,0,1,.11,0c.06.05,0,.13.06.18s0,0,0,0a.14.14,0,0,1,0,.11c0,.06,0,.13,0,.19s0,0,0,.05,0-.08,0-.1a.2.2,0,0,0,0-.15c.06-.1,0-.15,0-.26s0,0,0,0,.08,0,.08,0,0,0-.05,0l.08,0s0,0,0,0,0,0,.1,0,.14.13.13.2l-.09,0c.05,0,.06,0,.11,0s0,.06.08.07l0,0c0,.07,0,.11.08.17s0,.16.06.24,0,0,0,0,0,.13-.06.19,0,0,0,.05,0,0,0,0,0,0,0,.06,0,.05,0,.07,0,.05,0,.07,0,0,.1,0l0,0s-.1,0-.11-.06,0-.05,0-.06h0c-.07-.11.13-.21.09-.32a.63.63,0,0,1,.12-.1s0,0,0,.08.06.21.12.3,0,.13.08.2,0,.06,0,.09h0c0,.05-.1.1-.11.15s0,0,0,0,0,.05,0,.06.08.05.09.09l.07.18c0,.07.07.13.08.21s.06.13.14.14,0,0,0,0,.05,0,.09,0a0,0,0,0,1,0,0,.58.58,0,0,1,.25.19,1.09,1.09,0,0,0,0,.18.19.19,0,0,0,0,.16.38.38,0,0,0,.18,0,0,0,0,0,0,0,0,.46.46,0,0,1,.14.07c.1.06.14.14.25.18h.06l-.08-.05s0,0,0,0l0-.05h0l0,0L94.39,30c-.07,0-.14-.09-.2-.06s-.06,0-.09,0,0,0-.06,0,0-.22,0-.34a.08.08,0,0,1,0-.05c.09,0,.16.24.27.28s0,0,0,0l-.15-.21s-.08-.06-.11-.12l0-.1s0,0,0,0,0-.13,0-.14S94,29.14,94,29.12Zm-1.45-4.44h0v0S92.52,24.66,92.53,24.68Zm0,.26s0,0,0-.05,0,0,0,0S92.47,24.92,92.49,24.94Zm.09.08h0s0,.07,0,.1S92.59,25.07,92.58,25Zm-.07.14h0s0,0,0,0S92.51,25.18,92.51,25.16Zm.16,0a.26.26,0,0,0,0,.15s.09.07.07.11-.07-.09-.13-.11,0-.09,0-.11S92.63,25.15,92.67,25.14Zm-.16.06h0s0,0,0,.05S92.5,25.22,92.51,25.2Zm0,.05a0,0,0,0,0,0,0S92.48,25.27,92.49,25.25Zm-.15,0s0,0,0,0,0,0,0,.05,0,0,0,.06h0a.44.44,0,0,1,0,.43c-.11,0-.06-.05-.22,0s.06-.16,0-.22,0-.1.07-.16A.21.21,0,0,1,92.34,25.29Zm-.27.29s0,0,0,0,0,0,0,.05,0,.11-.06.15-.06,0,0-.06c-.12,0-.15,0-.08-.12s.06,0,.08-.06,0-.05.06-.08S92,25.57,92.07,25.58Zm.68-.17s0,0,0,0S92.75,25.41,92.75,25.41Zm.17.55c0,.05.06.09,0,.15s-.08.09-.06.15,0,0,.07.06,0,.06,0,.08,0,.08,0,.1a.92.92,0,0,1-.25-.06c0-.17-.08-.31.09-.48Zm.17.74s0,0,0,0,0,.07,0,.1,0,0,0,.05.06,0,0,.06,0,.06,0,.08S93,27,93,27h.1s0,0-.08,0a.1.1,0,0,1,0-.16s0,0,0-.08h0c-.05,0,.13-.08.1-.11S93.09,26.71,93.09,26.7Zm0,.37s0,0,0,0H93A.09.09,0,0,1,93.06,27.07Zm.46.13a.8.8,0,0,0,0,.15c0,.07,0,.17,0,.23s0,.09,0,.1,0,.09.06.13,0,.12,0,.2l-.06.06s0,0,0,.05l0,.08s0,0,0,0,0,0,0,0,0,0,0,.07,0,.1.06.16a.22.22,0,0,0-.17,0,.16.16,0,0,1,0-.1.16.16,0,0,0,0-.07l0-.05s0-.09,0-.14,0-.06,0-.1,0-.15-.07-.18,0-.09,0-.13.18-.11.15-.17-.18-.05-.24-.09,0,0,0-.06.08-.08,0-.13l.26,0S93.48,27.21,93.52,27.2Zm.06,1.31,0,0s0,0,0,0,.06.07.08.11l0,0v.1s0,.06,0,.09,0,.09,0,.1,0,.1,0,.12,0,.09,0,.14.12.05.14.16,0-.07-.08-.06-.05,0-.07,0l0-.05s0,0-.07-.05l0,0s0-.09,0-.11l0,0s0-.05,0-.07h0v0c0-.07,0-.15,0-.23s0,0,0-.05,0,0,0,0S93.61,28.52,93.58,28.51Zm.38.64s0,0,0,0S94,29.16,94,29.15Z"/><path class="cls-8" d="M91.77,26.62h0s0-.05,0-.07a.35.35,0,0,1,0,.14S91.75,26.63,91.77,26.62Z"/><path class="cls-8" d="M91.75,26.72s0,0,0,0,0,0,.09,0S91.78,26.71,91.75,26.72Z"/><path class="cls-8" d="M93.49,29.71s.06,0,.09.05S93.52,29.72,93.49,29.71Z"/><path class="cls-8" d="M88.87,26.76Z"/><path class="cls-8" d="M89,27.49s0,0,0,.06,0,0,0,0a.52.52,0,0,0,0,.23s0,0,0,0,0,0-.06,0a1.74,1.74,0,0,0,0-.22C89,27.57,89,27.54,89,27.49Z"/><path class="cls-8" d="M89,28.4l0,0A.11.11,0,0,1,89,28.4Z"/><path class="cls-8" d="M91.23,27.12s.08.05,0,.08a.28.28,0,0,1,.15.06l-.05,0C91.26,27.29,91.05,27.25,91.23,27.12Z"/><path class="cls-8" d="M89.47,28.84s0,0,0,0,0,0,0,0S89.5,28.83,89.47,28.84Z"/><path class="cls-8" d="M89.51,29.23s0,0,0,0Z"/><path class="cls-8" d="M90,29.81s0,0,0,0,0,.1,0,.14,0,.05,0,.07a.74.74,0,0,1,0,.29.29.29,0,0,1,0,.16c-.12,0-.08-.13-.08-.2l0,0c0-.16-.15-.27,0-.4s0,0,0-.06,0,0,0,0Z"/><path class="cls-8" d="M90.35,30.38s0,0,0,0,0,0,0,.06,0,.28-.08.44c0,0,0,0,0,0s0-.11,0-.17,0-.16,0-.23a.15.15,0,0,0,0-.13Z"/><path class="cls-8" d="M90.39,30.81h0s0,.07,0,.11,0,0-.06,0S90.36,30.83,90.39,30.81Z"/><path class="cls-8" d="M90.23,30.93s0,0,0,.05S90.24,31,90.23,30.93Z"/><path class="cls-8" d="M90.29,31.85s.07,0,0,0,0,.1.06.15,0,0,0,0,0,0,0,0a.29.29,0,0,0,0,.1h0s0,0,0,0v0s0,0,0,0h0l0,0s0-.06,0-.05,0-.06,0-.08S90.31,31.92,90.29,31.85Z"/><path class="cls-8" d="M90.42,32.19s0,0,0,0S90.41,32.19,90.42,32.19Z"/><path class="cls-8" d="M90.44,32.22s0,0,0,0S90.43,32.22,90.44,32.22Z"/><path class="cls-8" d="M90.42,32.28s0,0,0,0S90.42,32.3,90.42,32.28Z"/><path class="cls-8" d="M90.44,32.35s0,0,0,0Z"/><path class="cls-8" d="M90.42,32.85s0,0,0,0S90.41,32.85,90.42,32.85Z"/><path class="cls-8" d="M91.12,32s0-.07,0-.1.1-.18.08-.26,0-.06,0-.09a.48.48,0,0,0,0-.42v0s0-.08-.05-.13a.74.74,0,0,1,.07-.32h0c0-.1.16-.2.18-.31s0-.05,0-.08a.3.3,0,0,1,0-.1.19.19,0,0,0,0-.22s0-.07,0-.11c0-.21,0-.51,0-.75,0,0,0,0,0-.05a.23.23,0,0,0,0-.26c.05,0,0-.11,0-.17s.08-.12,0-.14-.08-.21-.05-.35a1.39,1.39,0,0,0,.06-.19c0-.06-.06-.13-.12-.18h0s-.12-.06-.12-.13-.28,0-.35-.16-.17-.1-.26-.13-.09-.12-.06-.2a.32.32,0,0,0-.08-.09s0,0,0-.05a0,0,0,0,1-.05,0c0-.09-.16-.15-.27-.17s0,0,0,0a1.79,1.79,0,0,1-.53-.13c0-.05,0-.07,0-.13h0s0,0,0,0a.45.45,0,0,0-.24,0s-.09.06,0,.08,0,.11-.12.12,0,0,0,0,0,0,0,.07h0s0,0,0,0,0,0-.09,0,0,0-.06,0l0,0s0,0,0,0l0,0A.46.46,0,0,0,89,27a1.25,1.25,0,0,1,.08.35.07.07,0,0,0,0,.08s0,0,0,0,0,0,0,0a0,0,0,0,1,0,.05s0,.07.06.07a.2.2,0,0,0,0,.1l0,0s0,.14,0,.18,0,.07,0,.09-.07.25,0,.28c-.08.09,0,.08,0,.12s-.11.15,0,.16h0s0,.06,0,.1,0,.06,0,.07.08,0,.18,0,.14,0,.08,0h0l.07,0s0,0-.07,0,0,0,0,0a.42.42,0,0,1-.21,0s0-.08-.06-.08,0,0,0,0,0,0,0,0h-.06s0-.07,0-.11,0-.06.07-.1,0,.05,0,0l0,0c.07,0,.19-.07.24-.05s0,.06.07.06a.36.36,0,0,0,.17.37s0,.06,0,.09c-.14.08.09.11,0,.18.13,0,.09.06,0,.09s.06,0,0,.05,0,0,0,0h0s0,0-.07,0,0,0,0,0h-.06s0,0,0,0h0c.07,0,0,0,0,0h0l0,0a0,0,0,0,1,0,0c-.08.14,0,.23.1.36s0,0,0,0,0,.06.16.06a.71.71,0,0,1-.07-.15.19.19,0,0,1,.11,0c.06.05,0,.12,0,.17l0,0c0,.05,0,.08,0,.11a1.23,1.23,0,0,0,0,.2s0,0,0,.05,0-.08,0-.1a.39.39,0,0,0,0-.15c.06-.1,0-.16,0-.26s0,0,0-.05.09,0,.09,0,0,0,0,0l.08,0s0,0,0,0,0,0,.1-.05.15.14.14.23a.25.25,0,0,0-.09,0s.06,0,.11,0,0,.06.08.08,0,0,0,0,0,.14.06.2,0,.19,0,.29,0,0,0,0,0,.16-.1.19,0,0,0,0l0,0s0,0,0,.06,0,0,0,.07,0,.06,0,.08,0,.07.08.08l0,0s-.09-.06-.09-.1.06,0,0-.07h0c0-.13.19-.19.16-.33l.14-.09c0,.05,0,.06,0,.11s0,.27,0,.4,0,.17,0,.27,0,.05,0,.08,0,0,0,0-.13.07-.15.12,0,0,0,0,0,.05,0,.07,0,.09,0,.14l0,.24c0,.07,0,.17,0,.26s0,.17,0,.23,0,0,0,0,0,.08.06.1a0,0,0,0,1,0,0,.66.66,0,0,1,.09.37,1.53,1.53,0,0,0-.11.16c0,.05-.09.09-.09.17a.69.69,0,0,0,.13.15.11.11,0,0,0,0,.05.53.53,0,0,1,0,.18c0,.13,0,.23,0,.36v0s0,.05,0,.05a.49.49,0,0,0,0-.11s0,0,0-.06V33.3h0v-.07a.5.5,0,0,0,0-.12c0-.1,0-.2-.1-.22s0-.05-.07-.08,0,0,0-.07.17-.17.23-.29a.08.08,0,0,1,0-.07c0,.11,0,.36,0,.48a.09.09,0,0,0,0-.05l0-.32c0-.07,0-.13,0-.21a.61.61,0,0,0,0-.13s0,0,0,0,.1-.12.07-.17Zm-2.05-5.22s0,0,0,0h0s0,0,0,0l0,0S89.05,26.75,89.07,26.74Zm.2.23s-.07,0-.07,0,0,0,0,0S89.24,27,89.27,27Zm.15,0s0,0,0,0,.06.06,0,.11S89.45,27,89.42,27Zm0,.16s0,0,0,0,0,0,0,0S89.48,27.15,89.47,27.14Zm.11-.12c0,.05,0,.11.1.14s.12,0,.14.06-.12,0-.19,0,0-.1-.08-.1S89.55,27.05,89.58,27Zm-.09.16,0,0s0,0,0,.05S89.5,27.2,89.49,27.18Zm0,.05,0,0S89.52,27.25,89.52,27.23Zm-.1.12s0,0,0,0,0,.06,0,.07,0,0,.06,0l0,0a.41.41,0,0,1,.23.39c-.09,0-.07,0-.2.07s0-.16-.13-.17,0-.11,0-.17A.22.22,0,0,1,89.42,27.35Zm0,.4s0,0,0,0,0,.05,0,.07.07.08,0,.15-.07,0,0,0-.15.05-.13-.05,0-.06,0-.08,0-.05,0-.1S89.31,27.78,89.38,27.75Zm.46-.53s0,0,0,0S89.84,27.23,89.84,27.22Zm.5.5c0,.05.1.09.12.16s0,.12,0,.19.06,0,.09.05,0,.08.08.08,0,.1.06.12a.8.8,0,0,1-.27,0c0-.19-.19-.32-.11-.56Zm.44.85s0,0,0,0,0,.09,0,.12,0,0,0,.07.07,0,0,.08,0,.08.05.1-.1,0-.15,0a.33.33,0,0,0,.1,0s0,.05-.07.07a.14.14,0,0,1-.07-.2s0-.05,0-.09,0,0,0,0,.11-.12.08-.16S90.78,28.58,90.78,28.57Zm0,.45,0,0h-.06S90.77,29,90.81,29Zm.47.19,0,.21c0,.1,0,.23,0,.32s-.06.12,0,.14,0,.15,0,.21,0,.18,0,.28-.06,0-.07.06,0,0,0,.06-.06.06-.07.09,0,0,0,.05l0,0s0,.05,0,.07a1.85,1.85,0,0,1,0,.23.19.19,0,0,0-.14-.1.3.3,0,0,1,0-.13s0,0,0-.09,0-.05,0-.07,0-.12,0-.17,0-.1,0-.14,0-.18,0-.24,0-.12,0-.17.2-.11.17-.2-.18-.09-.23-.14,0-.05,0-.08.08-.1,0-.17a2.25,2.25,0,0,1,.26,0S91.24,29.22,91.28,29.21ZM91.08,31h0s0,.06,0,.08,0,.11,0,.17l0,0,0,.13s0,.09,0,.13-.06.09,0,.13-.06.11,0,.15,0,.1-.07.16.07.15,0,.26,0-.09,0-.12,0-.08,0-.1v-.09s0,0,0-.09v-.06c0-.05,0-.1,0-.14v0s0-.05,0-.08v0s0,0,0,0a1.24,1.24,0,0,0,.06-.29l0-.06s0,0,0-.05S91.1,31,91.08,31Zm0,1s0,0,0,0S91.06,32,91.08,32Z"/><path class="cls-8" d="M89.47,28.74h0s-.05,0,0-.06a.27.27,0,0,1,0,.11S89.45,28.75,89.47,28.74Z"/><path class="cls-8" d="M89.46,28.82s0,0,0,0h0Z"/><path class="cls-8" d="M90.37,32.17s0,.08,0,.1S90.39,32.2,90.37,32.17Z"/><path class="cls-8" d="M103.17,37.45h0a0,0,0,0,0,0,0Z"/><path class="cls-8" d="M103.06,36.61s0,0,0-.06,0,0,0,0a.55.55,0,0,0-.06-.29,0,0,0,0,0,0,0l.06,0a2.86,2.86,0,0,0,.07.28S103.11,36.57,103.06,36.61Z"/><path class="cls-8" d="M103.05,35.47s0,0,0,0A.12.12,0,0,1,103.05,35.47Z"/><path class="cls-8" d="M100.7,36.52s-.07-.06,0-.09a.25.25,0,0,1-.15-.08l0,0C100.68,36.34,100.89,36.41,100.7,36.52Z"/><path class="cls-8" d="M102.49,34.72s0,0,0,0,0,0,0,0S102.46,34.73,102.49,34.72Z"/><path class="cls-8" d="M102.4,34.18s0,0-.05,0S102.4,34.16,102.4,34.18Z"/><path class="cls-8" d="M101.79,33.44s0,0,0,0,0-.13-.06-.19,0-.05-.06-.07a1.65,1.65,0,0,1-.11-.36.49.49,0,0,1,0-.2c.13,0,.11.16.12.23s0,0,0,0c0,.21.2.33.12.51,0,0,0,0,.05.08h-.08Z"/><path class="cls-8" d="M101.39,32.77s0-.06,0-.06,0,0,0-.07a2.68,2.68,0,0,0,0-.55s0,0,0,0,.07.13.06.2,0,.21,0,.3a.18.18,0,0,0,0,.16Z"/><path class="cls-8" d="M101.25,32.25h0s0-.09,0-.13,0,0,.07,0S101.27,32.22,101.25,32.25Z"/><path class="cls-8" d="M101.38,32.07s0,0,0-.06S101.36,32.05,101.38,32.07Z"/><path class="cls-8" d="M101.05,31s-.07,0,0,0-.07-.1-.11-.16,0,0,0,0,0,0,0,0,0-.09-.06-.11h0v0s0,.05,0,0,0,0,0,0,0,0,0,0a0,0,0,0,0,0,0s0,0,0,0,0,.08,0,.05,0,.08,0,.09S101,30.91,101.05,31Z"/><path class="cls-8" d="M100.81,30.63a0,0,0,0,1,0,0A0,0,0,0,1,100.81,30.63Z"/><path class="cls-8" d="M100.78,30.6s0,0,0,0S100.8,30.6,100.78,30.6Z"/><path class="cls-8" d="M100.78,30.52s0,0,0,0S100.77,30.5,100.78,30.52Z"/><path class="cls-8" d="M100.74,30.45l0,0S100.73,30.43,100.74,30.45Z"/><path class="cls-8" d="M100.6,29.87a0,0,0,0,1,0,0S100.61,29.87,100.6,29.87Z"/><path class="cls-8" d="M100.22,31.07a.19.19,0,0,0,0,.13.86.86,0,0,0,0,.32s0,.07,0,.11a.61.61,0,0,0,.11.47v0a1.1,1.1,0,0,1,.09.14,1,1,0,0,1,0,.38s0,0,0,0a2.78,2.78,0,0,0-.12.38s0,.06,0,.09l.06.11a.22.22,0,0,0,.07.24s0,.08,0,.13c0,.24,0,.57,0,.83,0,0,0,0,0,.06a.31.31,0,0,0,.06.29c0,.05,0,.12,0,.19s-.07.12,0,.14.09.23,0,.39a1.39,1.39,0,0,0-.06.19,2.25,2.25,0,0,0,.12.21h0c0,.05.12.08.11.15s.29.08.35.22.18.13.27.18.08.15,0,.23a.33.33,0,0,0,.08.11s0,0,0,.05h.05c0,.1.14.19.27.24s0,0,0,0a2.1,2.1,0,0,1,.54.27c0,.05,0,.09,0,.13l0,0s0,0,0,0a.43.43,0,0,0,.26,0s.11,0,.07-.06,0-.12.15-.08.06,0,.06,0,0,0-.05-.09,0,0,0,0,0,0,0,0,.06,0,.09.06,0,0,.08,0l0,0s0,0,0,0,0,0,0,0a1.43,1.43,0,0,0,0-.16,2,2,0,0,1-.06-.41s0-.07,0-.08,0,0,0-.05,0,0,0,0a.07.07,0,0,1,0-.07s0-.08-.06-.1a.43.43,0,0,0,0-.11.06.06,0,0,1,0,0c0-.06,0-.17,0-.23a.25.25,0,0,0,0-.12.31.31,0,0,0,0-.35c.09-.09,0-.1,0-.15s.11-.18,0-.21,0,0,0,0a1,1,0,0,0,0-.14s0-.08,0-.11a.21.21,0,0,0-.18,0s-.15,0-.1-.08,0,0,0,0,0,0,0,0l-.07,0s0,0,.08,0,0,0,0,0a.8.8,0,0,1,.23.1s0,.12.08.13,0,0,0,0,0,.05,0,.07.07,0,.07,0,0,.09,0,.13,0,.09-.07.12,0,0,0,0l0,0c-.07,0-.2,0-.26,0s0-.08-.08-.09a.64.64,0,0,0-.2-.52.1.1,0,0,0,0-.12c.13-.1-.11-.17,0-.25-.13,0-.1-.08,0-.12s-.06,0,0-.06,0,0,0,0h0s0,0,.07,0,0,0,0,0h.06s0,0,0,0,0,0,0,0,0,0,0,0h0l.06.05s0,0,0,0c.07-.19-.06-.31-.14-.48,0,0,0,0,0-.05s0-.08-.16-.07.06.1.09.19a.23.23,0,0,1-.11.07c-.07-.07,0-.17-.08-.23l0,0a.35.35,0,0,1,0-.14,2,2,0,0,0,0-.26s0,0,0-.06a.18.18,0,0,0,0,.13.41.41,0,0,0,0,.19c0,.13,0,.2,0,.34s0,0,0,.05-.08,0-.08.06,0,0,0,0a.1.1,0,0,1-.07.05,0,0,0,0,1,0,0s0,.05-.1.06-.16-.17-.16-.27.07,0,.08-.06,0,0-.1,0,0-.07-.09-.09,0,0,0,0a.53.53,0,0,0-.09-.23c0-.11,0-.23-.08-.35s0,0,0,0,0-.19.06-.25,0,0,0-.07l0,0s0,0,0-.07,0-.06,0-.1,0-.07,0-.09,0-.08-.09-.09l0,0s.1.06.11.1,0,.06,0,.09h0c.06.16-.15.27-.1.42a.4.4,0,0,1-.13.13s-.05-.06-.05-.12-.06-.31-.12-.46,0-.21-.06-.32,0-.07,0-.11,0,0,0,0,.12-.1.13-.16,0,0,0,0a.21.21,0,0,1,0-.08c0-.06-.08-.1-.09-.16l0-.29c0-.09,0-.2,0-.31s0-.21-.12-.26,0,0,0,0,0-.09-.09-.1v0a.93.93,0,0,1-.21-.42,1.6,1.6,0,0,0,0-.21.32.32,0,0,0,0-.22.57.57,0,0,0-.18-.15.06.06,0,0,0,0,0l-.11-.21c-.06-.15-.06-.27-.13-.42s0,0,0,0,0-.06,0-.06a1.12,1.12,0,0,0,0,.13.19.19,0,0,0,0,.07s0,.07,0,.1a0,0,0,0,0,0,0,.64.64,0,0,1,0,.07c0,.07,0,.09,0,.15s.1.23.17.24.07,0,.1.07l0,.09c0,.13-.1.23-.13.39a.14.14,0,0,1,0,.09c-.09-.13-.09-.43-.18-.57a.07.07,0,0,0,0,.06l.08.39c0,.09.07.15.09.25a.92.92,0,0,0,0,.16s0,0,0,0-.06.16,0,.21S100.22,31.06,100.22,31.07Zm2.72,6.33s0,0,0,0h0l0,0S103,37.4,102.94,37.4Zm-.2-.31s.08,0,.09,0,0,.05,0,.05S102.78,37.1,102.74,37.09Zm-.15-.05,0,0s-.06-.08,0-.13S102.55,37,102.59,37Zm0-.2s0,0,0,0a.08.08,0,0,1,0,0S102.53,36.83,102.55,36.84Zm-.14.1a.64.64,0,0,0-.1-.18s-.13,0-.14-.1.13.08.2.08,0,.12.08.13S102.44,36.92,102.41,36.94Zm.11-.14h0s0,0,0-.06S102.51,36.77,102.52,36.8Zm0-.07,0,0S102.49,36.7,102.49,36.73Zm.12-.1s0,0,0,0,0-.06,0-.08,0,0-.06-.05,0,0,0,0a.66.66,0,0,1-.26-.52c.1,0,.09,0,.22-.05.06.09,0,.21.14.25s0,.13,0,.21A.23.23,0,0,1,102.61,36.63Zm0-.45s0,0,0,0,0-.05,0-.08-.09-.12,0-.19.07,0,.06,0,.16,0,.14.11l0,.09s0,.07,0,.12S102.75,36.16,102.66,36.18Zm-.51.47s0,0,0,0S102.14,36.64,102.15,36.65Zm-.51-.66c0-.06-.1-.11-.12-.19s0-.14,0-.23-.06,0-.08-.06,0-.1-.09-.11,0-.11-.06-.13a.8.8,0,0,1,.27,0c.06.23.2.41.12.68Zm-.47-1s0,0,0,0,0-.1-.06-.14,0,0,0-.07-.07-.07,0-.1,0-.09-.06-.12.1,0,.15,0h-.1s0-.06.06-.07a.18.18,0,0,1,.09.23s0,.07,0,.11,0,0,0,0-.1.13-.06.18S101.17,35,101.17,35Zm0-.54s0,0,0,0,0,0,.06,0A.08.08,0,0,1,101.12,34.44Zm-.5-.19a2,2,0,0,0-.05-.24c0-.11,0-.26,0-.36s0-.14,0-.16,0-.16-.07-.23,0-.2,0-.32,0,0,0-.08,0,0,0-.07,0-.08.06-.12,0,0,0-.05l0,0s0-.07,0-.1a1.72,1.72,0,0,1,0-.26.19.19,0,0,0,.17.08.86.86,0,0,1,0,.16.39.39,0,0,0,0,.11.15.15,0,0,0,0,.07,1.41,1.41,0,0,1,0,.21c0,.06.05.11,0,.16s0,.22.07.29,0,.13,0,.19-.18.15-.14.24.19.1.24.15,0,.06,0,.09-.06.13,0,.2l-.26,0S100.67,34.24,100.62,34.25Zm-.09-2a.08.08,0,0,0,0,0s0-.06,0-.08,0-.12-.07-.2,0,0,0,0v-.16s0-.11,0-.16,0-.12,0-.16,0-.14,0-.18a1.27,1.27,0,0,0,0-.2c0-.11-.11-.16-.1-.31,0,0,0,.12.07.14s0,.08.06.11l0,.1s0,0,.06.1v.07c0,.06,0,.13,0,.17l0,0s0,.07,0,.1v0a.43.43,0,0,0,0,.05,2.25,2.25,0,0,0,0,.36s0,.05,0,.07,0,0,0,.05S100.51,32.16,100.53,32.2ZM100.24,31s0,0,0,0S100.26,31,100.24,31Z"/><path class="cls-8" d="M102.5,34.86h0s.06.05,0,.09a.64.64,0,0,1-.06-.16S102.52,34.85,102.5,34.86Z"/><path class="cls-8" d="M102.5,34.74s0,0,0,0-.05,0-.09,0S102.47,34.76,102.5,34.74Z"/><path class="cls-8" d="M100.87,30.64s-.05-.08-.08-.11S100.84,30.61,100.87,30.64Z"/><path class="cls-8" d="M89.9,26.5h0v0Z"/><path class="cls-8" d="M89.4,27.12s0,0,0,.05,0,0,0,0a.53.53,0,0,0-.09.29s0,0,0,0a.16.16,0,0,1-.07,0c0-.11.07-.21.08-.31S89.35,27.13,89.4,27.12Z"/><path class="cls-8" d="M89,28.27s0,0,0,0S89,28.28,89,28.27Z"/><path class="cls-8" d="M91.49,27.69s.05,0,0,0a.15.15,0,0,1,.12,0l-.06,0C91.46,27.8,91.28,27.75,91.49,27.69Z"/><path class="cls-8" d="M89.5,29.11s0,0,0,0,0,0,0,0S89.53,29.1,89.5,29.11Z"/><path class="cls-8" d="M89.64,29.61s0,0,0,0S89.64,29.62,89.64,29.61Z"/><path class="cls-8" d="M90.35,30.1s0,0,0,0,.06.1.09.13a.3.3,0,0,0,.08,0,1.44,1.44,0,0,1,.18.25.27.27,0,0,1,.07.14c-.13,0-.13-.09-.16-.14h0c-.06-.16-.26-.2-.22-.36s0,0-.06-.05,0,0,0,0Z"/><path class="cls-8" d="M90.87,30.49s0,0,0,.05,0,0,0,.05.1.26.14.41,0,0,0,0-.1-.06-.11-.13,0-.15-.06-.22a.16.16,0,0,0,0-.13Z"/><path class="cls-8" d="M91.11,30.83h0s0,.07.06.09,0,0-.07,0S91.1,30.86,91.11,30.83Z"/><path class="cls-8" d="M91,31s0,0,0,0S91.05,31,91,31Z"/><path class="cls-8" d="M91.54,31.72s.07,0,.06,0,.07.06.12.09,0,0,0,0,0,0,0,0l.07.07h0v0s0,0,0,0a0,0,0,0,0,0,0s0,0,0,0h0s0,0,0,0,0,0-.05,0,0-.06,0-.05S91.59,31.77,91.54,31.72Z"/><path class="cls-8" d="M91.81,31.92s0,0,0,0S91.8,31.93,91.81,31.92Z"/><path class="cls-8" d="M91.85,31.94s0,0,0,0S91.83,31.94,91.85,31.94Z"/><path class="cls-8" d="M91.86,32s0,0,0,0S91.87,32,91.86,32Z"/><path class="cls-8" d="M91.91,32h0Z"/><path class="cls-8" d="M92.11,32.45a0,0,0,0,1,0,0S92.1,32.46,92.11,32.45Z"/><path class="cls-8" d="M92.3,31.38s0-.09,0-.11a.48.48,0,0,0-.06-.24s0-.05,0-.09a.37.37,0,0,0-.2-.32v0s-.08,0-.11-.07a.54.54,0,0,1-.08-.28s0,0,0,0,.06-.22,0-.32,0,0,0-.06l-.08-.05a.13.13,0,0,0-.11-.15s0-.05,0-.08a4.75,4.75,0,0,1-.14-.57s0,0,0,0,0-.14-.07-.18,0-.08,0-.13.07-.1,0-.1-.07-.14,0-.24.06-.1.07-.14,0-.08-.07-.12h0s-.11,0-.08-.09-.26,0-.28-.14-.13-.1-.19-.14,0-.11,0-.15a.09.09,0,0,0,0-.08s0,0,0,0h0c0-.07,0-.14-.12-.2s0,0,0,0-.25-.2-.28-.32,0-.06.1-.08,0,0,0,0,0,0,0,0a.41.41,0,0,0-.17-.12c-.05,0-.1,0-.09,0s-.1.06-.16,0-.05,0-.07,0,0,0,0,.08,0,0,0,0a.07.07,0,0,1,0,.05c0-.05,0-.05,0-.08s-.05,0-.06-.05,0,0,0,0,0,0,0,0l0,0-.09.11c-.07.12-.17.21-.23.32s-.06,0,0,.06,0,0-.06,0,0,0,0,0a.07.07,0,0,1,0,.07s0,.09,0,.12a.22.22,0,0,0-.07.09.08.08,0,0,1,0,0c0,.08-.09.15-.07.23a.16.16,0,0,0,0,.1.3.3,0,0,0-.09.37c-.11.06,0,.1-.07.15s-.13.16-.08.21,0,0,0,0a.44.44,0,0,0,0,.16s0,.09,0,.12.08.06.18.06.15,0,.09.08h0s0,0,0,0l.07,0s0,0-.07,0,0,0,0,0a.61.61,0,0,1-.23-.11c0-.05,0-.13-.06-.16s0,0,0,0,0-.05,0-.07-.06,0-.06-.05,0-.09,0-.14,0-.08.09-.1,0,0,0,0a.07.07,0,0,1,0,0c.06,0,.2,0,.25.06a.07.07,0,0,0,.06.09.49.49,0,0,0,.15.5.08.08,0,0,0,0,.11c-.13.1.11.15.05.22.12,0,.09.07,0,.11s.06,0,0,.05,0,0,0,0h0l-.06.05s0,0,0,0h-.06s0,0,0-.05,0,0,0,0,0,0,0-.05h0l-.06,0a0,0,0,0,1,0,0c0,.19.09.28.2.4a.06.06,0,0,0,0,.05.15.15,0,0,0,.17,0,1.18,1.18,0,0,1-.11-.15.22.22,0,0,1,.1-.08c.07,0,0,.14.1.18h0a.3.3,0,0,1,0,.12c0,.07.07.12.09.19s0,0,0,0,0-.09,0-.1a.29.29,0,0,0,0-.16c0-.11-.07-.15-.09-.27s0,0,0-.05.08,0,.08-.07,0,0,0,0a.08.08,0,0,1,.06-.05s0,0,0,0,0-.05.08-.07.18.1.19.18l-.07.07s0-.05.09-.07,0,.05.1.05,0,0,0,0,.08.11.12.16.06.16.13.24,0,0,0,0,.08.12,0,.21,0,0,0,.06h0s0,0,0,.06,0,.06,0,.08,0,.05.06.06.06,0,.11,0l0,0s-.11,0-.12,0,0-.06,0-.07h0c-.09-.1.08-.25,0-.35a.55.55,0,0,1,.09-.14c0,.05.06,0,.07.08s.12.21.21.3.08.14.12.21,0,.07,0,.1,0,0,0,0-.08.12-.08.17,0,0,0,0,0,0,0,.05.09,0,.11.1l.1.2c0,.08.08.14.09.22s.07.15.15.17,0,0,0,0,0,.06.09.05v0a.68.68,0,0,1,.26.27.57.57,0,0,0,0,.18.28.28,0,0,0,0,.18.37.37,0,0,0,.18.07.06.06,0,0,0,0,0,.55.55,0,0,1,.12.14c.08.1.08.2.16.3s0,0,0,0,0,0,0,0a.93.93,0,0,0,0-.1l0,0a.24.24,0,0,1,0-.08h0a.33.33,0,0,0,0-.06l-.06-.1c-.06-.07-.12-.15-.18-.14s-.06,0-.09,0,0,0-.06-.06.07-.22.08-.35,0-.05,0-.07.13.32.24.4,0,0,0-.05l-.13-.28c0-.06-.08-.1-.11-.17a.79.79,0,0,0,0-.13s0,0,0,0,0-.14,0-.16ZM90,26.66h0s0,0,0,0v0S90,26.64,90,26.66Zm-.06.27s-.06,0,0-.06a0,0,0,0,1,0,0S89.93,26.91,90,26.93ZM90,27h0s0,.08,0,.1S90,27.08,90,27Zm-.08.14h0s0,0,0,0S90,27.2,90,27.18Zm.16,0a.26.26,0,0,0,0,.15c0,.05.09.07.08.12s-.08-.1-.15-.12,0-.09,0-.12S90.08,27.17,90.12,27.17Zm-.16.06h0s0,.05,0,.06A0,0,0,0,1,90,27.23Zm0,.06h0S89.94,27.31,89.94,27.29Zm-.14,0s0,0,0,0l0,0s0,0,0,.07h0a.58.58,0,0,1,.06.49c-.1,0-.07,0-.22,0s0-.2-.06-.26a1.8,1.8,0,0,1,0-.19A.21.21,0,0,1,89.8,27.32Zm-.25.36s0,0,0,0,0,.05,0,.07,0,.13,0,.19-.07,0,0-.07-.15,0-.09-.15,0-.06.06-.08,0-.07.06-.1S89.47,27.67,89.55,27.68Zm.66-.23s0,0,0,0S90.21,27.46,90.21,27.45Zm.25.56s.07.09.07.15-.06.11,0,.17,0,0,.07,0,0,.08.08.08,0,.09,0,.1a.75.75,0,0,1-.26,0c0-.17-.15-.32,0-.52Zm.33.74h0s0,.06.05.09,0,0,0,.06.07,0,0,.07,0,.07.07.07-.11,0-.15,0,.07,0,.1,0,0,0-.06.07-.14-.1-.1-.16,0,0,0-.08,0,0,0,0,.09-.12.06-.15S90.79,28.76,90.79,28.75Zm.07.39,0,0h-.06S90.83,29.15,90.86,29.14Zm.49,0a1.09,1.09,0,0,0,.08.15c0,.07,0,.18.09.24s0,.11,0,.11.07.09.11.13.07.14.06.23,0,.06,0,.08,0,0,0,.06a.38.38,0,0,0,0,.1s0,0,0,0,0,0,0,0,0,.05,0,.08,0,.11.1.17a.27.27,0,0,0-.18,0,.18.18,0,0,1,0-.1s0,0,0-.09,0,0-.05,0,0-.11,0-.16-.06-.06,0-.11,0-.17-.11-.19,0-.09-.07-.13.14-.16.09-.22-.19,0-.25,0,0,0,0-.06,0-.11,0-.15l.25-.08S91.31,29.19,91.35,29.17Zm.44,1.45,0,0s0,0,.06,0,.07.08.09.13l0,.05,0,.12s0,.07,0,.11,0,.11,0,.12,0,.12,0,.14,0,.1,0,.16.13.09.14.21,0-.08-.08-.08a.12.12,0,0,0-.07-.07l-.06-.06s0,0-.07-.07l0,0s0-.1,0-.13l0,0s0-.06,0-.08h0a.43.43,0,0,0,0-.05c0-.08-.07-.17-.09-.26s0-.05,0-.06,0,0,0,0S91.81,30.64,91.79,30.62Zm.49.79s0,0,0,0S92.26,31.42,92.28,31.41Z"/><path class="cls-8" d="M89.49,29h0s-.06,0,0-.08a1.11,1.11,0,0,1,.07.16A0,0,0,0,1,89.49,29Z"/><path class="cls-8" d="M89.49,29.08s0,0,0,0h0Z"/><path class="cls-8" d="M91.76,31.93s.06.05.09.06S91.79,32,91.76,31.93Z"/><path class="cls-8" d="M97.91,41.31h0Z"/><path class="cls-8" d="M98.57,40.63s0,0,.05-.05,0,0,0,0a.69.69,0,0,0,.14-.4s0,0,0,0a.1.1,0,0,1,.07,0c0,.15-.09.28-.13.42S98.62,40.64,98.57,40.63Z"/><path class="cls-8" d="M99.08,39.07s0,0,0,0S99.11,39.06,99.08,39.07Z"/><path class="cls-8" d="M96.55,39.54s0,0,0,0-.11,0-.13-.05l.06,0C96.58,39.42,96.76,39.48,96.55,39.54Z"/><path class="cls-8" d="M98.37,37.81s0,0,0,0,0,0,0,0S98.35,37.82,98.37,37.81Z"/><path class="cls-8" d="M98,37.11s0,0-.05,0S98,37.09,98,37.11Z"/><path class="cls-8" d="M97,36.56c0-.05-.05,0,0-.05s-.12-.1-.18-.14l-.11,0a2.07,2.07,0,0,1-.35-.22.51.51,0,0,1-.18-.14c.11-.07.2.05.27.11h0c.18.15.42.15.49.36,0,0,0,0,.09,0v0S97,36.55,97,36.56Z"/><path class="cls-8" d="M96.2,36.24s-.06,0,0-.05,0,0-.07,0-.3-.25-.46-.38c0,0,0,0,0,0s.15,0,.21.09.17.15.24.21a.27.27,0,0,0,.12.14S96.22,36.23,96.2,36.24Z"/><path class="cls-8" d="M95.7,36v0c-.06,0-.08-.06-.13-.06s0,0,.07,0S95.69,35.93,95.7,36Z"/><path class="cls-8" d="M95.63,35.75s-.06,0-.07,0S95.6,35.75,95.63,35.75Z"/><path class="cls-8" d="M94.5,35.34s-.06.06-.08,0a.67.67,0,0,1-.2,0s0,0,0,0,0,0,0,0h-.12s0,0,0,0,0,0,0,0h0s0,0,0,0h0s0,0,0,0,.09,0,.07,0,.07,0,.1,0S94.41,35.33,94.5,35.34Z"/><path class="cls-8" d="M94,35.35s0,0,0,0S94.05,35.34,94,35.35Z"/><path class="cls-8" d="M94,35.36s0,0,0,0S94,35.35,94,35.36Z"/><path class="cls-8" d="M93.93,35.32h0Z"/><path class="cls-8" d="M93.84,35.32s0,0,0,0Z"/><path class="cls-8" d="M93.23,35.17s0,0,0,0S93.23,35.16,93.23,35.17Z"/><path class="cls-8" d="M94.11,36.09s.07.07.12.07a.56.56,0,0,0,.25.16s.06,0,.08.07a.61.61,0,0,0,.44.19l0,0a.89.89,0,0,1,.15,0,.67.67,0,0,1,.26.24s0,0,0,0,.07.25.15.33,0,0,0,.06l.1,0a.2.2,0,0,0,.18.12s.06,0,.08.07a2.52,2.52,0,0,1,.36.59s0,0,.06,0a.19.19,0,0,0,.12.2c0,.06,0,.09,0,.15s-.06.12,0,.12.09.15.06.28a.69.69,0,0,0-.07.15s0,.09.1.13,0,0,0,0,.11,0,.09.1.27.06.29.18.13.13.2.19,0,.13,0,.18a.2.2,0,0,0,0,.1s0,0,0,0l0,0c0,.08,0,.18.1.27s0,0,0,0a.84.84,0,0,1,.21.46s-.06.06-.11.07,0,0,0,0,0,0,0,0a.72.72,0,0,0,.12.19c.05,0,.09.07.09,0s.12,0,.15.09,0,0,.06,0,0,0,0-.09h0S98,41,98,41s0,.06,0,.11,0,0,0,.07l0,0s0,0,0,0l0,0s.07-.06.12-.11.23-.23.32-.36.07,0,.06-.07l.06,0s0,0,0,0,0-.08,0-.09,0-.12,0-.18a.14.14,0,0,0,.08-.09l-.05,0c0-.12.12-.19.11-.31a.35.35,0,0,0,.06-.14.51.51,0,0,0,.1-.52c.1-.07,0-.13.06-.2s.13-.22.06-.31,0,0,0,0a1.11,1.11,0,0,0,0-.25c0-.05,0-.12,0-.18a.24.24,0,0,0-.2-.09s-.16-.06-.12-.13,0,0,0,0,0,0,0,0l-.06,0s0,.05.08.06,0,0,0,0a.64.64,0,0,1,.25.18c.06.08,0,.19.1.24s0,0,0,0,0,.07,0,.11.06,0,.07.07,0,.13,0,.21,0,.11-.09.13,0-.06,0-.07,0,0,0,.05-.2-.05-.25-.12a.16.16,0,0,0-.08-.15.83.83,0,0,0-.24-.7.17.17,0,0,0,0-.16c.11-.13-.16-.21-.11-.31-.13,0-.13-.08-.1-.14s-.07,0-.07-.07,0,0,0,0h0a.23.23,0,0,1,0-.07s0,0,0,0a.07.07,0,0,1,.06,0s0,0,0,.06,0,0,0,0,0,0,0,.07a0,0,0,0,0,0,0l.07,0h0c0-.25-.21-.38-.38-.53a.07.07,0,0,0,0-.06.15.15,0,0,0-.19,0s.11.09.19.18,0,.07-.07.11-.1-.17-.19-.22h0a.28.28,0,0,1-.09-.14c-.06-.09-.15-.15-.21-.23s0-.06,0,0a.31.31,0,0,0,.1.12.59.59,0,0,0,.13.19c0,.14.14.18.22.33s0,.05,0,.07-.06.06,0,.09,0,0,0,0,0,.05,0,.07a.05.05,0,0,1,0,0s0,.06-.06.1-.23-.11-.28-.21a.41.41,0,0,0,0-.09s0,.07-.07.1-.08,0-.12,0,0,0,0,0-.13-.12-.2-.16-.15-.19-.28-.26,0,0,0,0-.16-.12-.11-.24,0-.05,0-.07h0s0,0-.06-.06,0-.08,0-.1a.1.1,0,0,0-.1-.05s-.08,0-.13,0v0s.12,0,.16,0,0,.07.05.08l0,0c.17.08.08.3.22.39a.55.55,0,0,1,0,.18s-.08,0-.11-.06-.25-.2-.39-.26-.18-.12-.27-.18,0-.07-.06-.1,0,0,0,0,0-.15,0-.21h0s0,0-.05,0a1.29,1.29,0,0,1-.19,0l-.26-.14c-.06-.07-.19-.08-.28-.15s-.2-.08-.29-.05,0,0,0,0-.1,0-.14,0h0a1.16,1.16,0,0,1-.48,0l-.16-.15a.34.34,0,0,0-.18-.12.5.5,0,0,0-.22.09.09.09,0,0,0-.07,0h-.23a3.4,3.4,0,0,0-.45,0h.12l.1,0h.25c.13,0,.26,0,.31-.05s.06,0,.1,0h.1c.11.08.17.2.29.3s.07,0,.08,0c-.14,0-.42-.13-.59-.11a.07.07,0,0,0,.06,0l.39.11a1.18,1.18,0,0,1,.25,0l.15.07s0,0,0,0,.1.13.17.11S94.1,36.07,94.11,36.09Zm3.74,5h0s0,0,0,0v0S97.86,41.1,97.85,41.07Zm.14-.34c.05,0,0,.08,0,.09s0,0,0,0S98,40.76,98,40.73Zm-.06-.16h0s0-.1.06-.12S97.93,40.51,97.93,40.57ZM98,40.4s0,0,0,0,0,0,0,0S98,40.38,98,40.4Zm-.17,0a.44.44,0,0,0,0-.2c0-.06-.08-.12-.07-.17s.07.14.13.18,0,.12,0,.16S97.91,40.38,97.87,40.38Zm.17,0h0s0-.07,0-.07S98.05,40.31,98,40.34Zm0-.08h0S98.08,40.24,98.07,40.26Zm.14,0s0,0,0,0l0-.06s0,0,0-.1h0a1.28,1.28,0,0,1,0-.68c.1,0,.07.07.22,0,0,.14,0,.26,0,.37a1.45,1.45,0,0,1-.07.26A.23.23,0,0,1,98.21,40.25Zm.29-.44s0,0,0,0,0-.07,0-.1,0-.19,0-.25.07,0,0,.1c.12,0,.16.1.09.24s-.06.06-.07.09,0,.1-.06.13S98.58,39.85,98.5,39.81Zm-.68.19s0,0,0,0S97.82,40,97.82,40Zm-.24-.77c0-.07-.08-.12-.09-.2s.05-.13,0-.21-.06,0-.08-.06,0-.1-.09-.1,0-.11-.07-.12a.66.66,0,0,1,.28,0c.07.22.2.43.07.67Zm-.46-.94s0,0,0,0-.06-.07-.08-.11,0,0,0-.07-.08,0,0-.09,0-.08-.09-.08.11,0,.14-.06l-.1,0s0-.06,0-.1a.17.17,0,0,1,.15.18s0,.07,0,.11,0,0,0,0-.07.15,0,.18Zm-.19-.47a.08.08,0,0,1,0,0s0,0,.06,0S97,37.81,96.93,37.82Zm-.51,0c0-.06-.09-.11-.13-.16s-.11-.19-.2-.23,0-.13-.1-.1-.12-.09-.18-.12-.14-.11-.19-.21,0-.07,0-.09l0-.05s0-.09,0-.12l0,0s0,0,0,0,0-.05,0-.08a2.14,2.14,0,0,0-.22-.13.22.22,0,0,0,.17-.08s.09,0,.12.09,0,.05.08.08l.08,0s.09.11.14.15.1,0,.1.11.12.16.23.16.1.08.14.12-.06.22,0,.27.21,0,.28,0,0,0,.06.06,0,.14.07.18l-.23.14S96.46,37.83,96.42,37.86Zm-1.23-1.38,0,0s0,0-.08,0l-.19-.07,0,0-.12-.09-.14-.07s-.08-.09-.14-.08-.1-.1-.15-.1-.11-.07-.16-.12-.2,0-.32-.07c0,0,.11,0,.15,0s.1,0,.14,0h.09s.07,0,.13,0l.07,0s.09.08.13.09h0s0,0,.08.07,0,0,0,0,0,0,0,0,.2.12.29.2l.06.05,0,0S95.16,36.47,95.19,36.48Zm-1.09-.43s0,0,0,0S94.11,36,94.1,36.05Z"/><path class="cls-8" d="M98.43,38l0,0s.08.07,0,.12-.07-.15-.11-.22S98.46,38,98.43,38Z"/><path class="cls-8" d="M98.39,37.84s0,0,.06,0-.06,0-.1,0S98.37,37.86,98.39,37.84Z"/><path class="cls-8" d="M94.08,35.31s-.1,0-.14,0A.33.33,0,0,1,94.08,35.31Z"/><path class="cls-8" d="M87.48,27.81h0v0Z"/><path class="cls-8" d="M87.25,28.93s0,.05,0,.09,0,0,0,0a1.23,1.23,0,0,0,0,.51s0,0,0,0a.1.1,0,0,1-.08,0c0-.18,0-.35,0-.52C87.21,29.05,87.2,29,87.25,28.93Z"/><path class="cls-8" d="M87.18,30.87s0,.05,0,.06A.07.07,0,0,1,87.18,30.87Z"/><path class="cls-8" d="M89.68,30.24s.07.08,0,.1a.3.3,0,0,1,.15.12l-.06,0C89.68,30.45,89.47,30.32,89.68,30.24Z"/><path class="cls-8" d="M88,32.42s0,0,0,0,0,0,0,.05S88,32.41,88,32.42Z"/><path class="cls-8" d="M88.3,33.35s0,0,0,0S88.31,33.37,88.3,33.35Z"/><path class="cls-8" d="M89.34,34.39c0,.06,0,0,0,.07s.11.18.17.25l.12.09a5.46,5.46,0,0,1,.36.45,1.44,1.44,0,0,1,.18.25c-.15,0-.22-.16-.29-.27l-.06,0c-.17-.27-.43-.38-.48-.66,0,0,0-.07-.09-.1v0Z"/><path class="cls-8" d="M90.18,35.18s.07,0,0,.08,0,.05.07.08a3.38,3.38,0,0,0,.47.69s0,0-.06,0-.17-.12-.22-.22-.18-.26-.24-.38a.65.65,0,0,0-.11-.22S90.16,35.18,90.18,35.18Z"/><path class="cls-8" d="M90.71,35.78l0,0c.06,0,.08.11.14.15s-.06,0-.09,0S90.72,35.83,90.71,35.78Z"/><path class="cls-8" d="M90.75,36.06s.07,0,.07.06S90.78,36.07,90.75,36.06Z"/><path class="cls-8" d="M92,37.17s.09,0,.1,0a1,1,0,0,1,.25.12s0,0,0,0,0,0,0,0a.89.89,0,0,0,.16.09h0s-.06,0,0,0l0,0s0,0,0,0,0,0,0,0,0,0,0,0-.11-.07-.1,0-.07-.09-.11-.08S92.11,37.24,92,37.17Z"/><path class="cls-8" d="M92.57,37.45s0,0,0,0S92.56,37.45,92.57,37.45Z"/><path class="cls-8" d="M92.62,37.46s0,0,0,0S92.61,37.47,92.62,37.46Z"/><path class="cls-8" d="M92.7,37.55s0,0,.07,0S92.72,37.56,92.7,37.55Z"/><path class="cls-8" d="M92.81,37.61a.05.05,0,0,1,0,0Z"/><path class="cls-8" d="M93.51,38.12l0,0S93.51,38.14,93.51,38.12Z"/><path class="cls-8" d="M92.71,36.68a.41.41,0,0,0-.14-.15,1.39,1.39,0,0,0-.28-.35c0-.06-.07-.08-.1-.13a1.49,1.49,0,0,0-.52-.51l0,0a1.07,1.07,0,0,1-.19-.13,1.58,1.58,0,0,1-.29-.45s0,0,0,0c-.06-.16-.07-.35-.14-.5s-.07-.06-.06-.11-.08-.07-.12-.1a.45.45,0,0,0-.22-.28c0-.06,0-.09-.08-.14a7.13,7.13,0,0,1-.41-1s0,0-.07-.07a.5.5,0,0,0-.14-.35c0-.07,0-.15,0-.24s0-.15,0-.18-.12-.28-.1-.46a2,2,0,0,0,0-.24c0-.08-.07-.17-.13-.25h0c0-.06-.13-.11-.12-.19s-.3-.15-.35-.34c-.14,0-.17-.21-.26-.3s-.06-.21,0-.29a.44.44,0,0,0-.06-.17s0,0,0-.06,0,0,0,0-.1-.29-.21-.4,0-.05,0-.07a2,2,0,0,1-.44-.64c0-.05,0-.11.06-.14a.33.33,0,0,1,0-.06s0,0,0,0A.72.72,0,0,0,88,28c-.06,0-.12-.05-.1,0s-.07.12-.18-.05c0,0-.06,0-.08,0v.15s0,0,0,0,0,.07,0,.08a1,1,0,0,0-.06-.14c0-.07-.06,0-.08-.08v-.05s0,0,0,0V28a1.13,1.13,0,0,0,0,.2c0,.21-.08.38-.09.57,0,0,0,.08,0,.11s0,0,0,0,0,0,0,0a.17.17,0,0,1,0,.12c0,.05,0,.16,0,.22a.2.2,0,0,0,0,.14h.06c0,.15,0,.26,0,.4a.35.35,0,0,0,0,.18.7.7,0,0,0,0,.63c-.1.09,0,.15,0,.23s-.1.27,0,.37,0,0,0,0a1.74,1.74,0,0,0,.07.29c0,.07,0,.15,0,.21a.24.24,0,0,0,.21.12c0,.07.17.09.13.17s0,0,.05,0,0,0,0,0,0,0,.06,0,0-.06-.09-.08,0,0,0,0a1.08,1.08,0,0,1-.28-.24c-.06-.1,0-.23-.11-.29s0,0,0,0,0-.08,0-.13-.07-.05-.08-.09,0-.14,0-.24,0-.13.07-.16,0,.07,0,.08a.05.05,0,0,1,0-.05c.08.06.22.05.28.13a.23.23,0,0,0,.1.18,1.65,1.65,0,0,0,.3.91.26.26,0,0,0,.06.2c-.11.15.17.3.12.41.13,0,.13.14.1.21s.08,0,.07.1,0,0,0,0,0,0,0,0a.34.34,0,0,1-.06.06s0,0,0,.06h-.07s0-.05,0-.08,0,0,0,0,0,0,0-.09,0,0,0,0l-.08-.08s0,0,0,0a1.4,1.4,0,0,0,.37.76.08.08,0,0,0,0,.08c.07.07.1.12.2.09a2.94,2.94,0,0,1-.19-.29.14.14,0,0,1,.09-.1c.09.09.1.24.19.34l0,0a.6.6,0,0,1,.09.21c0,.13.14.25.2.37s0,.07,0,.08a.42.42,0,0,0-.09-.19,1.08,1.08,0,0,0-.11-.28c0-.19-.14-.28-.21-.49,0,0,0,0,0-.09a.08.08,0,0,0,.06-.1s0,0,0,0a.08.08,0,0,1,0-.08s0,0,0,.06,0-.07.07-.1c.09.14.25.22.29.38s0,.05-.06.09,0-.07.08-.1.08.1.13.12,0,0,0,0,.15.21.21.31.15.3.28.45,0,0,0,0,.17.23.1.35,0,.07,0,.1l0,0s0,.07,0,.11,0,.09,0,.13a.17.17,0,0,0,.11.11s.09.08.15.07,0,0,0-.06-.14,0-.18-.09,0-.09,0-.12h0c-.17-.19,0-.4-.19-.59a.71.71,0,0,1,0-.21c0,.07.1.07.13.14.2.1.26.38.42.55a1.48,1.48,0,0,0,.3.36c0,.05,0,.1,0,.16s0,0,0,0,0,.18,0,.26l0,0,.06.1c.07.06.16.08.22.15l.29.32c0,.12.22.21.31.34s.23.21.35.24,0,0,0,0,.12.08.18.07l0,0a2.56,2.56,0,0,1,.61.35,1.94,1.94,0,0,0,.15.24.63.63,0,0,0,.18.24,1.29,1.29,0,0,0,.33.06.16.16,0,0,0,.09,0l.32.14a6.38,6.38,0,0,0,.57.32l0,0s.09,0,.11,0l-.19-.09-.09,0-.12-.08,0,0-.1-.06-.2-.11a.94.94,0,0,0-.41-.15c-.06,0-.1,0-.16,0l-.13-.06c-.1-.15-.14-.29-.26-.47s-.08-.06-.09-.09c.19.09.51.41.73.49,0,0,0,0-.07-.06s-.3-.22-.47-.35-.21-.12-.32-.21a.91.91,0,0,0-.17-.17s0,0,0,0-.09-.2-.19-.23Zm-5-8.6s0,0,0,0v0s0,0,0,0v.05S87.65,28.05,87.68,28.08Zm.06.52s-.07-.09-.08-.11,0-.07,0,0S87.71,28.56,87.74,28.6Zm.14.18h0s0,.14,0,.19S87.9,28.87,87.88,28.78Zm0,.28s0,0,0,0,0,0,0,.05S87.87,29.08,87.86,29.06ZM88,29a1,1,0,0,0,.06.29c0,.08.12.14.13.22s-.12-.18-.2-.22,0-.18-.05-.23S88,29,88,29Zm-.15.11h0s0,.08,0,.1S87.88,29.18,87.87,29.14Zm0,.1a0,0,0,0,0,0,0S87.88,29.28,87.88,29.24Zm-.14.06s0,0,0,.05,0,.07,0,.09,0,.06,0,.13,0,0,0,0a2,2,0,0,1,.22.9c-.11,0-.09-.1-.24,0-.06-.18,0-.34-.14-.46s0-.21,0-.34S87.63,29.37,87.74,29.3Zm-.13.62s0,0,0,0a.23.23,0,0,1,0,.12c0,.09.09.24,0,.32s-.09-.06-.07-.12c-.13,0-.18-.1-.15-.28s0-.08,0-.12,0-.13,0-.17S87.52,29.89,87.61,29.92Zm.61-.36s0,0,0,.05S88.23,29.58,88.22,29.56Zm.46,1.09a1.6,1.6,0,0,1,.13.3c0,.11,0,.18,0,.31s.06,0,.09.1,0,.14.11.15,0,.16.08.2a.74.74,0,0,1-.29-.08,1.83,1.83,0,0,1-.18-1Zm.61,1.46s0,0,0,0,.06.13.09.18,0,.07,0,.1.09.09,0,.14,0,.12.1.15-.12,0-.15,0h.11a.08.08,0,0,1,0,.11.33.33,0,0,1-.17-.31c-.06,0,0-.09,0-.16s0,0,0,0,.07-.18,0-.25Zm.22.72s0,0,0,.05a0,0,0,0,1-.06,0S89.47,32.83,89.51,32.83Zm.57.18a2.59,2.59,0,0,0,.14.29,1.85,1.85,0,0,0,.23.44c0,.06,0,.18.11.19s.13.18.2.26.16.23.2.39,0,.08,0,.12,0,0,.05.09,0,.12,0,.16,0,0,0,.07,0,0,0,0,0,.08,0,.12.15.19.25.29c-.07,0-.14-.06-.22,0a.75.75,0,0,1-.13-.18.63.63,0,0,0-.09-.14s-.06,0-.08-.08a2.2,2.2,0,0,1-.15-.26c0-.07-.11-.12-.11-.2s-.12-.27-.24-.33-.11-.16-.15-.23a.38.38,0,0,0,0-.36c-.07-.09-.23-.08-.31-.13s-.05-.07-.07-.12,0-.18-.07-.27a2.08,2.08,0,0,1,.26-.07S90,33,90.08,33Zm1.33,2.52,0,0s.06.06.09.07l.23.21a.2.2,0,0,1,0,.07l.14.18.17.17c.05.06.08.15.15.18s.11.17.17.2a1.21,1.21,0,0,0,.18.23c.14.1.26.12.39.28-.07,0-.14-.1-.2-.11a.47.47,0,0,0-.17-.09l-.12-.09a.35.35,0,0,1-.15-.09l-.08-.07c-.06-.06-.11-.14-.16-.19s0,0,0,0A1.25,1.25,0,0,1,92,36.3l0,0,0-.06a5.22,5.22,0,0,0-.32-.42.47.47,0,0,1-.06-.09s-.05,0-.06-.05S91.46,35.55,91.41,35.53Zm1.3,1.19s0,0,0,0S92.7,36.73,92.71,36.72Z"/><path class="cls-8" d="M87.92,32.17l0,0s-.08-.1,0-.15.08.19.12.29S87.9,32.18,87.92,32.17Z"/><path class="cls-8" d="M88,32.38s0,0,0,0,.06,0,.1,0S88,32.36,88,32.38Z"/><path class="cls-8" d="M92.5,37.46s.13.07.19.08A1.54,1.54,0,0,1,92.5,37.46Z"/><path class="cls-8" d="M92.45,39.43Z"/><path class="cls-8" d="M92.13,38.68s0,0,0-.06,0,0,0,0a.48.48,0,0,0-.12-.25s0,0,0,0,0,0,0,0,.08.17.13.24S92.16,38.63,92.13,38.68Z"/><path class="cls-8" d="M91.89,37.61s0,0,0,0S91.92,37.59,91.89,37.61Z"/><path class="cls-8" d="M89.81,39.13s-.08,0,0-.07a.34.34,0,0,1-.17-.05s0,0,0,0S90,39,89.81,39.13Z"/><path class="cls-8" d="M91.19,37s0,0,0,0,0,0,0,0S91.17,37,91.19,37Z"/><path class="cls-8" d="M91,36.47s0,0,0,0S91,36.46,91,36.47Z"/><path class="cls-8" d="M90.16,35.9s0,0,0,0-.07-.12-.11-.16-.06,0-.08-.06a1,1,0,0,1-.21-.3.51.51,0,0,1-.09-.18c.14,0,.15.12.18.19h0c.08.19.29.25.27.44,0,0,0,.05.07.06s0,0,0,0Z"/><path class="cls-8" d="M89.57,35.39s0,0,0-.06,0,0,0-.06a2.18,2.18,0,0,0-.17-.51s0,0,0,0,.1.09.11.17.06.19.09.27a.19.19,0,0,0,0,.16Z"/><path class="cls-8" d="M89.29,34.94h0s0-.08-.07-.11,0,0,.08,0S89.31,34.91,89.29,34.94Z"/><path class="cls-8" d="M89.37,34.74s-.05,0-.05-.05S89.34,34.72,89.37,34.74Z"/><path class="cls-8" d="M88.83,33.8s-.08,0-.06,0-.08-.08-.13-.14,0,0,0,0,0,0,0,0l-.07-.1h0s0,0,0,0,0,0,0,0v0s0,0,0,0h0s0,0,0,0,.05.06.06,0,0,.07,0,.08S88.78,33.73,88.83,33.8Z"/><path class="cls-8" d="M88.54,33.49a0,0,0,0,1,0,0S88.56,33.49,88.54,33.49Z"/><path class="cls-8" d="M88.51,33.47s0,0,0,0S88.53,33.46,88.51,33.47Z"/><path class="cls-8" d="M88.5,33.39s0,0,0,0S88.49,33.38,88.5,33.39Z"/><path class="cls-8" d="M88.45,33.33l0,0S88.44,33.31,88.45,33.33Z"/><path class="cls-8" d="M88.27,32.78v0S88.28,32.78,88.27,32.78Z"/><path class="cls-8" d="M88,34a.21.21,0,0,0,0,.14.83.83,0,0,0,.06.32c0,.05,0,.08,0,.12a.64.64,0,0,0,.23.46v0c0,.05.09.08.12.12a.94.94,0,0,1,.11.37s0,0,0,0a1.34,1.34,0,0,0,0,.4s0,0,0,.09l.09.08a.24.24,0,0,0,.14.21c0,.05,0,.07.06.1.1.22.18.52.26.75,0,0,0,0,.06.05a.29.29,0,0,0,.12.24c0,.06,0,.11,0,.18s0,.14,0,.14.13.2.12.35a1.34,1.34,0,0,0,0,.2,1.14,1.14,0,0,0,.15.17s0,0,0,0,.14.05.14.12.3,0,.39.14.2.1.3.13.11.13.1.21.05.07.1.09,0,0,0,.05h0c0,.1.19.16.32.17s0,0,0,0a2.06,2.06,0,0,1,.6.12s0,.08,0,.13h0s0,0,0,0a.54.54,0,0,0,.26-.05s.09-.07,0-.09,0-.11.11-.12.06,0,0,0l-.08-.07h0s-.06,0-.05,0,.06,0,.1,0,0,0,.07,0l0,0s0,0,0,0l0,0a.88.88,0,0,0-.07-.13,1.66,1.66,0,0,1-.16-.37.07.07,0,0,0,0-.08s0,0,0-.06,0,0,0,0,0,0,0-.06,0-.07-.09-.08a.17.17,0,0,0,0-.1s0,0,0,0,0-.17-.08-.21a.14.14,0,0,0,0-.11c0-.16,0-.29-.09-.33.07-.1,0-.09,0-.14s.07-.19,0-.21,0,0,0,0,0-.08-.07-.13,0-.09,0-.11a.25.25,0,0,0-.19,0s-.15,0-.11-.06-.05,0-.05,0,0,0,0,0l-.06,0,.08,0s0,0,0,0a.6.6,0,0,1,.24,0s0,.11.1.11,0,0,0,.05,0,0,0,.06h.07s0,.09,0,.14,0,.08,0,.12,0,0,0,0,0,0,0,0-.19.08-.25.06a.09.09,0,0,0-.09-.07.61.61,0,0,0-.31-.46.09.09,0,0,0-.05-.11c.11-.13-.14-.15-.09-.24-.12,0-.11-.07-.07-.12s-.07,0-.07,0,0,0,0,0h0a.13.13,0,0,1,0-.06l0,0s0,0,.06,0,0,0,0,.05l0,0c-.06,0,0,0,0,.06h0l.07,0s0,0,0,0c0-.21-.13-.3-.26-.45s0,0,0-.06-.08-.06-.18,0a1.63,1.63,0,0,1,.14.18.19.19,0,0,1-.09.09c-.08,0-.06-.16-.14-.21l0,0a.27.27,0,0,1,0-.13c0-.08-.09-.15-.12-.23s0-.06,0-.06,0,.1.06.12a.32.32,0,0,0,0,.19c0,.13.1.18.13.32s0,0,0,.06-.07,0-.06.08,0,0,.05,0a.17.17,0,0,1-.06.07s0,0,0,0,0,0-.08.08-.2-.12-.23-.23.06,0,.07-.07,0,.05-.09.08-.06-.06-.11-.07,0,0,0,0-.1-.14-.16-.2-.08-.21-.17-.31,0,0,0,0-.1-.16,0-.25,0-.05,0-.07l0,0s0,0,0-.08,0-.06,0-.1-.05-.06-.07-.07-.07-.06-.12,0l0,0c.05,0,.12,0,.14.07s0,.06,0,.08h0c.1.13-.06.3,0,.43a.6.6,0,0,1-.08.16s-.07,0-.09-.1-.15-.28-.25-.4-.1-.18-.15-.28,0-.08,0-.12,0,0,0,0S89,35,89,35s0,0,0,0a.14.14,0,0,0,0-.07s-.09-.08-.12-.14l-.11-.27c0-.09-.09-.18-.1-.29s-.07-.2-.16-.24,0,0,0,0,0-.08-.1-.09v0a.87.87,0,0,1-.26-.4,1.46,1.46,0,0,0,0-.22.35.35,0,0,0,0-.21.7.7,0,0,0-.19-.14s0,0,0,0a1.39,1.39,0,0,1-.11-.21c-.07-.15-.06-.27-.13-.42v0s0-.06,0-.07a.51.51,0,0,0,0,.14.25.25,0,0,0,0,.07s0,.07,0,.1v0a.2.2,0,0,0,0,.07.67.67,0,0,0,.06.15c.05.11.1.23.18.24s.06,0,.09.07a.22.22,0,0,1,0,.08,3.33,3.33,0,0,0-.1.4.14.14,0,0,1,0,.09c-.09-.12-.12-.43-.22-.57,0,0,0,0,0,.06l.12.4c0,.08.08.14.11.24a1.1,1.1,0,0,0,0,.16s0,0,0,0S88,34,88,34Zm4.2,5.44h0l0,0S92.25,39.45,92.22,39.45ZM92,39.23s.08,0,.09,0,0,0,0,.05S92,39.22,92,39.23Zm-.17,0,0,0s-.08-.06-.07-.11S91.73,39.19,91.78,39.22ZM91.69,39s0,0,0,0,0,0,0-.05S91.68,39,91.69,39Zm-.1.13a.66.66,0,0,0-.14-.15s-.14,0-.17-.06.15,0,.22,0,.06.11.11.11S91.62,39.14,91.59,39.17Zm.07-.17v0s-.06,0,0-.06S91.64,39,91.66,39Zm0-.06,0,0S91.61,38.92,91.62,38.94Zm.08-.12s0,0,0,0,0-.06,0-.07-.05,0-.07,0,0,0,0,0a.6.6,0,0,1-.35-.44c.08-.06.08,0,.19-.09.08.07.08.19.19.2s0,.12.08.19A.24.24,0,0,1,91.7,38.82Zm0-.45s0,0,0,0,0,0,0-.08-.1-.09-.06-.17.08,0,.07,0,.15,0,.16.07,0,.07,0,.1,0,.06,0,.11S91.73,38.34,91.66,38.37Zm-.39.59s0,0,0,0S91.26,39,91.27,39Zm-.64-.54c0-.05-.13-.09-.16-.16s0-.15,0-.22-.07,0-.1,0,0-.1-.11-.08,0-.12-.08-.12a.63.63,0,0,1,.27,0c.1.21.28.36.26.63ZM90,37.54h0c0-.07-.06-.09-.08-.12s0-.05,0-.07-.08-.05,0-.1,0-.08-.09-.09.11,0,.15,0l-.1,0s0-.06,0-.09.16.12.13.19,0,.07,0,.11,0,0,0,0-.07.15,0,.18S90,37.53,90,37.54Zm-.18-.49a.08.08,0,0,1,0,0h.06S89.82,37,89.79,37.05Zm-.52,0c0-.07-.08-.14-.11-.2s-.07-.24-.15-.32,0-.14-.07-.14-.09-.13-.14-.19-.1-.18-.1-.31,0-.06,0-.09,0,0,0-.07,0-.09,0-.13,0,0,0,0l0,0s0-.06,0-.1-.07-.15-.13-.24a.25.25,0,0,0,.19,0,.45.45,0,0,1,.06.14.18.18,0,0,0,0,.11l.05.06c0,.06,0,.14.06.2s.07.09.05.15,0,.21.15.25.07.12.09.17-.12.19-.06.27.21,0,.28.06,0,0,0,.08,0,.14,0,.19l-.25.09S89.31,37,89.27,37Zm-.68-1.91h0s0-.05-.06-.06-.08-.12-.11-.19,0,0,0-.05l0-.16-.07-.15c0-.06,0-.13,0-.16s0-.15,0-.19,0-.13,0-.2-.14-.15-.14-.3c0,0,0,.11.08.13s.06.08.08.11l.06.08s0,0,.07.1l0,.07s0,.13,0,.17l0,0s0,.07,0,.1,0,0,0,0,0,0,0,.06a2,2,0,0,0,.11.35.22.22,0,0,0,0,.08s0,0,0,0S88.56,35.06,88.59,35.09ZM88,34v0S88.06,34,88,34Z"/><path class="cls-8" d="M91.24,37.14h0s.07,0,0,.08a.49.49,0,0,1-.1-.15S91.26,37.13,91.24,37.14Z"/><path class="cls-8" d="M91.21,37s0,0,0,0,0,0-.09,0Z"/><path class="cls-8" d="M88.6,33.5s-.06-.08-.09-.1S88.57,33.47,88.6,33.5Z"/><path class="cls-8" d="M98.12,26.07Z"/><path class="cls-8" d="M98.56,26.45v.05h0s0,.09,0,.07v0h0l0,.09h0v0l0,.06,0-.18v0s0,0,0,0Z"/><path class="cls-8" d="M98.48,27.14s0,0,0,.06A.15.15,0,0,1,98.48,27.14Z"/><path class="cls-8" d="M100.19,25.22s.07,0,0,0,.1,0,.14,0l0,.05C100.24,25.34,100.05,25.39,100.19,25.22Z"/><path class="cls-8" d="M99.09,27.38s0,0,0,0,0,0,0,0S99.11,27.36,99.09,27.38Z"/><path class="cls-8" d="M99.28,27.68l0,0S99.28,27.69,99.28,27.68Z"/><path class="cls-8" d="M100,27.87s0,0,0,0,.05.07.08.09,0,0,.07,0a.48.48,0,0,1,.16.19s0,.07,0,.12-.11-.07-.13-.12h0c0-.12-.23-.13-.19-.27s0,0-.06,0a0,0,0,0,1,0,0Z"/><path class="cls-8" d="M100.44,28.15s0,0,0,0,0,0,0,0,.06.23.07.36,0,0,0,0-.07-.06-.06-.11,0-.13,0-.19a.09.09,0,0,0,0-.11Z"/><path class="cls-8" d="M100.62,28.46h0s0,.06,0,.08,0,0-.07,0S100.6,28.48,100.62,28.46Z"/><path class="cls-8" d="M100.51,28.61s0,0,0,0S100.53,28.62,100.51,28.61Z"/><path class="cls-8" d="M100.76,29.28s.07,0,0,0,0,.07.08.11,0,0,0,0,0,0,0,0,0,.06,0,.08h0s0,0,0,0a0,0,0,0,0,0,0s0,0,0,0h0s0,0,0,0,0,0,0,0,0-.05,0-.06S100.78,29.33,100.76,29.28Z"/><path class="cls-8" d="M100.92,29.53s0,0,0,0Z"/><path class="cls-8" d="M100.94,29.56s0,0,0,0S100.93,29.56,100.94,29.56Z"/><path class="cls-8" d="M100.92,29.61s0,0,0,0S100.92,29.62,100.92,29.61Z"/><path class="cls-8" d="M100.94,29.66l0,0A0,0,0,0,1,100.94,29.66Z"/><path class="cls-8" d="M100.89,30.05l0,0S100.88,30.05,100.89,30.05Z"/><path class="cls-8" d="M101.59,29.26s0-.08,0-.11.07-.19,0-.26,0-.06,0-.1a.38.38,0,0,0-.11-.39v0s-.07-.07-.09-.11a.73.73,0,0,1-.05-.3s0,0,0,0a1.4,1.4,0,0,0,0-.34s0,0,0-.07l-.08-.07a.17.17,0,0,0-.12-.16s0-.05-.06-.09l-.27-.6s0,0-.06,0-.06-.15-.13-.17,0-.09,0-.15,0-.13,0-.11-.13-.13-.14-.25a1,1,0,0,0,0-.17c-.06,0-.09-.08-.15-.1s0,0,0,0-.13,0-.14-.05-.25.08-.33,0-.17,0-.26,0-.11-.09-.11-.16a.17.17,0,0,0-.1-.06s0,0,0,0h0c0-.08-.22-.09-.34-.06s0,0,0,0c-.23,0-.41.16-.58.2s-.09,0-.12-.07,0,0,0,0,0,0,0,0a.41.41,0,0,0-.14.24c0,.06,0,.11,0,.09s.1.05,0,.16,0,.05,0,.06h.08s0,0,0,0,0,0,.05,0,0,0-.06.05,0,0,0,.06h0s0,0,0,0h0a.48.48,0,0,1,.11.05.39.39,0,0,1,.19.21s0,.06,0,0v0a.06.06,0,0,1,0,0s0,0,0,0v0s0,.12,0,.12a.23.23,0,0,0,0,.07c0,.14-.07.21,0,.21s0,.07,0,.11-.06.19,0,.18l0,0s0,.06.06.09,0,.07,0,.08a.27.27,0,0,0,.16-.07s.12-.06.09,0l0,0s0,0,0,0l0-.05s0,0-.06,0v0a1.23,1.23,0,0,1-.21.05s0-.08-.09-.06,0,0,0-.05,0,0,0-.05,0,0-.06,0,0-.09,0-.12,0-.06,0-.11,0,0,0,0,0,0,0,0,.15-.13.2-.13a.06.06,0,0,0,.08,0,.31.31,0,0,0,.28.26s0,.06.05.07.13.06.08.15c.11-.07.11,0,.07.06s.06,0,.06,0,0,0,0,0h0l0,.06s0,0,0,0l0,0s0,0,0,0,0,0,0,0,0,0,0-.05,0,0,0,0h-.07c0,.16.12.17.23.24s0,0,0,0a.17.17,0,0,0,.16,0s-.07,0-.11-.08,0-.05.08-.09,0,.09.11.11h0s0,.06,0,.09.07.09.09.14,0,0,0,0,0-.07,0-.08a.14.14,0,0,0,0-.12c0-.1-.07-.1-.1-.19s0,0,0-.06.07,0,.06-.07,0,0,0,0,0,0,.05-.07,0,0,0,0,0-.05.07-.08.18,0,.2.11l-.06.07s0-.05.08-.08.06,0,.1,0,0,0,0,0,.09.09.13.12.07.15.14.21,0,0,0,0,.08.11,0,.19,0,0,0,0l0,0s0,0,0,0,0,.05,0,.07,0,.05,0,.06a.15.15,0,0,0,.1,0l0,0s-.1,0-.12,0,0-.05,0-.06h0c-.08-.09.09-.23,0-.32l.09-.14s.06,0,.07.07.13.2.2.29.07.14.1.22,0,.06,0,.09,0,0,0,0-.1.1-.1.15,0,0,0,0v.05s.08.06.09.11l0,.21c0,.07,0,.14,0,.22s0,.16.08.2,0,0,0,0,0,.07.06.08v0a.49.49,0,0,1,.1.34,1.49,1.49,0,0,0-.12.14.21.21,0,0,0-.1.14.56.56,0,0,0,.1.15l0,0a1,1,0,0,1,0,.17c0,.12-.08.19-.09.31h0s0,.05,0,.05a.46.46,0,0,0,0-.09s0,0,0-.05a.15.15,0,0,1,0-.07v0l0-.05a.45.45,0,0,0,0-.11c0-.09,0-.19,0-.22s0,0-.06-.07,0,0,0-.07.18-.13.25-.25,0-.05,0-.06,0,.34,0,.46a.07.07,0,0,0,0-.05l.06-.31c0-.06,0-.12,0-.2a.79.79,0,0,1,0-.13,0,0,0,0,1,0,0c0-.06.09-.12,0-.17ZM98.17,25.9h0s0,0,0,0h0S98.16,25.92,98.17,25.9Zm.26,0c0,.05,0,.06,0,.05a0,0,0,0,1,0,0S98.42,25.91,98.43,25.89Zm.1-.08v0s.07,0,.09.06S98.57,25.81,98.53,25.81Zm.11.11s0,0,0,0,0,0,0,0S98.65,25.91,98.64,25.92Zm0-.16a.84.84,0,0,0,.14.06s.11,0,.14,0-.12,0-.17.07-.07-.07-.1-.05S98.66,25.79,98.67,25.76Zm0,.17v0s0,0,0,0S98.69,25.94,98.67,25.93Zm0,0v0S98.72,26,98.71,26Zm0,.15s0,0,0,0,0,.05,0,.06,0,0,0,0l0,0a.26.26,0,0,1,.26.24c-.06.08-.07,0-.16.14-.06,0-.05-.13-.12-.09s0-.08,0-.12S98.66,26.24,98.68,26.11Zm0,.35s0,0,0,0,0,0,0,.06.06,0,0,.12-.06,0,0,0-.1.1-.09,0l0-.08s0,0,0-.08S98.66,26.52,98.71,26.46Zm.25-.65s0,0,0,0S99,25.81,99,25.81Zm.56.26s.11,0,.15.08,0,.12,0,.16.06,0,.09,0,0,.07.1,0,0,.1.08.07a.86.86,0,0,1-.24.11c-.1-.13-.26-.19-.25-.43Zm.63.49s0,0,0,0,0,.05.08.07,0,0,0,.06.08,0,0,.07,0,.06.09,0-.11,0-.14.08.07,0,.09,0,0,0,0,.08a.11.11,0,0,1-.14-.12s0,0,0-.07,0,0,0,0,.05-.13,0-.15S100.15,26.57,100.15,26.56Zm.19.35s0,0,0,0l0,0A.13.13,0,0,1,100.34,26.91Zm.49-.09a.58.58,0,0,0,.11.15c0,.07,0,.2.14.25s0,.12.06.11.08.11.12.15.09.15.07.25,0,.06,0,.08,0,0,0,.06l0,.11s0,0,0,0l0,0s0,.05,0,.08a1.07,1.07,0,0,1,.07.19.21.21,0,0,0-.17,0,.35.35,0,0,1,0-.11.15.15,0,0,0,0-.09l0,0c0-.05,0-.11,0-.16s-.06-.07,0-.12,0-.16-.12-.18,0-.09-.08-.13.13-.18.07-.23-.19,0-.26,0,0,0,0,0,0-.12,0-.15l.23-.13S100.79,26.85,100.83,26.82Zm.49,1.53h.05s0,0,0,.06.06.09.07.15,0,0,0,.05v.12c0,.05,0,.09,0,.13s0,.1,0,.13,0,.12,0,.15,0,.1,0,.16.08.14,0,.25,0-.09,0-.12,0-.07,0-.09,0,0,0-.07,0,0,0-.09v-.06s0-.09,0-.12l0,0s0-.05,0-.08v0l0,0a.92.92,0,0,0,0-.28s0-.05,0-.06,0,0,0,0S101.35,28.37,101.32,28.35Zm.24.93s0,0,0,0S101.54,29.28,101.56,29.28Z"/><path class="cls-8" d="M99.05,27.29h0s-.06,0,0-.05a.31.31,0,0,1,.09.07S99,27.31,99.05,27.29Z"/><path class="cls-8" d="M99.08,27.37s0,0,0,0,0,0,.08,0S99.1,27.35,99.08,27.37Z"/><path class="cls-8" d="M100.87,29.52s0,.06,0,.08S100.89,29.55,100.87,29.52Z"/></g></g><path class="cls-9" d="M89.11,27.39a7.42,7.42,0,0,1,9.75,11.16,7.5,7.5,0,1,0-9.75-11.16Z"/><circle class="cls-10" cx="94.84" cy="32.22" r="7.5"/></g></g></svg>